<svg xmlns="http://www.w3.org/2000/svg" xmlns:xlink="http://www.w3.org/1999/xlink" version="1.1" width="1000" height="1000" viewBox="0 0 1000 1000" xml:space="preserve">
<desc>Created with Fabric.js 3.6.3</desc>
<defs>
</defs>
<g transform="matrix(1 0 0 1 496.4923900964445 498.7449752313583)" id="uid6tfdw8pyt">
<g style="">
		<g transform="matrix(1 0 0 1 0 0)" id="uidry161l80t">
<path style="stroke: rgb(191,7,185); stroke-width: 0; stroke-dasharray:none; stroke-linecap: butt; stroke-dashoffset: 0; stroke-linejoin: miter; stroke-miterlimit: 4; fill: rgb(255,255,255); fill-opacity: 0; fill-rule: nonzero; opacity: 1;" transform=" translate(-500, -500.00000009550615)" d="M 500 82.06181 c 203.89132 0.66665 407.78256 209.30239 407.78256 417.93819 c 0 208.63577 -203.89132 417.27172 -407.78256 417.93819 c -203.89132 0.66665 -407.78256 -206.63614 -407.78256 -417.93819 c 0 -211.30216 203.89132 -418.6048 407.78256 -417.93819 z" stroke-linecap="round"/>
</g>
		<g transform="matrix(0.995185494743148 0.09800934166106677 -0.09800934166106677 0.995185494743148 31.985386680622618 -445.1800362618992)" style="" id="th6ftvuba">
		
<g xml:space="preserve" style="stroke: none; stroke-width: 1; stroke-dasharray:none; stroke-linecap: butt; stroke-dashoffset: 0; stroke-linejoin: miter; stroke-miterlimit: 4; fill: rgb(64,64,64); fill-rule: nonzero; opacity: 1; white-space: pre;"><path d="M-1.85 30.87L-1.85 30.87Q-6.96 30.87-11.03 29.74Q-15.10 28.60-17.89 26.80Q-20.68 25.01-22.15 22.73Q-23.62 20.46-23.62 18.19L-23.62 18.19Q-23.62 15.16-21.96 13.36Q-20.31 11.56-17.56 11.56L-17.56 11.56Q-14.82 11.56-13.21 13.27Q-11.60 14.97-11.60 17.72L-11.60 17.72Q-11.60 19.80-12.73 21.36Q-13.87 22.92-15.10 23.40L-15.10 23.40L-15.10 23.59Q-13.40 24.63-10.37 25.34Q-7.34 26.05-3.08 26.05L-3.08 26.05Q4.97 26.05 9.09 22.45Q13.21 18.85 13.21 12.98L13.21 12.98L13.21 10.14Q13.21 4.75 10.18 1.67Q7.15-1.41 1.37-1.41L1.37-1.41L-9.80-1.41L-9.80-6.33L0.62-6.33Q5.44-6.33 8.71-9.45Q11.98-12.58 11.98-17.69L11.98-17.69L11.98-21.29Q11.98-26.11 8.95-29.38Q5.92-32.65-0.33-32.65L-0.33-32.65Q-3.55-32.65-6.25-31.84Q-8.95-31.04-10.89-29.57Q-12.83-28.10-13.92-26.11Q-15.00-24.13-15.00-21.85L-15.00-21.85L-15.00-16.08L-22.29-16.08L-22.29-36.34L-15.00-36.34L-15.00-30.56L-14.63-30.56Q-12.45-33.69-8.52-35.58Q-4.59-37.47 1.56-37.47L1.56-37.47Q6.30-37.47 10.03-36.20Q13.77-34.92 16.33-32.69Q18.89-30.47 20.26-27.39Q21.63-24.32 21.63-20.72L21.63-20.72Q21.63-13.90 17.75-9.83Q13.87-5.76 8.19-4.53L8.19-4.53L8.19-4.15Q10.93-3.68 13.58-2.64Q16.24-1.60 18.27 0.30Q20.31 2.19 21.58 4.98Q22.86 7.78 22.86 11.66L22.86 11.66Q22.86 15.92 21.06 19.47Q19.26 23.02 16.05 25.53Q12.83 28.03 8.24 29.45Q3.64 30.87-1.85 30.87Z"/></g></g>
		<g transform="matrix(0.962527000836213 0.2711858636825392 -0.2711858636825392 0.962527000836213 95.30965549497839 -433.1231303665316)" style="" id="h9e3vmp0f">
		
<g xml:space="preserve" style="stroke: none; stroke-width: 1; stroke-dasharray:none; stroke-linecap: butt; stroke-dashoffset: 0; stroke-linejoin: miter; stroke-miterlimit: 4; fill: rgb(64,64,64); fill-rule: nonzero; opacity: 1; white-space: pre;"><path d="M-25.04 29.74L-25.04 25.19L-17.84 25.19L-17.84-31.79L-25.04-31.79L-25.04-36.34L6.58-36.34Q15.86-36.34 20.78-31.84Q25.70-27.35 25.70-18.64L25.70-18.64Q25.70-9.93 20.64-5.19Q15.57-0.46 6.39-0.46L6.39-0.46L-8.95-0.46L-8.95 25.19L0.14 25.19L0.14 29.74L-25.04 29.74ZM-8.95-31.42L-8.95-5.38L5.92-5.38Q10.93-5.38 13.63-8.46Q16.33-11.54 16.33-16.08L16.33-16.08L16.33-20.72Q16.33-25.26 13.63-28.34Q10.93-31.42 5.92-31.42L5.92-31.42L-8.95-31.42Z"/></g></g>
		<g transform="matrix(0.9034555217901248 0.4286818402346119 -0.4286818402346119 0.9034555217901248 160.59045162425514 -408.50416489244856)" style="" id="c1gkhgsdq">
		
<g xml:space="preserve" style="stroke: none; stroke-width: 1; stroke-dasharray:none; stroke-linecap: butt; stroke-dashoffset: 0; stroke-linejoin: miter; stroke-miterlimit: 4; fill: rgb(64,64,64); fill-rule: nonzero; opacity: 1; white-space: pre;"><path d="M-0.00 25.57L-0.00 25.57Q4.92 25.57 8.66 23.82Q12.40 22.07 14.96 18.95Q17.51 15.82 18.79 11.61Q20.07 7.40 20.07 2.38L20.07 2.38L20.07-8.98Q20.07-13.90 18.79-18.16Q17.51-22.42 14.96-25.55Q12.40-28.67 8.66-30.42Q4.92-32.17-0.00-32.17L-0.00-32.17Q-4.92-32.17-8.66-30.42Q-12.40-28.67-14.96-25.55Q-17.51-22.42-18.79-18.16Q-20.07-13.90-20.07-8.98L-20.07-8.98L-20.07 2.38Q-20.07 7.40-18.79 11.61Q-17.51 15.82-14.96 18.95Q-12.40 22.07-8.66 23.82Q-4.92 25.57-0.00 25.57ZM-0.00 30.87L-0.00 30.87Q-6.72 30.87-12.26 28.51Q-17.80 26.14-21.73 21.69Q-25.65 17.24-27.83 10.90Q-30.01 4.56-30.01-3.30L-30.01-3.30Q-30.01-11.16-27.83-17.50Q-25.65-23.84-21.73-28.29Q-17.80-32.74-12.26-35.11Q-6.72-37.47-0.00-37.47L-0.00-37.47Q6.72-37.47 12.26-35.11Q17.80-32.74 21.73-28.29Q25.65-23.84 27.83-17.50Q30.01-11.16 30.01-3.30L30.01-3.30Q30.01 4.56 27.83 10.90Q25.65 17.24 21.73 21.69Q17.80 26.14 12.26 28.51Q6.72 30.87-0.00 30.87Z"/></g></g>
		<g transform="matrix(0.8302806656297429 0.5573455088914157 -0.5573455088914157 0.8302806656297429 220.4566658197597 -374.3587384238098)" style="" id="d309vylbu">
		
<g xml:space="preserve" style="stroke: none; stroke-width: 1; stroke-dasharray:none; stroke-linecap: butt; stroke-dashoffset: 0; stroke-linejoin: miter; stroke-miterlimit: 4; fill: rgb(64,64,64); fill-rule: nonzero; opacity: 1; white-space: pre;"><path d="M-24.76 29.74L-24.76 25.19L-17.56 25.19L-17.56-31.79L-24.76-31.79L-24.76-36.34L20.21-36.34L20.21-20.25L12.92-20.25L12.92-31.42L-8.66-31.42L-8.66-8.03L5.16-8.03Q14.63-8.03 19.74-3.21Q24.85 1.62 24.85 10.81L24.85 10.81Q24.85 20.08 19.74 24.91Q14.63 29.74 5.16 29.74L5.16 29.74L-24.76 29.74ZM-8.66 24.82L4.69 24.82Q9.99 24.82 12.73 21.64Q15.48 18.47 15.48 13.36L15.48 13.36L15.48 8.34Q15.48 3.23 12.73 0.06Q9.99-3.11 4.69-3.11L4.69-3.11L-8.66-3.11L-8.66 24.82Z"/></g></g>
		<g transform="matrix(0.7495263468647336 0.661974512617825 -0.661974512617825 0.7495263468647336 273.13972895163096 -333.6447623863243)" style="" id="1u8jwugja">
		
<g xml:space="preserve" style="stroke: none; stroke-width: 1; stroke-dasharray:none; stroke-linecap: butt; stroke-dashoffset: 0; stroke-linejoin: miter; stroke-miterlimit: 4; fill: rgb(64,64,64); fill-rule: nonzero; opacity: 1; white-space: pre;"><path d="M-21.77 30.87L-21.77 30.87Q-26.60 30.87-29.25 28.27Q-31.90 25.67-31.90 21.98L-31.90 21.98Q-31.90 18.85-30.34 16.96Q-28.78 15.07-25.94 15.07L-25.94 15.07Q-23.38 15.07-21.92 16.63Q-20.45 18.19-20.45 20.65L-20.45 20.65Q-20.45 22.45-21.44 23.77Q-22.44 25.10-23.48 25.48L-23.48 25.48L-23.48 25.86Q-23.19 26.05-22.81 26.05Q-22.44 26.05-21.96 26.05L-21.96 26.05Q-20.83 26.05-19.69 25.62Q-18.55 25.19-17.51 24.15L-17.51 24.15Q-16.09 22.73-15.00 20.04Q-13.92 17.34-13.11 12.08Q-12.31 6.83-11.93-1.55Q-11.55-9.93-11.55-22.71L-11.55-22.71L-11.55-31.79L-18.74-31.79L-18.74-36.34L27.64-36.34L27.64-31.79L20.45-31.79L20.45 25.19L27.64 25.19L27.64 29.74L4.35 29.74L4.35 25.19L11.55 25.19L11.55-31.42L-5.40-31.42L-5.40-23.27Q-5.40-10.31-5.82-1.55Q-6.25 7.21-7.15 12.94Q-8.05 18.66-9.51 22.02Q-10.98 25.38-13.06 27.47L-13.06 27.47Q-14.96 29.36-17.23 30.12Q-19.50 30.87-21.77 30.87Z"/></g></g>
		<g transform="matrix(0.6574067973898343 0.7535358669271432 -0.7535358669271432 0.6574067973898343 320.85936594063617 -285.62282569586)" style="" id="tbfnyfyvn">
		
<g xml:space="preserve" style="stroke: none; stroke-width: 1; stroke-dasharray:none; stroke-linecap: butt; stroke-dashoffset: 0; stroke-linejoin: miter; stroke-miterlimit: 4; fill: rgb(64,64,64); fill-rule: nonzero; opacity: 1; white-space: pre;"><path d="M-25.94 29.74L-25.94 25.19L-18.74 25.19L-18.74-31.79L-25.94-31.79L-25.94-36.34L24.52-36.34L24.52-20.25L17.23-20.25L17.23-31.42L-9.85-31.42L-9.85-6.71L8.80-6.71L8.80-14.28L14.86-14.28L14.86 5.79L8.80 5.79L8.80-1.79L-9.85-1.79L-9.85 24.82L18.18 24.82L18.18 12.70L25.47 12.70L25.47 29.74L-25.94 29.74Z"/></g></g>
		<g transform="matrix(0.5433536394672606 0.839503914510041 -0.839503914510041 0.5433536394672606 365.04528629826996 -227.06148872788614)" style="" id="nj7294tfk">
		
<g xml:space="preserve" style="stroke: none; stroke-width: 1; stroke-dasharray:none; stroke-linecap: butt; stroke-dashoffset: 0; stroke-linejoin: miter; stroke-miterlimit: 4; fill: rgb(64,64,64); fill-rule: nonzero; opacity: 1; white-space: pre;"><path d="M-32.94 29.74L-32.94 25.19L-25.75 25.19L-25.75-31.79L-32.94-31.79L-32.94-36.34L-9.66-36.34L-9.66-31.79L-16.85-31.79L-16.85-6.33L16.85-6.33L16.85-31.79L9.66-31.79L9.66-36.34L32.94-36.34L32.94-31.79L25.75-31.79L25.75 25.19L32.94 25.19L32.94 29.74L9.66 29.74L9.66 25.19L16.85 25.19L16.85-1.41L-16.85-1.41L-16.85 25.19L-9.66 25.19L-9.66 29.74L-32.94 29.74Z"/></g></g>
		<g transform="matrix(0.40104649683142246 0.9160576987173045 -0.9160576987173045 0.40104649683142246 401.83891372895954 -158.87546627717077)" style="" id="yt3a6yiz5">
		
<g xml:space="preserve" style="stroke: none; stroke-width: 1; stroke-dasharray:none; stroke-linecap: butt; stroke-dashoffset: 0; stroke-linejoin: miter; stroke-miterlimit: 4; fill: rgb(64,64,64); fill-rule: nonzero; opacity: 1; white-space: pre;"><path d="M-0.00 25.57L-0.00 25.57Q4.92 25.57 8.66 23.82Q12.40 22.07 14.96 18.95Q17.51 15.82 18.79 11.61Q20.07 7.40 20.07 2.38L20.07 2.38L20.07-8.98Q20.07-13.90 18.79-18.16Q17.51-22.42 14.96-25.55Q12.40-28.67 8.66-30.42Q4.92-32.17-0.00-32.17L-0.00-32.17Q-4.92-32.17-8.66-30.42Q-12.40-28.67-14.96-25.55Q-17.51-22.42-18.79-18.16Q-20.07-13.90-20.07-8.98L-20.07-8.98L-20.07 2.38Q-20.07 7.40-18.79 11.61Q-17.51 15.82-14.96 18.95Q-12.40 22.07-8.66 23.82Q-4.92 25.57-0.00 25.57ZM-0.00 30.87L-0.00 30.87Q-6.72 30.87-12.26 28.51Q-17.80 26.14-21.73 21.69Q-25.65 17.24-27.83 10.90Q-30.01 4.56-30.01-3.30L-30.01-3.30Q-30.01-11.16-27.83-17.50Q-25.65-23.84-21.73-28.29Q-17.80-32.74-12.26-35.11Q-6.72-37.47-0.00-37.47L-0.00-37.47Q6.72-37.47 12.26-35.11Q17.80-32.74 21.73-28.29Q25.65-23.84 27.83-17.50Q30.01-11.16 30.01-3.30L30.01-3.30Q30.01 4.56 27.83 10.90Q25.65 17.24 21.73 21.69Q17.80 26.14 12.26 28.51Q6.72 30.87-0.00 30.87Z"/></g></g>
		<g transform="matrix(0.25097637393930894 0.9679932126437024 -0.9679932126437024 0.25097637393930894 424.3268402977032 -94.20876500512288)" style="" id="hqo9ca6sa">
		
<g xml:space="preserve" style="stroke: none; stroke-width: 1; stroke-dasharray:none; stroke-linecap: butt; stroke-dashoffset: 0; stroke-linejoin: miter; stroke-miterlimit: 4; fill: rgb(64,64,64); fill-rule: nonzero; opacity: 1; white-space: pre;"><path d="M-1.85 30.87L-1.85 30.87Q-6.96 30.87-11.03 29.74Q-15.10 28.60-17.89 26.80Q-20.68 25.01-22.15 22.73Q-23.62 20.46-23.62 18.19L-23.62 18.19Q-23.62 15.16-21.96 13.36Q-20.31 11.56-17.56 11.56L-17.56 11.56Q-14.82 11.56-13.21 13.27Q-11.60 14.97-11.60 17.72L-11.60 17.72Q-11.60 19.80-12.73 21.36Q-13.87 22.92-15.10 23.40L-15.10 23.40L-15.10 23.59Q-13.40 24.63-10.37 25.34Q-7.34 26.05-3.08 26.05L-3.08 26.05Q4.97 26.05 9.09 22.45Q13.21 18.85 13.21 12.98L13.21 12.98L13.21 10.14Q13.21 4.75 10.18 1.67Q7.15-1.41 1.37-1.41L1.37-1.41L-9.80-1.41L-9.80-6.33L0.62-6.33Q5.44-6.33 8.71-9.45Q11.98-12.58 11.98-17.69L11.98-17.69L11.98-21.29Q11.98-26.11 8.95-29.38Q5.92-32.65-0.33-32.65L-0.33-32.65Q-3.55-32.65-6.25-31.84Q-8.95-31.04-10.89-29.57Q-12.83-28.10-13.92-26.11Q-15.00-24.13-15.00-21.85L-15.00-21.85L-15.00-16.08L-22.29-16.08L-22.29-36.34L-15.00-36.34L-15.00-30.56L-14.63-30.56Q-12.45-33.69-8.52-35.58Q-4.59-37.47 1.56-37.47L1.56-37.47Q6.30-37.47 10.03-36.20Q13.77-34.92 16.33-32.69Q18.89-30.47 20.26-27.39Q21.63-24.32 21.63-20.72L21.63-20.72Q21.63-13.90 17.75-9.83Q13.87-5.76 8.19-4.53L8.19-4.53L8.19-4.15Q10.93-3.68 13.58-2.64Q16.24-1.60 18.27 0.30Q20.31 2.19 21.58 4.98Q22.86 7.78 22.86 11.66L22.86 11.66Q22.86 15.92 21.06 19.47Q19.26 23.02 16.05 25.53Q12.83 28.03 8.24 29.45Q3.64 30.87-1.85 30.87Z"/></g></g>
		<g transform="matrix(0.07902015048492585 0.9968730189032802 -0.9968730189032802 0.07902015048492585 435.5345764738504 -28.14300002436684)" style="" id="xf5yeswbb">
		
<g xml:space="preserve" style="stroke: none; stroke-width: 1; stroke-dasharray:none; stroke-linecap: butt; stroke-dashoffset: 0; stroke-linejoin: miter; stroke-miterlimit: 4; fill: rgb(64,64,64); fill-rule: nonzero; opacity: 1; white-space: pre;"><path d="M-21.77 30.87L-21.77 30.87Q-26.60 30.87-29.25 28.27Q-31.90 25.67-31.90 21.98L-31.90 21.98Q-31.90 18.85-30.34 16.96Q-28.78 15.07-25.94 15.07L-25.94 15.07Q-23.38 15.07-21.92 16.63Q-20.45 18.19-20.45 20.65L-20.45 20.65Q-20.45 22.45-21.44 23.77Q-22.44 25.10-23.48 25.48L-23.48 25.48L-23.48 25.86Q-23.19 26.05-22.81 26.05Q-22.44 26.05-21.96 26.05L-21.96 26.05Q-20.83 26.05-19.69 25.62Q-18.55 25.19-17.51 24.15L-17.51 24.15Q-16.09 22.73-15.00 20.04Q-13.92 17.34-13.11 12.08Q-12.31 6.83-11.93-1.55Q-11.55-9.93-11.55-22.71L-11.55-22.71L-11.55-31.79L-18.74-31.79L-18.74-36.34L27.64-36.34L27.64-31.79L20.45-31.79L20.45 25.19L27.64 25.19L27.64 29.74L4.35 29.74L4.35 25.19L11.55 25.19L11.55-31.42L-5.40-31.42L-5.40-23.27Q-5.40-10.31-5.82-1.55Q-6.25 7.21-7.15 12.94Q-8.05 18.66-9.51 22.02Q-10.98 25.38-13.06 27.47L-13.06 27.47Q-14.96 29.36-17.23 30.12Q-19.50 30.87-21.77 30.87Z"/></g></g>
		<g transform="matrix(-0.16242767674805422 0.9867204517117447 -0.9867204517117447 -0.16242767674805422 431.7361425749118 59.255399818691096)" style="" id="hrvfe1o1q">
		
<g xml:space="preserve" style="stroke: none; stroke-width: 1; stroke-dasharray:none; stroke-linecap: butt; stroke-dashoffset: 0; stroke-linejoin: miter; stroke-miterlimit: 4; fill: rgb(64,64,64); fill-rule: nonzero; opacity: 1; white-space: pre;"><path d="M14.53 30.87L14.53 30.87Q8.09 30.87 2.98 28.70Q-2.13 26.52-5.73 22.35Q-9.32 18.19-11.36 12.18Q-13.40 6.17-13.58-1.50L-13.58-1.50L-26.55-1.50L-26.55 25.19L-19.36 25.19L-19.36 29.74L-42.65 29.74L-42.65 25.19L-35.45 25.19L-35.45-31.79L-42.65-31.79L-42.65-36.34L-19.36-36.34L-19.36-31.79L-26.55-31.79L-26.55-6.23L-13.49-6.23Q-13.11-13.62-11.03-19.44Q-8.95-25.26-5.35-29.24Q-1.75-33.21 3.27-35.34Q8.28-37.47 14.53-37.47L14.53-37.47Q21.06-37.47 26.32-35.16Q31.57-32.84 35.17-28.43Q38.77-24.03 40.71-17.69Q42.65-11.35 42.65-3.30L42.65-3.30Q42.65 4.75 40.71 11.09Q38.77 17.43 35.17 21.83Q31.57 26.24 26.32 28.56Q21.06 30.87 14.53 30.87ZM14.53 25.57L14.53 25.57Q19.26 25.57 22.72 23.87Q26.18 22.17 28.40 19.18Q30.62 16.20 31.67 12.04Q32.71 7.87 32.71 2.85L32.71 2.85L32.71-9.45Q32.71-14.38 31.67-18.59Q30.62-22.80 28.40-25.78Q26.18-28.77 22.72-30.47Q19.26-32.17 14.53-32.17L14.53-32.17Q9.80-32.17 6.34-30.47Q2.89-28.77 0.66-25.78Q-1.56-22.80-2.60-18.59Q-3.64-14.38-3.64-9.45L-3.64-9.45L-3.64 2.85Q-3.64 7.87-2.60 12.04Q-1.56 16.20 0.66 19.18Q2.89 22.17 6.34 23.87Q9.80 25.57 14.53 25.57Z"/></g></g>
		<g transform="matrix(-0.35859983927716255 0.9334913793230193 -0.9334913793230193 -0.35859983927716255 409.66106251948844 139.8370870361396)" style="" id="f98tgamwc">
		
<g xml:space="preserve" style="stroke: none; stroke-width: 1; stroke-dasharray:none; stroke-linecap: butt; stroke-dashoffset: 0; stroke-linejoin: miter; stroke-miterlimit: 4; fill: rgb(64,64,64); fill-rule: nonzero; opacity: 1; white-space: pre;"><path d="M-24.76 29.74L-24.76 25.19L-17.56 25.19L-17.56-31.79L-24.76-31.79L-24.76-36.34L20.21-36.34L20.21-20.25L12.92-20.25L12.92-31.42L-8.66-31.42L-8.66-8.03L5.16-8.03Q14.63-8.03 19.74-3.21Q24.85 1.62 24.85 10.81L24.85 10.81Q24.85 20.08 19.74 24.91Q14.63 29.74 5.16 29.74L5.16 29.74L-24.76 29.74ZM-8.66 24.82L4.69 24.82Q9.99 24.82 12.73 21.64Q15.48 18.47 15.48 13.36L15.48 13.36L15.48 8.34Q15.48 3.23 12.73 0.06Q9.99-3.11 4.69-3.11L4.69-3.11L-8.66-3.11L-8.66 24.82Z"/></g></g>
		<g transform="matrix(-0.49287605598226736 0.870099530766087 -0.870099530766087 -0.49287605598226736 380.1577849522618 202.1367848855249)" style="" id="agvx24v5d">
		
<g xml:space="preserve" style="stroke: none; stroke-width: 1; stroke-dasharray:none; stroke-linecap: butt; stroke-dashoffset: 0; stroke-linejoin: miter; stroke-miterlimit: 4; fill: rgb(64,64,64); fill-rule: nonzero; opacity: 1; white-space: pre;"><path d="M-0.00 25.57L-0.00 25.57Q4.92 25.57 8.66 23.82Q12.40 22.07 14.96 18.95Q17.51 15.82 18.79 11.61Q20.07 7.40 20.07 2.38L20.07 2.38L20.07-8.98Q20.07-13.90 18.79-18.16Q17.51-22.42 14.96-25.55Q12.40-28.67 8.66-30.42Q4.92-32.17-0.00-32.17L-0.00-32.17Q-4.92-32.17-8.66-30.42Q-12.40-28.67-14.96-25.55Q-17.51-22.42-18.79-18.16Q-20.07-13.90-20.07-8.98L-20.07-8.98L-20.07 2.38Q-20.07 7.40-18.79 11.61Q-17.51 15.82-14.96 18.95Q-12.40 22.07-8.66 23.82Q-4.92 25.57-0.00 25.57ZM-0.00 30.87L-0.00 30.87Q-6.72 30.87-12.26 28.51Q-17.80 26.14-21.73 21.69Q-25.65 17.24-27.83 10.90Q-30.01 4.56-30.01-3.30L-30.01-3.30Q-30.01-11.16-27.83-17.50Q-25.65-23.84-21.73-28.29Q-17.80-32.74-12.26-35.11Q-6.72-37.47-0.00-37.47L-0.00-37.47Q6.72-37.47 12.26-35.11Q17.80-32.74 21.73-28.29Q25.65-23.84 27.83-17.50Q30.01-11.16 30.01-3.30L30.01-3.30Q30.01 4.56 27.83 10.90Q25.65 17.24 21.73 21.69Q17.80 26.14 12.26 28.51Q6.72 30.87-0.00 30.87Z"/></g></g>
		<g transform="matrix(-0.6108197035623486 0.7917697201459555 -0.7917697201459555 -0.6108197035623486 340.72619108655704 261.41828520957114)" style="" id="x0v9ycbnb">
		
<g xml:space="preserve" style="stroke: none; stroke-width: 1; stroke-dasharray:none; stroke-linecap: butt; stroke-dashoffset: 0; stroke-linejoin: miter; stroke-miterlimit: 4; fill: rgb(64,64,64); fill-rule: nonzero; opacity: 1; white-space: pre;"><path d="M-27.22 29.74L-27.22 25.19L-20.02 25.19L-20.02-31.79L-27.22-31.79L-27.22-36.34L5.25-36.34Q13.77-36.34 18.65-32.03Q23.52-27.72 23.52-20.72L23.52-20.72Q23.52-17.22 22.44-14.42Q21.35-11.63 19.50-9.64Q17.66-7.65 15.34-6.47Q13.02-5.29 10.65-4.91L10.65-4.91L10.65-4.53Q13.11-4.34 15.86-3.35Q18.60-2.35 20.87-0.37Q23.15 1.62 24.61 4.51Q26.08 7.40 26.08 11.37L26.08 11.37Q26.08 15.54 24.76 18.95Q23.43 22.35 21.02 24.77Q18.60 27.18 15.34 28.46Q12.07 29.74 8.28 29.74L8.28 29.74L-27.22 29.74ZM-11.12-1.88L-11.12 24.82L4.97 24.82Q10.46 24.82 13.58 21.69Q16.71 18.57 16.71 13.55L16.71 13.55L16.71 9.39Q16.71 4.37 13.58 1.24Q10.46-1.88 4.97-1.88L4.97-1.88L-11.12-1.88ZM-11.12-31.42L-11.12-6.80L3.46-6.80Q8.47-6.80 11.31-9.69Q14.15-12.58 14.15-17.12L14.15-17.12L14.15-21.10Q14.15-25.64 11.31-28.53Q8.47-31.42 3.46-31.42L3.46-31.42L-11.12-31.42Z"/></g></g>
		<g transform="matrix(-0.6790246993431812 0.7341154253126019 -0.7341154253126019 -0.6790246993431812 310.7108695982043 296.9195696249014)" style="" id="ezvjmpgmi">
		
<g xml:space="preserve" style="stroke: none; stroke-width: 1; stroke-dasharray:none; stroke-linecap: butt; stroke-dashoffset: 0; stroke-linejoin: miter; stroke-miterlimit: 4; fill: rgb(64,64,64); fill-rule: nonzero; opacity: 1; white-space: pre;"><path d="M-1.56-13.81L-3.74-31.79L-3.74-40.31L3.74-40.31L3.74-31.79L1.56-13.81L-1.56-13.81Z"/></g></g>
		<g transform="matrix(-0.7625992675820485 0.6468712059469977 -0.6468712059469977 -0.7625992675820485 265.3631955660903 340.37603934114026)" style="" id="it4yypk1j">
		
<g xml:space="preserve" style="stroke: none; stroke-width: 1; stroke-dasharray:none; stroke-linecap: butt; stroke-dashoffset: 0; stroke-linejoin: miter; stroke-miterlimit: 4; fill: rgb(64,64,64); fill-rule: nonzero; opacity: 1; white-space: pre;"><path d="M14.53 30.87L14.53 30.87Q8.09 30.87 2.98 28.70Q-2.13 26.52-5.73 22.35Q-9.32 18.19-11.36 12.18Q-13.40 6.17-13.58-1.50L-13.58-1.50L-26.55-1.50L-26.55 25.19L-19.36 25.19L-19.36 29.74L-42.65 29.74L-42.65 25.19L-35.45 25.19L-35.45-31.79L-42.65-31.79L-42.65-36.34L-19.36-36.34L-19.36-31.79L-26.55-31.79L-26.55-6.23L-13.49-6.23Q-13.11-13.62-11.03-19.44Q-8.95-25.26-5.35-29.24Q-1.75-33.21 3.27-35.34Q8.28-37.47 14.53-37.47L14.53-37.47Q21.06-37.47 26.32-35.16Q31.57-32.84 35.17-28.43Q38.77-24.03 40.71-17.69Q42.65-11.35 42.65-3.30L42.65-3.30Q42.65 4.75 40.71 11.09Q38.77 17.43 35.17 21.83Q31.57 26.24 26.32 28.56Q21.06 30.87 14.53 30.87ZM14.53 25.57L14.53 25.57Q19.26 25.57 22.72 23.87Q26.18 22.17 28.40 19.18Q30.62 16.20 31.67 12.04Q32.71 7.87 32.71 2.85L32.71 2.85L32.71-9.45Q32.71-14.38 31.67-18.59Q30.62-22.80 28.40-25.78Q26.18-28.77 22.72-30.47Q19.26-32.17 14.53-32.17L14.53-32.17Q9.80-32.17 6.34-30.47Q2.89-28.77 0.66-25.78Q-1.56-22.80-2.60-18.59Q-3.64-14.38-3.64-9.45L-3.64-9.45L-3.64 2.85Q-3.64 7.87-2.60 12.04Q-1.56 16.20 0.66 19.18Q2.89 22.17 6.34 23.87Q9.80 25.57 14.53 25.57Z"/></g></g>
		<g transform="matrix(-0.8635108831748716 0.5043302039721131 -0.5043302039721131 -0.8635108831748716 195.06554813389485 390.2811963301026)" style="" id="zdyymwsnu">
		
<g xml:space="preserve" style="stroke: none; stroke-width: 1; stroke-dasharray:none; stroke-linecap: butt; stroke-dashoffset: 0; stroke-linejoin: miter; stroke-miterlimit: 4; fill: rgb(64,64,64); fill-rule: nonzero; opacity: 1; white-space: pre;"><path d="M-32.94 44.89L-32.94 24.82L-25.56 24.82Q-22.63 20.65-20.12 15.35Q-17.61 10.05-15.86 3.52Q-14.11-3.02-13.11-10.78Q-12.12-18.54-12.12-27.72L-12.12-27.72L-12.12-31.79L-19.31-31.79L-19.31-36.34L26.89-36.34L26.89-31.79L19.69-31.79L19.69 24.82L29.63 24.82L29.63 44.89L21.58 44.89L21.58 29.74L-24.90 29.74L-24.90 44.89L-32.94 44.89ZM-18.55 24.82L10.79 24.82L10.79-31.42L-5.96-31.42L-5.96-27.72Q-5.96-11.16-9.18 2.47Q-12.40 16.11-18.55 24.82L-18.55 24.82Z"/></g></g>
		<g transform="matrix(-0.9327372986737147 0.360556696877012 -0.360556696877012 -0.9327372986737147 131.31981986710952 421.0975054984504)" style="" id="5mz13s5hb">
		
<g xml:space="preserve" style="stroke: none; stroke-width: 1; stroke-dasharray:none; stroke-linecap: butt; stroke-dashoffset: 0; stroke-linejoin: miter; stroke-miterlimit: 4; fill: rgb(64,64,64); fill-rule: nonzero; opacity: 1; white-space: pre;"><path d="M-21.77 30.87L-21.77 30.87Q-26.60 30.87-29.25 28.27Q-31.90 25.67-31.90 21.98L-31.90 21.98Q-31.90 18.85-30.34 16.96Q-28.78 15.07-25.94 15.07L-25.94 15.07Q-23.38 15.07-21.92 16.63Q-20.45 18.19-20.45 20.65L-20.45 20.65Q-20.45 22.45-21.44 23.77Q-22.44 25.10-23.48 25.48L-23.48 25.48L-23.48 25.86Q-23.19 26.05-22.81 26.05Q-22.44 26.05-21.96 26.05L-21.96 26.05Q-20.83 26.05-19.69 25.62Q-18.55 25.19-17.51 24.15L-17.51 24.15Q-16.09 22.73-15.00 20.04Q-13.92 17.34-13.11 12.08Q-12.31 6.83-11.93-1.55Q-11.55-9.93-11.55-22.71L-11.55-22.71L-11.55-31.79L-18.74-31.79L-18.74-36.34L27.64-36.34L27.64-31.79L20.45-31.79L20.45 25.19L27.64 25.19L27.64 29.74L4.35 29.74L4.35 25.19L11.55 25.19L11.55-31.42L-5.40-31.42L-5.40-23.27Q-5.40-10.31-5.82-1.55Q-6.25 7.21-7.15 12.94Q-8.05 18.66-9.51 22.02Q-10.98 25.38-13.06 27.47L-13.06 27.47Q-14.96 29.36-17.23 30.12Q-19.50 30.87-21.77 30.87Z"/></g></g>
		<g transform="matrix(-0.9823067588496908 0.1872790204967324 -0.1872790204967324 -0.9823067588496908 63.68554666734305 440.5928549917374)" style="" id="580kow9h2">
		
<g xml:space="preserve" style="stroke: none; stroke-width: 1; stroke-dasharray:none; stroke-linecap: butt; stroke-dashoffset: 0; stroke-linejoin: miter; stroke-miterlimit: 4; fill: rgb(64,64,64); fill-rule: nonzero; opacity: 1; white-space: pre;"><path d="M-31.10 29.74L-31.10 25.19L-24.38 25.19L-11.22 4.46Q-9.61 1.91-8.09 0.63Q-6.58-0.65-4.88-1.12L-4.88-1.12L-4.88-1.50Q-15.00-2.07-19.26-6.28Q-23.52-10.49-23.52-18.16L-23.52-18.16Q-23.52-26.59-18.46-31.46Q-13.40-36.34-4.21-36.34L-4.21-36.34L27.22-36.34L27.22-31.79L20.02-31.79L20.02 25.19L27.22 25.19L27.22 29.74L3.93 29.74L3.93 25.19L11.12 25.19L11.12-0.55L2.32-0.55L-16.90 29.74L-31.10 29.74ZM11.12-5.48L11.12-31.42L-3.64-31.42Q-8.66-31.42-11.41-28.34Q-14.15-25.26-14.15-20.72L-14.15-20.72L-14.15-16.17Q-14.15-11.63-11.41-8.55Q-8.66-5.48-3.64-5.48L-3.64-5.48L11.12-5.48Z"/></g></g>
		<g transform="matrix(-0.9993468997869795 -0.03613549344000474 0.03613549344000474 -0.9993468997869795 -12.974164731613714 446.5957670861133)" style="" id="xr9iaj4p9">
		
<g xml:space="preserve" style="stroke: none; stroke-width: 1; stroke-dasharray:none; stroke-linecap: butt; stroke-dashoffset: 0; stroke-linejoin: miter; stroke-miterlimit: 4; fill: rgb(64,64,64); fill-rule: nonzero; opacity: 1; white-space: pre;"><path d="M-32.94 29.74L-32.94 25.19L-25.75 25.19L-25.75-31.79L-32.94-31.79L-32.94-36.34L-9.66-36.34L-9.66-31.79L-16.85-31.79L-16.85-6.33L16.85-6.33L16.85-31.79L9.66-31.79L9.66-36.34L32.94-36.34L32.94-31.79L25.75-31.79L25.75 25.19L32.94 25.19L32.94 29.74L9.66 29.74L9.66 25.19L16.85 25.19L16.85-1.41L-16.85-1.41L-16.85 25.19L-9.66 25.19L-9.66 29.74L-32.94 29.74Z"/></g></g>
		<g transform="matrix(-0.9679492131971662 -0.25114601464285063 0.25114601464285063 -0.9679492131971662 -89.59816861635653 435.2166520126772)" style="" id="eig9tcfno">
		
<g xml:space="preserve" style="stroke: none; stroke-width: 1; stroke-dasharray:none; stroke-linecap: butt; stroke-dashoffset: 0; stroke-linejoin: miter; stroke-miterlimit: 4; fill: rgb(64,64,64); fill-rule: nonzero; opacity: 1; white-space: pre;"><path d="M-31.67 29.74L-31.67 25.19L-26.65 25.19L-4.88-36.34L4.88-36.34L26.65 25.19L31.67 25.19L31.67 29.74L8.57 29.74L8.57 25.19L17.09 25.19L11.12 8.25L-14.82 8.25L-20.59 25.19L-12.07 25.19L-12.07 29.74L-31.67 29.74ZM-2.04-29.05L-13.40 3.52L9.70 3.52L-1.37-29.05L-2.04-29.05Z"/></g></g>
		<g transform="matrix(-0.8928929071975165 -0.45026909318358416 0.45026909318358416 -0.8928929071975165 -171.8725465046462 403.9426515978441)" style="" id="imfjggmg2">
		
<g xml:space="preserve" style="stroke: none; stroke-width: 1; stroke-dasharray:none; stroke-linecap: butt; stroke-dashoffset: 0; stroke-linejoin: miter; stroke-miterlimit: 4; fill: rgb(64,64,64); fill-rule: nonzero; opacity: 1; white-space: pre;"><path d="M-43.64 29.74L-43.64 25.19L-36.45 25.19L-36.45-31.79L-43.64-31.79L-43.64-36.34L-20.35-36.34L-20.35-31.79L-27.55-31.79L-27.55 24.82L-4.45 24.82L-4.45-31.79L-11.64-31.79L-11.64-36.34L11.64-36.34L11.64-31.79L4.45-31.79L4.45 24.82L27.55 24.82L27.55-31.79L20.35-31.79L20.35-36.34L43.64-36.34L43.64-31.79L36.45-31.79L36.45 25.19L43.64 25.19L43.64 29.74L-43.64 29.74Z"/></g></g>
		<g transform="matrix(-0.7887572336303957 -0.6147048286744828 0.6147048286744828 -0.7887572336303957 -249.91222006817313 354.31833767609396)" style="" id="blkxc1yyt">
		
<g xml:space="preserve" style="stroke: none; stroke-width: 1; stroke-dasharray:none; stroke-linecap: butt; stroke-dashoffset: 0; stroke-linejoin: miter; stroke-miterlimit: 4; fill: rgb(64,64,64); fill-rule: nonzero; opacity: 1; white-space: pre;"><path d="M-32.94 29.74L-32.94 25.19L-25.75 25.19L-25.75-31.79L-32.94-31.79L-32.94-36.34L-9.94-36.34L-9.94-31.79L-17.13-31.79L-17.13-2.73L-18.18 15.16L-17.80 15.16L17.13-29.52L17.13-31.79L9.94-31.79L9.94-36.34L32.94-36.34L32.94-31.79L25.75-31.79L25.75 25.19L32.94 25.19L32.94 29.74L9.94 29.74L9.94 25.19L17.13 25.19L17.13-3.87L18.18-21.76L17.80-21.76L-17.13 22.92L-17.13 25.19L-9.94 25.19L-9.94 29.74L-32.94 29.74Z"/></g></g>
		<g transform="matrix(-0.6907115078224231 -0.7231304259687008 0.7231304259687008 -0.6907115078224231 -305.2866012955342 304.2037173304667)" style="" id="zosn96ske">
		
<g xml:space="preserve" style="stroke: none; stroke-width: 1; stroke-dasharray:none; stroke-linecap: butt; stroke-dashoffset: 0; stroke-linejoin: miter; stroke-miterlimit: 4; fill: rgb(64,64,64); fill-rule: nonzero; opacity: 1; white-space: pre;"><path d="M-30.67 29.74L-30.67 25.19L-24.90 25.19L-4.64-2.35L-24.52-31.79L-30.29-31.79L-30.29-36.34L-6.91-36.34L-6.91-31.79L-13.82-31.79L1.23-8.89L1.61-8.89L17.42-31.79L11.27-31.79L11.27-36.34L30.10-36.34L30.10-31.79L24.33-31.79L4.45-4.72L24.71 25.19L30.48 25.19L30.48 29.74L7.10 29.74L7.10 25.19L14.01 25.19L-1.33 1.91L-1.70 1.91L-17.80 25.19L-11.64 25.19L-11.64 29.74L-30.67 29.74Z"/></g></g>
		<g transform="matrix(-0.5866877727357042 -0.8098132237265694 0.8098132237265694 -0.5866877727357042 -349.8873981615068 250.70352967211755)" style="" id="v93rv0cjm">
		
<g xml:space="preserve" style="stroke: none; stroke-width: 1; stroke-dasharray:none; stroke-linecap: butt; stroke-dashoffset: 0; stroke-linejoin: miter; stroke-miterlimit: 4; fill: rgb(64,64,64); fill-rule: nonzero; opacity: 1; white-space: pre;"><path d="M-32.94 44.89L-32.94 24.82L-25.56 24.82Q-22.63 20.65-20.12 15.35Q-17.61 10.05-15.86 3.52Q-14.11-3.02-13.11-10.78Q-12.12-18.54-12.12-27.72L-12.12-27.72L-12.12-31.79L-19.31-31.79L-19.31-36.34L26.89-36.34L26.89-31.79L19.69-31.79L19.69 24.82L29.63 24.82L29.63 44.89L21.58 44.89L21.58 29.74L-24.90 29.74L-24.90 44.89L-32.94 44.89ZM-18.55 24.82L10.79 24.82L10.79-31.42L-5.96-31.42L-5.96-27.72Q-5.96-11.16-9.18 2.47Q-12.40 16.11-18.55 24.82L-18.55 24.82Z"/></g></g>
		<g transform="matrix(-0.46183888061631545 -0.8869638371157353 0.8869638371157353 -0.46183888061631545 -387.96298025226866 189.19904618904712)" style="" id="xb2ywnt94">
		
<g xml:space="preserve" style="stroke: none; stroke-width: 1; stroke-dasharray:none; stroke-linecap: butt; stroke-dashoffset: 0; stroke-linejoin: miter; stroke-miterlimit: 4; fill: rgb(64,64,64); fill-rule: nonzero; opacity: 1; white-space: pre;"><path d="M-0.00 25.57L-0.00 25.57Q4.92 25.57 8.66 23.82Q12.40 22.07 14.96 18.95Q17.51 15.82 18.79 11.61Q20.07 7.40 20.07 2.38L20.07 2.38L20.07-8.98Q20.07-13.90 18.79-18.16Q17.51-22.42 14.96-25.55Q12.40-28.67 8.66-30.42Q4.92-32.17-0.00-32.17L-0.00-32.17Q-4.92-32.17-8.66-30.42Q-12.40-28.67-14.96-25.55Q-17.51-22.42-18.79-18.16Q-20.07-13.90-20.07-8.98L-20.07-8.98L-20.07 2.38Q-20.07 7.40-18.79 11.61Q-17.51 15.82-14.96 18.95Q-12.40 22.07-8.66 23.82Q-4.92 25.57-0.00 25.57ZM-0.00 30.87L-0.00 30.87Q-6.72 30.87-12.26 28.51Q-17.80 26.14-21.73 21.69Q-25.65 17.24-27.83 10.90Q-30.01 4.56-30.01-3.30L-30.01-3.30Q-30.01-11.16-27.83-17.50Q-25.65-23.84-21.73-28.29Q-17.80-32.74-12.26-35.11Q-6.72-37.47-0.00-37.47L-0.00-37.47Q6.72-37.47 12.26-35.11Q17.80-32.74 21.73-28.29Q25.65-23.84 27.83-17.50Q30.01-11.16 30.01-3.30L30.01-3.30Q30.01 4.56 27.83 10.90Q25.65 17.24 21.73 21.69Q17.80 26.14 12.26 28.51Q6.72 30.87-0.00 30.87Z"/></g></g>
		<g transform="matrix(-0.32132453863726884 -0.9469691340638017 0.9469691340638017 -0.32132453863726884 -415.2719260199522 125.46649131950846)" style="" id="a3zlpo90q">
		
<g xml:space="preserve" style="stroke: none; stroke-width: 1; stroke-dasharray:none; stroke-linecap: butt; stroke-dashoffset: 0; stroke-linejoin: miter; stroke-miterlimit: 4; fill: rgb(64,64,64); fill-rule: nonzero; opacity: 1; white-space: pre;"><path d="M-25.04 29.74L-25.04 25.19L-17.84 25.19L-17.84-31.79L-25.04-31.79L-25.04-36.34L6.58-36.34Q15.86-36.34 20.78-31.84Q25.70-27.35 25.70-18.64L25.70-18.64Q25.70-9.93 20.64-5.19Q15.57-0.46 6.39-0.46L6.39-0.46L-8.95-0.46L-8.95 25.19L0.14 25.19L0.14 29.74L-25.04 29.74ZM-8.95-31.42L-8.95-5.38L5.92-5.38Q10.93-5.38 13.63-8.46Q16.33-11.54 16.33-16.08L16.33-16.08L16.33-20.72Q16.33-25.26 13.63-28.34Q10.93-31.42 5.92-31.42L5.92-31.42L-8.95-31.42Z"/></g></g>
		<g transform="matrix(-0.1553841109863898 -0.9878541279222197 0.9878541279222197 -0.1553841109863898 -432.08686077623776 57.67683345483106)" style="" id="53599m18i">
		
<g xml:space="preserve" style="stroke: none; stroke-width: 1; stroke-dasharray:none; stroke-linecap: butt; stroke-dashoffset: 0; stroke-linejoin: miter; stroke-miterlimit: 4; fill: rgb(64,64,64); fill-rule: nonzero; opacity: 1; white-space: pre;"><path d="M-0.00 25.57L-0.00 25.57Q4.92 25.57 8.66 23.82Q12.40 22.07 14.96 18.95Q17.51 15.82 18.79 11.61Q20.07 7.40 20.07 2.38L20.07 2.38L20.07-8.98Q20.07-13.90 18.79-18.16Q17.51-22.42 14.96-25.55Q12.40-28.67 8.66-30.42Q4.92-32.17-0.00-32.17L-0.00-32.17Q-4.92-32.17-8.66-30.42Q-12.40-28.67-14.96-25.55Q-17.51-22.42-18.79-18.16Q-20.07-13.90-20.07-8.98L-20.07-8.98L-20.07 2.38Q-20.07 7.40-18.79 11.61Q-17.51 15.82-14.96 18.95Q-12.40 22.07-8.66 23.82Q-4.92 25.57-0.00 25.57ZM-0.00 30.87L-0.00 30.87Q-6.72 30.87-12.26 28.51Q-17.80 26.14-21.73 21.69Q-25.65 17.24-27.83 10.90Q-30.01 4.56-30.01-3.30L-30.01-3.30Q-30.01-11.16-27.83-17.50Q-25.65-23.84-21.73-28.29Q-17.80-32.74-12.26-35.11Q-6.72-37.47-0.00-37.47L-0.00-37.47Q6.72-37.47 12.26-35.11Q17.80-32.74 21.73-28.29Q25.65-23.84 27.83-17.50Q30.01-11.16 30.01-3.30L30.01-3.30Q30.01 4.56 27.83 10.90Q25.65 17.24 21.73 21.69Q17.80 26.14 12.26 28.51Q6.72 30.87-0.00 30.87Z"/></g></g>
		<g transform="matrix(0.02557693626601333 -0.9996728566542378 0.9996728566542378 0.02557693626601333 -436.5381196802398 -9.190666254166539)" style="" id="nefl3xxj1">
		
<g xml:space="preserve" style="stroke: none; stroke-width: 1; stroke-dasharray:none; stroke-linecap: butt; stroke-dashoffset: 0; stroke-linejoin: miter; stroke-miterlimit: 4; fill: rgb(64,64,64); fill-rule: nonzero; opacity: 1; white-space: pre;"><path d="M-21.92 29.74L-21.92 25.19L-14.72 25.19L-14.72-31.79L-21.92-31.79L-21.92-36.34L23.81-36.34L23.81-20.25L16.52-20.25L16.52-31.42L-5.82-31.42L-5.82 25.19L3.27 25.19L3.27 29.74L-21.92 29.74Z"/></g></g>
		<g transform="matrix(0.2101157546456225 -0.977676515852611 0.977676515852611 0.2101157546456225 -428.0762153425038 -79.22573227445558)" style="" id="bgqjasc0d">
		
<g xml:space="preserve" style="stroke: none; stroke-width: 1; stroke-dasharray:none; stroke-linecap: butt; stroke-dashoffset: 0; stroke-linejoin: miter; stroke-miterlimit: 4; fill: rgb(64,64,64); fill-rule: nonzero; opacity: 1; white-space: pre;"><path d="M-32.94 29.74L-32.94 25.19L-25.75 25.19L-25.75-31.79L-32.94-31.79L-32.94-36.34L-9.94-36.34L-9.94-31.79L-17.13-31.79L-17.13-2.73L-18.18 15.16L-17.80 15.16L17.13-29.52L17.13-31.79L9.94-31.79L9.94-36.34L32.94-36.34L32.94-31.79L25.75-31.79L25.75 25.19L32.94 25.19L32.94 29.74L9.94 29.74L9.94 25.19L17.13 25.19L17.13-3.87L18.18-21.76L17.80-21.76L-17.13 22.92L-17.13 25.19L-9.94 25.19L-9.94 29.74L-32.94 29.74Z"/></g></g>
		<g transform="matrix(0.38007232450476947 -0.9249567709604277 0.9249567709604277 0.38007232450476947 -405.5615011191717 -151.3652931956129)" style="" id="cp2eetgkk">
		
<g xml:space="preserve" style="stroke: none; stroke-width: 1; stroke-dasharray:none; stroke-linecap: butt; stroke-dashoffset: 0; stroke-linejoin: miter; stroke-miterlimit: 4; fill: rgb(64,64,64); fill-rule: nonzero; opacity: 1; white-space: pre;"><path d="M-30.67 29.74L-30.67 25.19L-24.90 25.19L-4.64-2.35L-24.52-31.79L-30.29-31.79L-30.29-36.34L-6.91-36.34L-6.91-31.79L-13.82-31.79L1.23-8.89L1.61-8.89L17.42-31.79L11.27-31.79L11.27-36.34L30.10-36.34L30.10-31.79L24.33-31.79L4.45-4.72L24.71 25.19L30.48 25.19L30.48 29.74L7.10 29.74L7.10 25.19L14.01 25.19L-1.33 1.91L-1.70 1.91L-17.80 25.19L-11.64 25.19L-11.64 29.74L-30.67 29.74Z"/></g></g>
		<g transform="matrix(0.5129980404901414 -0.8583897776961671 0.8583897776961671 0.5129980404901414 -374.1605588095006 -213.9022787015773)" style="" id="wawrew659">
		
<g xml:space="preserve" style="stroke: none; stroke-width: 1; stroke-dasharray:none; stroke-linecap: butt; stroke-dashoffset: 0; stroke-linejoin: miter; stroke-miterlimit: 4; fill: rgb(64,64,64); fill-rule: nonzero; opacity: 1; white-space: pre;"><path d="M-28.16 29.74L-28.16 25.19L-20.97 25.19L-20.97-31.79L-28.16-31.79L-28.16-36.34L-4.88-36.34L-4.88-31.79L-12.07-31.79L-12.07-6.14L-2.79-6.14L6.39-24.22Q8.38-28.10 10.13-30.66Q11.88-33.21 13.68-34.73Q15.48-36.24 17.28-36.86Q19.08-37.47 21.25-37.47L21.25-37.47Q24.85-37.47 26.79-35.49Q28.73-33.50 28.73-30.47L28.73-30.47Q28.73-27.82 27.26-25.93Q25.80-24.03 22.77-24.03L22.77-24.03Q20.02-24.03 18.46-25.78Q16.90-27.53 16.90-30.09L16.90-30.09L16.61-30.09Q15.48-28.48 14.06-26.11Q12.64-23.75 11.60-21.76L11.60-21.76L2.79-4.44Q4.59-4.15 6.01-3.21Q7.43-2.26 9.04 0.20L9.04 0.20L25.51 25.19L32.23 25.19L32.23 29.74L17.75 29.74L-2.79-1.41L-12.07-1.41L-12.07 25.19L-4.88 25.19L-4.88 29.74L-28.16 29.74Z"/></g></g>
		<g transform="matrix(0.6273301206481187 -0.7787534396249026 0.7787534396249026 0.6273301206481187 -334.01200694684564 -271.474503744549)" style="" id="ts86rofnj">
		
<g xml:space="preserve" style="stroke: none; stroke-width: 1; stroke-dasharray:none; stroke-linecap: butt; stroke-dashoffset: 0; stroke-linejoin: miter; stroke-miterlimit: 4; fill: rgb(64,64,64); fill-rule: nonzero; opacity: 1; white-space: pre;"><path d="M-21.77 30.87L-21.77 30.87Q-26.60 30.87-29.25 28.27Q-31.90 25.67-31.90 21.98L-31.90 21.98Q-31.90 18.85-30.34 16.96Q-28.78 15.07-25.94 15.07L-25.94 15.07Q-23.38 15.07-21.92 16.63Q-20.45 18.19-20.45 20.65L-20.45 20.65Q-20.45 22.45-21.44 23.77Q-22.44 25.10-23.48 25.48L-23.48 25.48L-23.48 25.86Q-23.19 26.05-22.81 26.05Q-22.44 26.05-21.96 26.05L-21.96 26.05Q-20.83 26.05-19.69 25.62Q-18.55 25.19-17.51 24.15L-17.51 24.15Q-16.09 22.73-15.00 20.04Q-13.92 17.34-13.11 12.08Q-12.31 6.83-11.93-1.55Q-11.55-9.93-11.55-22.71L-11.55-22.71L-11.55-31.79L-18.74-31.79L-18.74-36.34L27.64-36.34L27.64-31.79L20.45-31.79L20.45 25.19L27.64 25.19L27.64 29.74L4.35 29.74L4.35 25.19L11.55 25.19L11.55-31.42L-5.40-31.42L-5.40-23.27Q-5.40-10.31-5.82-1.55Q-6.25 7.21-7.15 12.94Q-8.05 18.66-9.51 22.02Q-10.98 25.38-13.06 27.47L-13.06 27.47Q-14.96 29.36-17.23 30.12Q-19.50 30.87-21.77 30.87Z"/></g></g>
		<g transform="matrix(0.7033102264538293 -0.7108830602605912 0.7108830602605912 0.7033102264538293 -298.9555971428486 -310.71636261771823)" style="" id="2oky9lr8x">
		
<g xml:space="preserve" style="stroke: none; stroke-width: 1; stroke-dasharray:none; stroke-linecap: butt; stroke-dashoffset: 0; stroke-linejoin: miter; stroke-miterlimit: 4; fill: rgb(64,64,64); fill-rule: nonzero; opacity: 1; white-space: pre;"><path d="M-11.64 29.74L-11.64 25.19L-4.45 25.19L-4.45-31.79L-11.64-31.79L-11.64-36.34L11.64-36.34L11.64-31.79L4.45-31.79L4.45 25.19L11.64 25.19L11.64 29.74L-11.64 29.74Z"/></g></g>
		<g transform="matrix(0.7705768087772052 -0.6373471438507734 0.6373471438507734 0.7705768087772052 -261.2992303640472 -345.17474387588544)" style="" id="g0p73vde0">
		
<g xml:space="preserve" style="stroke: none; stroke-width: 1; stroke-dasharray:none; stroke-linecap: butt; stroke-dashoffset: 0; stroke-linejoin: miter; stroke-miterlimit: 4; fill: rgb(64,64,64); fill-rule: nonzero; opacity: 1; white-space: pre;"><path d="M3.03 30.87L3.03 30.87Q-3.88 30.87-9.37 28.46Q-14.86 26.05-18.70 21.60Q-22.53 17.15-24.57 10.85Q-26.60 4.56-26.60-3.30L-26.60-3.30Q-26.60-11.44-24.57-17.83Q-22.53-24.22-18.84-28.58Q-15.15-32.93-10.03-35.20Q-4.92-37.47 1.23-37.47L1.23-37.47Q7.01-37.47 10.93-35.58Q14.86-33.69 17.04-30.56L17.04-30.56L17.42-30.56L17.42-36.34L24.71-36.34L24.71-16.08L17.42-16.08L17.42-21.85Q17.42-24.13 16.33-26.11Q15.24-28.10 13.25-29.57Q11.27-31.04 8.47-31.84Q5.68-32.65 2.27-32.65L2.27-32.65Q-2.65-32.65-6.20-30.94Q-9.75-29.24-12.07-26.21Q-14.39-23.18-15.53-19.06Q-16.66-14.94-16.66-10.12L-16.66-10.12L-16.66-6.33L10.89-6.33L10.89-1.41L-16.66-1.41L-16.66 2.38Q-16.66 7.40-15.29 11.70Q-13.92 16.01-11.31 19.18Q-8.71 22.35-4.78 24.20Q-0.85 26.05 4.26 26.05L4.26 26.05Q9.28 26.05 12.50 25.34Q15.71 24.63 17.51 23.59L17.51 23.59L17.51 23.40Q16.28 22.92 15.15 21.36Q14.01 19.80 14.01 17.72L14.01 17.72Q14.01 14.97 15.62 13.27Q17.23 11.56 19.97 11.56L19.97 11.56Q22.72 11.56 24.38 13.36Q26.03 15.16 26.03 18.19L26.03 18.19Q26.03 20.46 24.57 22.73Q23.10 25.01 20.21 26.80Q17.32 28.60 13.02 29.74Q8.71 30.87 3.03 30.87Z"/></g></g>
		<g transform="matrix(0.8577229709643156 -0.514112152239322 0.514112152239322 0.8577229709643156 -201.10213387178268 -387.8293028291357)" style="" id="g0e7jf8fu">
		
<g xml:space="preserve" style="stroke: none; stroke-width: 1; stroke-dasharray:none; stroke-linecap: butt; stroke-dashoffset: 0; stroke-linejoin: miter; stroke-miterlimit: 4; fill: rgb(64,64,64); fill-rule: nonzero; opacity: 1; white-space: pre;"><path d="M-32.94 29.74L-32.94 25.19L-25.75 25.19L-25.75-31.79L-32.94-31.79L-32.94-36.34L-9.66-36.34L-9.66-31.79L-16.85-31.79L-16.85-6.33L16.85-6.33L16.85-31.79L9.66-31.79L9.66-36.34L32.94-36.34L32.94-31.79L25.75-31.79L25.75 25.19L32.94 25.19L32.94 29.74L9.66 29.74L9.66 25.19L16.85 25.19L16.85-1.41L-16.85-1.41L-16.85 25.19L-9.66 25.19L-9.66 29.74L-32.94 29.74Z"/></g></g>
		<g transform="matrix(0.9317896061824157 -0.3629988013897825 0.3629988013897825 0.9317896061824157 -134.21912522599456 -420.7499774712272)" style="" id="uoqom44pu">
		
<g xml:space="preserve" style="stroke: none; stroke-width: 1; stroke-dasharray:none; stroke-linecap: butt; stroke-dashoffset: 0; stroke-linejoin: miter; stroke-miterlimit: 4; fill: rgb(64,64,64); fill-rule: nonzero; opacity: 1; white-space: pre;"><path d="M-13.54 29.74L-13.54 25.19L-4.45 25.19L-4.45-31.42L-21.02-31.42L-21.02-20.25L-28.31-20.25L-28.31-36.34L28.31-36.34L28.31-20.25L21.02-20.25L21.02-31.42L4.45-31.42L4.45 25.19L13.54 25.19L13.54 29.74L-13.54 29.74Z"/></g></g>
		<g transform="matrix(0.9713770616727058 -0.23754284677948168 0.23754284677948168 0.9713770616727058 -84.42405405110543 -436.5205226212974)" style="" id="lmlvy8dr0">
		
<g xml:space="preserve" style="stroke: none; stroke-width: 1; stroke-dasharray:none; stroke-linecap: butt; stroke-dashoffset: 0; stroke-linejoin: miter; stroke-miterlimit: 4; fill: rgb(64,64,64); fill-rule: nonzero; opacity: 1; white-space: pre;"><path d="M-11.64 29.74L-11.64 25.19L-4.45 25.19L-4.45-31.79L-11.64-31.79L-11.64-36.34L11.64-36.34L11.64-31.79L4.45-31.79L4.45 25.19L11.64 25.19L11.64 29.74L-11.64 29.74Z"/></g></g>
		<g transform="matrix(0.9958363442985376 -0.09115906632981907 0.09115906632981907 0.9958363442985376 -31.652267042854767 -445.40160460593927)" style="" id="zqd99q0pn">
		
<g xml:space="preserve" style="stroke: none; stroke-width: 1; stroke-dasharray:none; stroke-linecap: butt; stroke-dashoffset: 0; stroke-linejoin: miter; stroke-miterlimit: 4; fill: rgb(64,64,64); fill-rule: nonzero; opacity: 1; white-space: pre;"><path d="M-27.22 29.74L-27.22 25.19L-20.02 25.19L-20.02-31.79L-27.22-31.79L-27.22-36.34L5.25-36.34Q13.77-36.34 18.65-32.03Q23.52-27.72 23.52-20.72L23.52-20.72Q23.52-17.22 22.44-14.42Q21.35-11.63 19.50-9.64Q17.66-7.65 15.34-6.47Q13.02-5.29 10.65-4.91L10.65-4.91L10.65-4.53Q13.11-4.34 15.86-3.35Q18.60-2.35 20.87-0.37Q23.15 1.62 24.61 4.51Q26.08 7.40 26.08 11.37L26.08 11.37Q26.08 15.54 24.76 18.95Q23.43 22.35 21.02 24.77Q18.60 27.18 15.34 28.46Q12.07 29.74 8.28 29.74L8.28 29.74L-27.22 29.74ZM-11.12-1.88L-11.12 24.82L4.97 24.82Q10.46 24.82 13.58 21.69Q16.71 18.57 16.71 13.55L16.71 13.55L16.71 9.39Q16.71 4.37 13.58 1.24Q10.46-1.88 4.97-1.88L4.97-1.88L-11.12-1.88ZM-11.12-31.42L-11.12-6.80L3.46-6.80Q8.47-6.80 11.31-9.69Q14.15-12.58 14.15-17.12L14.15-17.12L14.15-21.10Q14.15-25.64 11.31-28.53Q8.47-31.42 3.46-31.42L3.46-31.42L-11.12-31.42Z"/></g></g>
</g>
</g>
</svg>