<svg xmlns="http://www.w3.org/2000/svg" xmlns:xlink="http://www.w3.org/1999/xlink" version="1.1" width="1000" height="1000" viewBox="0 0 1000 1000" xml:space="preserve">
<desc>Created with Fabric.js 3.6.3</desc>
<defs>
</defs>
<g transform="matrix(1 0 0 1 500 500)" id="uid6tfdw8pyt">
<g style="">
		<g transform="matrix(1 0 0 1 0 0)" id="uidry161l80t">
<path style="stroke: rgb(191,7,185); stroke-width: 0; stroke-dasharray:none; stroke-linecap: butt; stroke-dashoffset: 0; stroke-linejoin: miter; stroke-miterlimit: 4; fill: rgb(255,255,255); fill-opacity: 0; fill-rule: nonzero; opacity: 1;" transform=" translate(-500, -500.00000000000006)" d="M 500 204.20654 c 147.89673 0.47176 295.79346 148.13261 295.79346 295.79346 c 0 147.66085 -147.89673 295.3217 -295.79346 295.79346 c -147.89673 0.47176 -295.79346 -146.24557 -295.79346 -295.79346 c 0 -149.54789 147.89673 -296.26522 295.79346 -295.79346 z" stroke-linecap="round"/>
</g>
		<g transform="matrix(0.9949605548037591 0.10026711517040766 -0.10026711517040766 0.9949605548037591 24.529422079458254 -317.3898766123443)" style="" id="wf3hfqtcm">
		
<g xml:space="preserve" style="stroke: none; stroke-width: 1; stroke-dasharray:none; stroke-linecap: butt; stroke-dashoffset: 0; stroke-linejoin: miter; stroke-miterlimit: 4; fill: rgb(106,109,109); fill-rule: nonzero; opacity: 1; white-space: pre;"><path d="M-17.77 23.79Q-18.37 23.79-18.71 23.30Q-19.05 22.81-19.05 22.14L-19.05 22.14Q-18.97 21.01-18.60 20.79Q-18.22 20.56-17.17 20.56L-17.17 20.56Q-15.00 20.56-13.95 19.77Q-12.90 18.99-12.64 17.82Q-12.37 16.66-12.30 14.79L-12.30 14.79L-12.30-14.99Q-12.37-16.86-12.64-18.03Q-12.90-19.19-13.95-19.98Q-15.00-20.76-17.17-20.76L-17.17-20.76L-17.62-20.76Q-18.37-20.76-18.67-21.03Q-18.97-21.29-19.05-22.34L-19.05-22.34Q-19.05-23.01-18.71-23.50Q-18.37-23.99-17.77-23.99L-17.77-23.99Q-12.82-23.76-8.85-23.76L-8.85-23.76L14.70-23.76Q16.65-23.76 16.65-21.96L16.65-21.96L16.88-11.46Q16.88-10.79 16.20-10.38Q15.53-9.96 14.85-9.96L14.85-9.96Q13.95-9.96 13.28-10.30Q12.60-10.64 12.53-11.31L12.53-11.31Q11.93-14.99 11.21-16.90Q10.50-18.81 9.11-19.75Q7.73-20.69 5.18-20.76L5.18-20.76L-4.87-20.76L-4.87-1.71L8.70-1.71Q9.23-1.64 9.53-1.15Q9.83-0.66 9.83 0.01L9.83 0.01Q9.83 0.61 9.53 1.06Q9.23 1.51 8.70 1.51L8.70 1.51L-4.87 1.51L-4.87 15.69Q-4.72 17.26-4.50 18.20Q-4.27 19.14-3.15 19.89Q-2.02 20.64 0.38 20.56L0.38 20.56L7.28 20.56Q9.90 20.49 11.25 19.70Q12.60 18.91 13.39 17.26Q14.18 15.61 15.30 11.86L15.30 11.86Q15.83 10.51 17.85 10.81L17.85 10.81Q18.60 10.96 19.16 11.41Q19.73 11.86 19.65 12.54L19.65 12.54L18.15 21.99Q17.93 22.96 17.48 23.26Q17.03 23.56 15.98 23.56L15.98 23.56L-8.77 23.56Q-12.82 23.56-17.77 23.79L-17.77 23.79Z"/></g></g>
		<g transform="matrix(0.9614189977722104 0.2750881871740016 -0.2750881871740016 0.9614189977722104 72.42688870157647 -308.11228774348916)" style="" id="5xdig6eit">
		
<g xml:space="preserve" style="stroke: none; stroke-width: 1; stroke-dasharray:none; stroke-linecap: butt; stroke-dashoffset: 0; stroke-linejoin: miter; stroke-miterlimit: 4; fill: rgb(106,109,109); fill-rule: nonzero; opacity: 1; white-space: pre;"><path d="M-9.08 23.79Q-9.75 23.79-10.09 23.30Q-10.43 22.81-10.43 22.14L-10.43 22.14Q-10.35 21.01-9.98 20.79Q-9.60 20.56-8.55 20.56L-8.55 20.56Q-6.38 20.56-5.33 19.77Q-4.28 18.99-4.01 17.82Q-3.75 16.66-3.68 14.79L-3.68 14.79L-3.68-20.99L-8.85-20.99Q-11.40-20.91-12.79-19.90Q-14.18-18.89-14.89-16.90Q-15.60-14.91-16.13-11.24L-16.13-11.24Q-16.20-10.64-17.03-10.26Q-17.85-9.89-18.75-9.89L-18.75-9.89Q-19.43-9.89-19.99-10.30Q-20.55-10.71-20.55-11.39L-20.55-11.39L-20.33-21.96Q-20.33-23.76-18.30-23.76L-18.30-23.76L18.37-23.76Q20.32-23.76 20.32-21.96L20.32-21.96L20.62-11.39Q20.62-10.71 20.02-10.30Q19.42-9.89 18.75-9.89L18.75-9.89Q17.85-9.89 17.06-10.26Q16.27-10.64 16.20-11.24L16.20-11.24Q15.60-14.99 14.92-16.94Q14.25-18.89 12.82-19.90Q11.40-20.91 8.85-20.99L8.85-20.99L3.75-20.99L3.75 14.79Q3.82 16.66 4.09 17.82Q4.35 18.99 5.40 19.77Q6.45 20.56 8.62 20.56L8.62 20.56L9.07 20.56Q9.75 20.56 10.09 20.82Q10.42 21.09 10.50 22.14L10.50 22.14Q10.50 22.81 10.16 23.30Q9.82 23.79 9.15 23.79L9.15 23.79Q4.35 23.56 0.30 23.56L0.30 23.56Q-4.20 23.56-9.08 23.79L-9.08 23.79Z"/></g></g>
		<g transform="matrix(0.8970019522081906 0.44202658034861997 -0.44202658034861997 0.8970019522081906 124.3176504740347 -287.97344705255875)" style="" id="aejxsv2nq">
		
<g xml:space="preserve" style="stroke: none; stroke-width: 1; stroke-dasharray:none; stroke-linecap: butt; stroke-dashoffset: 0; stroke-linejoin: miter; stroke-miterlimit: 4; fill: rgb(106,109,109); fill-rule: nonzero; opacity: 1; white-space: pre;"><path d="M-24.56 23.79Q-25.24 23.79-25.58 23.30Q-25.91 22.81-25.91 22.14L-25.91 22.14Q-25.84 21.01-25.46 20.79Q-25.09 20.56-24.04 20.56L-24.04 20.56Q-21.86 20.56-20.81 19.77Q-19.76 18.99-19.50 17.82Q-19.24 16.66-19.16 14.79L-19.16 14.79L-19.16-14.99Q-19.24-16.86-19.50-18.03Q-19.76-19.19-20.81-19.98Q-21.86-20.76-24.04-20.76L-24.04-20.76L-24.49-20.76Q-25.24-20.76-25.54-21.03Q-25.84-21.29-25.91-22.34L-25.91-22.34Q-25.91-23.01-25.58-23.50Q-25.24-23.99-24.56-23.99L-24.56-23.99Q-19.69-23.76-15.71-23.76L-15.71-23.76Q-11.21-23.76-6.34-23.99L-6.34-23.99Q-5.66-23.99-5.33-23.50Q-4.99-23.01-4.99-22.34L-4.99-22.34Q-5.06-21.21-5.44-20.99Q-5.81-20.76-6.86-20.76L-6.86-20.76Q-9.04-20.76-10.09-19.98Q-11.14-19.19-11.40-18.03Q-11.66-16.86-11.74-14.99L-11.74-14.99L-11.74-1.71L11.81-1.71L11.81-14.99Q11.74-16.86 11.47-18.03Q11.21-19.19 10.16-19.98Q9.11-20.76 6.94-20.76L6.94-20.76L6.49-20.76Q5.74-20.76 5.40-21.03Q5.06-21.29 4.99-22.34L4.99-22.34Q4.99-23.01 5.36-23.50Q5.74-23.99 6.34-23.99L6.34-23.99Q11.21-23.76 15.71-23.76L15.71-23.76Q19.84-23.76 24.64-23.99L24.64-23.99Q25.31-23.99 25.65-23.50Q25.99-23.01 25.99-22.34L25.99-22.34Q25.91-21.21 25.50-20.99Q25.09-20.76 24.11-20.76L24.11-20.76Q21.94-20.76 20.85-19.98Q19.76-19.19 19.50-18.03Q19.24-16.86 19.16-14.99L19.16-14.99L19.16 14.79Q19.24 16.66 19.50 17.82Q19.76 18.99 20.85 19.77Q21.94 20.56 24.11 20.56L24.11 20.56L24.56 20.56Q25.24 20.56 25.57 20.82Q25.91 21.09 25.99 22.14L25.99 22.14Q25.99 22.81 25.65 23.30Q25.31 23.79 24.64 23.79L24.64 23.79Q19.84 23.56 15.64 23.56L15.64 23.56Q11.21 23.56 6.34 23.79L6.34 23.79Q5.74 23.79 5.36 23.30Q4.99 22.81 4.99 22.14L4.99 22.14Q5.06 21.01 5.47 20.79Q5.89 20.56 6.94 20.56L6.94 20.56Q9.11 20.56 10.16 19.77Q11.21 18.99 11.47 17.82Q11.74 16.66 11.81 14.79L11.81 14.79L11.81 1.51L-11.74 1.51L-11.74 14.79Q-11.66 16.66-11.40 17.82Q-11.14 18.99-10.09 19.77Q-9.04 20.56-6.86 20.56L-6.86 20.56L-6.41 20.56Q-5.66 20.56-5.36 20.82Q-5.06 21.09-4.99 22.14L-4.99 22.14Q-4.99 22.81-5.33 23.30Q-5.66 23.79-6.34 23.79L-6.34 23.79Q-11.14 23.56-15.64 23.56L-15.64 23.56Q-19.69 23.56-24.56 23.79L-24.56 23.79Z"/></g></g>
		<g transform="matrix(0.8071391167013573 0.590361284545788 -0.590361284545788 0.8071391167013573 176.1007555056615 -256.50267831582397)" style="" id="m4hok33cw">
		
<g xml:space="preserve" style="stroke: none; stroke-width: 1; stroke-dasharray:none; stroke-linecap: butt; stroke-dashoffset: 0; stroke-linejoin: miter; stroke-miterlimit: 4; fill: rgb(106,109,109); fill-rule: nonzero; opacity: 1; white-space: pre;"><path d="M-0.11 25.06Q-7.24 25.06-12.68 21.65Q-18.11 18.24-21.07 12.61Q-24.04 6.99-24.04 0.54L-24.04 0.54Q-24.04-7.34-20.48-13.19Q-16.91-19.04-11.36-22.15Q-5.81-25.26-0.11-25.26L-0.11-25.26Q7.09-25.26 12.60-21.85Q18.11-18.44 21.07-12.85Q24.04-7.26 24.04-0.81L24.04-0.81Q24.04 7.06 20.44 12.95Q16.84 18.84 11.21 21.95Q5.59 25.06-0.11 25.06L-0.11 25.06ZM-0.19 21.76Q4.91 21.76 8.32 18.72Q11.74 15.69 13.42 10.55Q15.11 5.41 15.11-0.81L15.11-0.81Q15.11-6.59 13.39-11.43Q11.66-16.26 8.21-19.15Q4.76-22.04-0.19-22.04L-0.19-22.04Q-7.69-22.04-11.48-15.70Q-15.26-9.36-15.26 0.31L-15.26 0.31Q-15.26 6.16-13.58 11.04Q-11.89 15.91-8.51 18.84Q-5.14 21.76-0.19 21.76L-0.19 21.76Z"/></g></g>
		<g transform="matrix(0.7420387677222751 0.6703569699773454 -0.6703569699773454 0.7420387677222751 205.7767332858511 -232.34065766005887)" style="" id="ukjjctpg7">
		
<g xml:space="preserve" style="stroke: none; stroke-width: 1; stroke-dasharray:none; stroke-linecap: butt; stroke-dashoffset: 0; stroke-linejoin: miter; stroke-miterlimit: 4; fill: rgb(106,109,109); fill-rule: nonzero; opacity: 1; white-space: pre;"><path style="white-space: pre;" d=""/></g></g>
		<g transform="matrix(0.6701270805409816 0.7422463849191997 -0.7422463849191997 0.6701270805409816 232.80941281741354 -205.30014649561656)" style="" id="sblxefu0t">
		
<g xml:space="preserve" style="stroke: none; stroke-width: 1; stroke-dasharray:none; stroke-linecap: butt; stroke-dashoffset: 0; stroke-linejoin: miter; stroke-miterlimit: 4; fill: rgb(106,109,109); fill-rule: nonzero; opacity: 1; white-space: pre;"><path d="M-0.11 25.06Q-7.24 25.06-12.68 21.65Q-18.11 18.24-21.07 12.61Q-24.04 6.99-24.04 0.54L-24.04 0.54Q-24.04-7.34-20.48-13.19Q-16.91-19.04-11.36-22.15Q-5.81-25.26-0.11-25.26L-0.11-25.26Q7.09-25.26 12.60-21.85Q18.11-18.44 21.07-12.85Q24.04-7.26 24.04-0.81L24.04-0.81Q24.04 7.06 20.44 12.95Q16.84 18.84 11.21 21.95Q5.59 25.06-0.11 25.06L-0.11 25.06ZM-0.19 21.76Q4.91 21.76 8.32 18.72Q11.74 15.69 13.42 10.55Q15.11 5.41 15.11-0.81L15.11-0.81Q15.11-6.59 13.39-11.43Q11.66-16.26 8.21-19.15Q4.76-22.04-0.19-22.04L-0.19-22.04Q-7.69-22.04-11.48-15.70Q-15.26-9.36-15.26 0.31L-15.26 0.31Q-15.26 6.16-13.58 11.04Q-11.89 15.91-8.51 18.84Q-5.14 21.76-0.19 21.76L-0.19 21.76Z"/></g></g>
		<g transform="matrix(0.5439009848691336 0.8391494018697663 -0.8391494018697663 0.5439009848691336 268.3427104483199 -159.08665146264585)" style="" id="vvr7nppny">
		
<g xml:space="preserve" style="stroke: none; stroke-width: 1; stroke-dasharray:none; stroke-linecap: butt; stroke-dashoffset: 0; stroke-linejoin: miter; stroke-miterlimit: 4; fill: rgb(106,109,109); fill-rule: nonzero; opacity: 1; white-space: pre;"><path d="M-23.32 36.99Q-24.30 36.99-25.01 36.46Q-25.72 35.94-25.72 35.11L-25.72 35.11L-25.72 22.74Q-25.72 20.34-23.25 20.34L-23.25 20.34L-20.55 20.34Q-15.90 14.64-13.35 4.44Q-10.80-5.76-10.72-14.99L-10.72-14.99Q-10.80-16.86-11.06-18.03Q-11.32-19.19-12.37-19.98Q-13.42-20.76-15.60-20.76L-15.60-20.76L-16.05-20.76Q-16.80-20.76-17.10-21.03Q-17.40-21.29-17.47-22.34L-17.47-22.34Q-17.47-23.01-17.14-23.50Q-16.80-23.99-16.20-23.99L-16.20-23.99Q-11.25-23.76-7.27-23.76L-7.27-23.76L11.48-23.76Q15.60-23.76 20.40-23.99L20.40-23.99Q21.08-23.99 21.41-23.50Q21.75-23.01 21.75-22.34L21.75-22.34Q21.68-21.21 21.26-20.99Q20.85-20.76 19.88-20.76L19.88-20.76Q17.70-20.76 16.65-19.98Q15.60-19.19 15.34-18.03Q15.08-16.86 15.00-14.99L15.00-14.99L15.00 13.21Q15.00 16.14 15.34 17.52Q15.68 18.91 16.95 19.62Q18.23 20.34 21.08 20.34L21.08 20.34Q23.55 20.34 23.55 22.74L23.55 22.74L23.55 35.11Q23.55 35.94 22.88 36.46Q22.20 36.99 21.38 36.99L21.38 36.99Q18.90 36.99 18.60 35.34L18.60 35.34Q17.85 30.46 17.06 28.14Q16.28 25.81 14.63 24.69Q12.98 23.56 9.68 23.56L9.68 23.56L-11.85 23.56Q-15.15 23.56-16.80 24.69Q-18.45 25.81-19.24 28.14Q-20.02 30.46-20.77 35.34L-20.77 35.34Q-21.07 36.99-23.32 36.99L-23.32 36.99ZM-16.27 20.34L3.30 20.34Q4.88 20.34 5.74 20.04Q6.60 19.74 7.09 18.65Q7.58 17.56 7.58 15.31L7.58 15.31L7.58-20.54L-2.85-20.54Q-4.42-20.54-5.29-20.24Q-6.15-19.94-6.64-18.85Q-7.12-17.76-7.12-15.51L-7.12-15.51Q-7.57-3.59-9.60 5.34Q-11.62 14.26-16.27 20.34L-16.27 20.34Z"/></g></g>
		<g transform="matrix(0.3900249890639381 0.9208042723107202 -0.9208042723107202 0.3900249890639381 295.8571279057515 -107.44316451212163)" style="" id="9ddd51sf9">
		
<g xml:space="preserve" style="stroke: none; stroke-width: 1; stroke-dasharray:none; stroke-linecap: butt; stroke-dashoffset: 0; stroke-linejoin: miter; stroke-miterlimit: 4; fill: rgb(106,109,109); fill-rule: nonzero; opacity: 1; white-space: pre;"><path d="M-18.45 24.31Q-20.92 24.31-23.10 23.15Q-25.27 21.99-25.80 19.59L-25.80 19.59L-25.80 19.29Q-25.80 18.69-25.50 18.27Q-25.20 17.86-24.67 17.86L-24.67 17.86Q-24.30 17.86-24.00 18.16Q-23.70 18.46-23.25 19.06L-23.25 19.06Q-22.57 19.96-22.01 20.45Q-21.45 20.94-20.40 20.94L-20.40 20.94Q-18.22 20.94-16.65 19.02Q-15.07 17.11-12.90 13.06L-12.90 13.06L-10.87 9.54Q-9.07 6.54-6.97 4.44Q-4.87 2.34-2.10 1.29L-2.10 1.29L-2.10 1.06Q-8.32 0.91-13.20-2.84L-13.20-2.84Q-16.95-6.06-16.95-11.09L-16.95-11.09Q-16.95-18.14-11.62-20.99Q-6.30-23.84 0.08-23.84L0.08-23.84L1.65-23.76L13.28-23.76Q17.48-23.76 22.28-23.99L22.28-23.99Q22.95-23.99 23.29-23.50Q23.63-23.01 23.63-22.34L23.63-22.34Q23.55-21.21 23.14-20.99Q22.73-20.76 21.68-20.76L21.68-20.76Q19.50-20.76 18.45-19.98Q17.40-19.19 17.14-18.03Q16.88-16.86 16.80-14.99L16.80-14.99L16.80 14.79Q16.88 16.66 17.14 17.82Q17.40 18.99 18.45 19.77Q19.50 20.56 21.68 20.56L21.68 20.56L22.13 20.56Q22.88 20.56 23.21 20.82Q23.55 21.09 23.63 22.14L23.63 22.14Q23.63 22.81 23.29 23.30Q22.95 23.79 22.28 23.79L22.28 23.79Q17.48 23.56 13.35 23.56L13.35 23.56Q8.85 23.56 3.98 23.79L3.98 23.79Q3.30 23.79 2.96 23.30Q2.63 22.81 2.63 22.14L2.63 22.14Q2.70 21.01 3.11 20.79Q3.53 20.56 4.50 20.56L4.50 20.56Q6.68 20.56 7.73 19.77Q8.78 18.99 9.08 17.86Q9.38 16.74 9.45 14.79L9.45 14.79L9.45 2.19L7.65 2.19Q4.80 2.19 2.81 3.46Q0.83 4.74-0.49 6.69Q-1.80 8.64-3.37 11.79L-3.37 11.79Q-5.47 15.99-7.01 18.42Q-8.55 20.86-11.36 22.59Q-14.17 24.31-18.45 24.31L-18.45 24.31ZM5.63-0.59L9.45-0.59L9.45-14.99Q9.45-17.69 9.00-18.89Q8.55-20.09 7.43-20.43Q6.30-20.76 3.98-20.76L3.98-20.76Q-2.02-20.76-5.29-18.10Q-8.55-15.44-8.55-10.56L-8.55-10.56Q-8.55-4.19-4.24-2.39Q0.08-0.59 5.63-0.59L5.63-0.59Z"/></g></g>
		<g transform="matrix(0.2214620213265824 0.9751689972050713 -0.9751689972050713 0.2214620213265824 312.08301436577966 -57.460528521538464)" style="" id="6uzolpodp">
		
<g xml:space="preserve" style="stroke: none; stroke-width: 1; stroke-dasharray:none; stroke-linecap: butt; stroke-dashoffset: 0; stroke-linejoin: miter; stroke-miterlimit: 4; fill: rgb(106,109,109); fill-rule: nonzero; opacity: 1; white-space: pre;"><path d="M-16.01 23.79Q-16.61 23.79-16.95 23.30Q-17.29 22.81-17.29 22.14L-17.29 22.14Q-17.21 21.01-16.84 20.79Q-16.46 20.56-15.41 20.56L-15.41 20.56Q-13.24 20.56-12.19 19.77Q-11.14 18.99-10.88 17.82Q-10.61 16.66-10.54 14.79L-10.54 14.79L-10.54-14.99Q-10.61-16.86-10.88-18.03Q-11.14-19.19-12.19-19.98Q-13.24-20.76-15.41-20.76L-15.41-20.76L-15.86-20.76Q-16.61-20.76-16.91-21.03Q-17.21-21.29-17.29-22.34L-17.29-22.34Q-17.29-23.01-16.95-23.50Q-16.61-23.99-16.01-23.99L-16.01-23.99Q-11.21-23.76-7.09-23.76L-7.09-23.76L16.09-23.76Q18.04-23.76 18.04-21.96L18.04-21.96L18.26-11.39Q18.26-10.71 17.70-10.30Q17.14-9.89 16.46-9.89L16.46-9.89Q15.56-9.89 14.77-10.26Q13.99-10.64 13.91-11.24L13.91-11.24Q13.31-14.91 12.60-16.86Q11.89-18.81 10.50-19.75Q9.11-20.69 6.56-20.76L6.56-20.76L-3.11-20.76L-3.11 14.79Q-3.04 16.66-2.78 17.82Q-2.51 18.99-1.46 19.77Q-0.41 20.56 1.76 20.56L1.76 20.56L2.21 20.56Q2.89 20.56 3.22 20.82Q3.56 21.09 3.64 22.14L3.64 22.14Q3.64 22.81 3.30 23.30Q2.96 23.79 2.29 23.79L2.29 23.79Q-2.59 23.56-7.01 23.56L-7.01 23.56Q-11.14 23.56-16.01 23.79L-16.01 23.79Z"/></g></g>
		<g transform="matrix(0.10256500230227203 0.9947263042177656 -0.9947263042177656 0.10256500230227203 317.3363393625236 -25.67830094885037)" style="" id="ic8220hve">
		
<g xml:space="preserve" style="stroke: none; stroke-width: 1; stroke-dasharray:none; stroke-linecap: butt; stroke-dashoffset: 0; stroke-linejoin: miter; stroke-miterlimit: 4; fill: rgb(106,109,109); fill-rule: nonzero; opacity: 1; white-space: pre;"><path style="white-space: pre;" d=""/></g></g>
		<g transform="matrix(-0.02119889702969483 0.9997752781324033 -0.9997752781324033 -0.02119889702969483 318.61326449209594 5.198230615336983)" style="" id="bytenhaq4">
		
<g xml:space="preserve" style="stroke: none; stroke-width: 1; stroke-dasharray:none; stroke-linecap: butt; stroke-dashoffset: 0; stroke-linejoin: miter; stroke-miterlimit: 4; fill: rgb(106,109,109); fill-rule: nonzero; opacity: 1; white-space: pre;"><path d="M-8.10-3.51Q-8.93-3.89-9.49-4.68Q-10.05-5.46-10.05-6.36L-10.05-6.36Q-10.05-7.41-9.45-8.31L-9.45-8.31Q-8.85-9.36-6.68-10.94L-6.68-10.94Q-4.95-12.21-3.79-13.26Q-2.63-14.31-1.43-15.96L-1.43-15.96Q-1.50-16.04-1.54-16.26Q-1.58-16.49-1.65-16.56L-1.65-16.56Q-3.83-16.34-5.36-15.85Q-6.90-15.36-9.00-14.61L-9.00-14.61Q-11.48-13.56-12.83-13.56L-12.83-13.56Q-14.48-13.56-15.53-14.61Q-16.58-15.66-16.50-17.01L-16.50-17.01Q-16.58-18.44-15.49-19.45Q-14.40-20.46-12.68-20.46L-12.68-20.46Q-11.40-20.46-8.78-19.41L-8.78-19.41Q-4.95-17.91-1.73-17.54L-1.73-17.54L-1.20-17.99Q-2.63-19.64-3.86-20.69Q-5.10-21.74-6.75-22.94L-6.75-22.94Q-7.65-23.61-8.44-24.25Q-9.23-24.89-9.60-25.56L-9.60-25.56Q-10.13-26.61-10.13-27.66L-10.13-27.66Q-10.13-29.54-8.48-30.59L-8.48-30.59Q-7.73-31.04-6.68-31.04L-6.68-31.04Q-5.70-31.04-4.80-30.55Q-3.90-30.06-3.30-29.16L-3.30-29.16Q-2.78-28.34-2.55-27.10Q-2.33-25.86-2.25-25.49L-2.25-25.49Q-1.80-21.74-0.45-18.51L-0.45-18.51Q-0.30-18.59 0.22-18.59L0.22-18.59Q1.12-20.46 1.46-22.00Q1.80-23.54 2.02-25.64L2.02-25.64Q2.17-26.69 2.36-27.59Q2.55-28.49 2.92-29.16L2.92-29.16Q4.05-31.04 6.15-31.04L6.15-31.04Q7.20-31.04 7.95-30.59L7.95-30.59Q8.77-30.21 9.30-29.43Q9.82-28.64 9.82-27.74L9.82-27.74Q9.82-26.69 9.22-25.79L9.22-25.79Q8.55-24.66 6.37-23.09L6.37-23.09Q4.65-21.81 3.49-20.76Q2.32-19.71 1.12-18.06L1.12-18.06Q1.20-17.99 1.24-17.76Q1.27-17.54 1.35-17.46L1.35-17.46Q3.52-17.76 5.06-18.21Q6.60-18.66 8.70-19.49L8.70-19.49Q11.17-20.54 12.37-20.54L12.37-20.54Q14.25-20.54 15.34-19.53Q16.42-18.51 16.35-17.09L16.35-17.09Q16.35-15.66 15.26-14.65Q14.17-13.64 12.37-13.64L12.37-13.64Q11.40-13.64 10.12-14.09Q8.85-14.54 8.62-14.61L8.62-14.61Q4.87-16.11 1.42-16.49L1.42-16.49L0.97-16.04Q2.32-14.46 3.45-13.49Q4.57-12.51 6.45-11.09L6.45-11.09Q7.35-10.49 8.14-9.85Q8.92-9.21 9.30-8.54L9.30-8.54Q9.90-7.41 9.90-6.29L9.90-6.29Q9.90-4.49 8.32-3.51L8.32-3.51Q7.42-3.06 6.45-3.06L6.45-3.06Q4.27-3.06 3.07-4.94L3.07-4.94Q2.40-6.06 2.02-8.69L2.02-8.69Q1.35-12.59 0.15-15.51L0.15-15.51Q-0.00-15.44-0.53-15.44L-0.53-15.44Q-1.43-13.49-1.80-11.88Q-2.18-10.26-2.40-8.39L-2.40-8.39Q-2.63-5.91-3.23-4.94L-3.23-4.94Q-4.28-2.99-6.30-2.99L-6.30-2.99Q-7.20-2.99-8.10-3.51L-8.10-3.51Z"/></g></g>
		<g transform="matrix(-0.14194168128367926 0.9898750219670979 -0.9898750219670979 -0.14194168128367926 316.07188000703195 35.9349053021728)" style="" id="fb04fb4gn">
		
<g xml:space="preserve" style="stroke: none; stroke-width: 1; stroke-dasharray:none; stroke-linecap: butt; stroke-dashoffset: 0; stroke-linejoin: miter; stroke-miterlimit: 4; fill: rgb(106,109,109); fill-rule: nonzero; opacity: 1; white-space: pre;"><path style="white-space: pre;" d=""/></g></g>
		<g transform="matrix(-0.3007416172926904 0.9537056567034595 -0.9537056567034595 -0.3007416172926904 305.92624150170224 80.16562735344621)" style="" id="sr386w6pa">
		
<g xml:space="preserve" style="stroke: none; stroke-width: 1; stroke-dasharray:none; stroke-linecap: butt; stroke-dashoffset: 0; stroke-linejoin: miter; stroke-miterlimit: 4; fill: rgb(106,109,109); fill-rule: nonzero; opacity: 1; white-space: pre;"><path d="M-1.24 23.94Q-2.36 23.94-2.81 23.19L-2.81 23.19L-19.69-14.99L-19.91-14.99L-19.76 14.79Q-19.69 16.81-19.46 17.90Q-19.24 18.99-18.23 19.77Q-17.21 20.56-15.04 20.56L-15.04 20.56L-14.59 20.56Q-13.84 20.56-13.50 20.82Q-13.16 21.09-13.09 22.14L-13.09 22.14Q-13.09 22.81-13.43 23.30Q-13.76 23.79-14.44 23.79L-14.44 23.79L-16.31 23.71Q-19.76 23.56-21.26 23.56L-21.26 23.56Q-23.81 23.56-28.69 23.79L-28.69 23.79Q-29.36 23.79-29.70 23.30Q-30.04 22.81-30.04 22.14L-30.04 22.14Q-29.96 21.01-29.59 20.79Q-29.21 20.56-28.16 20.56L-28.16 20.56Q-25.99 20.56-24.98 19.77Q-23.96 18.99-23.74 17.90Q-23.51 16.81-23.44 14.79L-23.44 14.79L-23.29-14.99Q-23.29-17.31-23.81-18.48Q-24.34-19.64-25.35-20.13Q-26.36-20.61-28.31-20.99L-28.31-20.99Q-28.61-21.06-29.21-21.18Q-29.81-21.29-30.00-21.63Q-30.19-21.96-30.19-22.71L-30.19-22.71Q-30.19-23.61-29.70-23.91Q-29.21-24.21-28.16-24.21L-28.16-24.21Q-23.74-24.21-20.89-23.65Q-18.04-23.09-15.90-21.36Q-13.76-19.64-12.34-16.26L-12.34-16.26L0.56 12.69L0.79 12.69L15.56-23.76L19.84-23.76Q23.96-23.76 28.76-23.99L28.76-23.99Q29.44-23.99 29.77-23.50Q30.11-23.01 30.11-22.34L30.11-22.34Q30.04-21.21 29.62-20.99Q29.21-20.76 28.24-20.76L28.24-20.76Q26.06-20.76 25.01-19.98Q23.96-19.19 23.70-18.03Q23.44-16.86 23.36-14.99L23.36-14.99L23.36 14.79Q23.44 16.66 23.70 17.82Q23.96 18.99 25.01 19.77Q26.06 20.56 28.24 20.56L28.24 20.56L28.69 20.56Q29.36 20.56 29.70 20.82Q30.04 21.09 30.11 22.14L30.11 22.14Q30.11 22.81 29.77 23.30Q29.44 23.79 28.76 23.79L28.76 23.79Q23.96 23.56 19.76 23.56L19.76 23.56Q15.41 23.56 10.54 23.79L10.54 23.79Q9.86 23.79 9.52 23.30Q9.19 22.81 9.19 22.14L9.19 22.14Q9.26 21.01 9.64 20.79Q10.01 20.56 11.06 20.56L11.06 20.56Q13.24 20.56 14.29 19.77Q15.34 18.99 15.60 17.82Q15.86 16.66 15.94 14.79L15.94 14.79L15.94-14.99L15.71-14.99L0.26 23.19Q-0.04 23.94-1.24 23.94L-1.24 23.94Z"/></g></g>
		<g transform="matrix(-0.48117979382534093 0.8766219287778526 -0.8766219287778526 -0.48117979382534093 281.3506361319993 137.3271040099631)" style="" id="h4yvcd46o">
		
<g xml:space="preserve" style="stroke: none; stroke-width: 1; stroke-dasharray:none; stroke-linecap: butt; stroke-dashoffset: 0; stroke-linejoin: miter; stroke-miterlimit: 4; fill: rgb(106,109,109); fill-rule: nonzero; opacity: 1; white-space: pre;"><path d="M-24.04 23.79Q-24.71 23.79-25.05 23.30Q-25.39 22.81-25.39 22.14L-25.39 22.14Q-25.31 21.01-24.94 20.79Q-24.56 20.56-24.04 20.56Q-23.51 20.56-23.36 20.56L-23.36 20.56Q-21.11 20.56-20.06 19.40Q-19.01 18.24-18.38 16.77Q-17.74 15.31-17.51 14.79L-17.51 14.79L-4.39-16.26Q-3.94-17.39-3.94-18.06L-3.94-18.06Q-3.94-19.41-4.99-20.01Q-6.04-20.61-7.91-20.99L-7.91-20.99Q-9.19-21.21-9.49-21.44Q-9.79-21.66-9.79-22.71L-9.79-22.71Q-9.79-23.61-9.30-23.91Q-8.81-24.21-7.76-24.21L-7.76-24.21Q-4.01-24.21-1.80-23.65Q0.41-23.09 2.06-21.40Q3.71-19.71 5.14-16.26L5.14-16.26L17.74 14.79Q18.86 17.64 19.91 19.06Q20.96 20.49 23.06 20.56L23.06 20.56L23.51 20.56Q24.26 20.56 24.56 20.82Q24.86 21.09 24.94 22.14L24.94 22.14Q24.94 22.81 24.60 23.30Q24.26 23.79 23.59 23.79L23.59 23.79Q18.79 23.56 15.34 23.56L15.34 23.56Q10.84 23.56 6.04 23.79L6.04 23.79Q5.36 23.79 5.02 23.30Q4.69 22.81 4.69 22.14L4.69 22.14Q4.76 21.09 5.06 20.82Q5.36 20.56 6.11 20.56L6.11 20.56Q8.66 20.56 9.71 20.07Q10.76 19.59 10.76 18.31L10.76 18.31Q10.76 17.34 9.86 14.79L9.86 14.79L7.31 8.56L-11.21 8.56Q-13.09 13.21-13.35 13.96Q-13.61 14.71-13.61 14.79L-13.61 14.79Q-14.51 17.64-14.51 18.46L-14.51 18.46Q-14.51 19.74-13.39 20.15Q-12.26 20.56-9.11 20.56L-9.11 20.56L-8.66 20.56Q-7.91 20.56-7.61 20.82Q-7.31 21.09-7.24 22.14L-7.24 22.14Q-7.24 22.81-7.58 23.30Q-7.91 23.79-8.59 23.79L-8.59 23.79Q-13.39 23.56-16.76 23.56L-16.76 23.56Q-19.16 23.56-24.04 23.79L-24.04 23.79ZM-1.84-13.94L-9.79 5.34L5.96 5.34L-1.61-13.94L-1.84-13.94Z"/></g></g>
		<g transform="matrix(-0.6164177653007772 0.7874192902270022 -0.7874192902270022 -0.6164177653007772 249.6179768388143 185.31937280535595)" style="" id="jenfvit3i">
		
<g xml:space="preserve" style="stroke: none; stroke-width: 1; stroke-dasharray:none; stroke-linecap: butt; stroke-dashoffset: 0; stroke-linejoin: miter; stroke-miterlimit: 4; fill: rgb(106,109,109); fill-rule: nonzero; opacity: 1; white-space: pre;"><path d="M-24.23 23.79Q-25.58 23.71-25.58 22.14L-25.58 22.14Q-25.50 21.01-25.13 20.79Q-24.75 20.56-23.70 20.56L-23.70 20.56Q-21.53 20.56-20.48 19.77Q-19.43 18.99-19.16 17.82Q-18.90 16.66-18.83 14.79L-18.83 14.79L-18.83-14.99Q-18.90-16.86-19.16-18.03Q-19.43-19.19-20.48-19.98Q-21.53-20.76-23.70-20.76L-23.70-20.76L-24.15-20.76Q-24.90-20.76-25.20-21.03Q-25.50-21.29-25.58-22.34L-25.58-22.34Q-25.58-23.01-25.24-23.50Q-24.90-23.99-24.23-23.99L-24.23-23.99Q-19.43-23.76-15.38-23.76L-15.38-23.76Q-10.88-23.76-6.00-23.99L-6.00-23.99Q-5.33-23.99-4.99-23.50Q-4.65-23.01-4.65-22.34L-4.65-22.34Q-4.73-21.21-5.10-20.99Q-5.48-20.76-6.53-20.76L-6.53-20.76Q-8.70-20.76-9.75-19.98Q-10.80-19.19-11.06-18.03Q-11.33-16.86-11.40-14.99L-11.40-14.99L-11.40 11.56L10.12-15.59Q12.97-19.19 14.62-20.84Q16.27-22.49 17.51-23.09Q18.75-23.69 20.40-23.84L20.40-23.84Q22.20-23.99 24.22-23.99L24.22-23.99Q25.57-23.99 25.57-22.34L25.57-22.34Q25.50-21.21 25.12-20.99Q24.75-20.76 23.70-20.76L23.70-20.76Q21.52-20.76 20.47-19.98Q19.42-19.19 19.16-18.03Q18.90-16.86 18.82-14.99L18.82-14.99L18.82 14.79Q18.90 16.66 19.16 17.82Q19.42 18.99 20.47 19.77Q21.52 20.56 23.70 20.56L23.70 20.56L24.15 20.56Q24.90 20.56 25.20 20.82Q25.50 21.09 25.57 22.14L25.57 22.14Q25.57 22.81 25.24 23.30Q24.90 23.79 24.22 23.79L24.22 23.79Q19.42 23.56 15.37 23.56L15.37 23.56Q10.95 23.56 6.07 23.79L6.07 23.79Q5.40 23.79 5.06 23.30Q4.72 22.81 4.72 22.14L4.72 22.14Q4.80 21.01 5.21 20.79Q5.62 20.56 6.60 20.56L6.60 20.56Q8.77 20.56 9.82 19.77Q10.87 18.99 11.14 17.82Q11.40 16.66 11.47 14.79L11.47 14.79L11.47-11.69L-10.13 15.31Q-12.98 18.84-14.51 20.45Q-16.05 22.06-17.21 22.77Q-18.38 23.49-19.88 23.64L-19.88 23.64Q-22.35 23.86-24.23 23.79L-24.23 23.79ZM10.72-39.89Q12.37-39.89 13.39-38.88Q14.40-37.86 14.40-36.06L14.40-36.06Q14.40-32.24 10.12-30.18Q5.85-28.11-0.00-28.11L-0.00-28.11Q-5.85-28.11-10.13-30.18Q-14.40-32.24-14.40-36.06L-14.40-36.06Q-14.40-37.86-13.39-38.88Q-12.38-39.89-10.73-39.89L-10.73-39.89Q-9.08-39.89-8.10-38.84Q-7.13-37.79-6.15-35.69L-6.15-35.69Q-4.95-33.29-3.68-31.98Q-2.40-30.66-0.00-30.66L-0.00-30.66Q2.40-30.66 3.67-31.98Q4.95-33.29 6.15-35.69L6.15-35.69Q7.12-37.79 8.10-38.84Q9.07-39.89 10.72-39.89L10.72-39.89Z"/></g></g>
		<g transform="matrix(-0.7284551103239716 0.6850935353970948 -0.6850935353970948 -0.7284551103239716 211.31414773410646 227.2364246819511)" style="" id="czf6c45da">
		
<g xml:space="preserve" style="stroke: none; stroke-width: 1; stroke-dasharray:none; stroke-linecap: butt; stroke-dashoffset: 0; stroke-linejoin: miter; stroke-miterlimit: 4; fill: rgb(106,109,109); fill-rule: nonzero; opacity: 1; white-space: pre;"><path d="M2.89 25.06Q-3.49 25.06-8.78 22.02Q-14.06 18.99-17.18 13.36Q-20.29 7.74-20.29 0.24L-20.29 0.24Q-20.29-7.34-17.29-13.11Q-14.29-18.89-8.74-22.08Q-3.19-25.26 4.24-25.26L4.24-25.26Q10.69-25.26 15.71-22.68Q20.74-20.09 20.74-14.69L20.74-14.69Q20.81-11.31 18.71-8.95Q16.61-6.59 13.09-6.59L13.09-6.59Q11.74-6.59 10.80-7.08Q9.86-7.56 9.41-8.24Q8.96-8.91 9.04-9.29L9.04-9.29Q9.04-9.44 10.09-10.11Q11.14-10.79 11.96-11.99Q12.79-13.19 12.79-14.91L12.79-14.91Q12.79-18.29 10.50-20.28Q8.21-22.26 4.16-22.26L4.16-22.26Q-0.41-22.26-3.98-19.68Q-7.54-17.09-9.53-12.10Q-11.51-7.11-11.51-0.21L-11.51-0.21Q-11.51 5.79-9.38 10.70Q-7.24 15.61-3.34 18.50Q0.56 21.39 5.59 21.39L5.59 21.39Q9.64 21.39 12.52 19.70Q15.41 18.01 17.74 14.26L17.74 14.26Q18.11 13.59 18.79 13.59L18.79 13.59Q19.39 13.59 20.14 14.04L20.14 14.04Q21.34 14.86 21.34 15.69L21.34 15.69Q21.34 16.14 21.04 16.44L21.04 16.44Q18.19 20.04 15.67 21.87Q13.16 23.71 10.24 24.39Q7.31 25.06 2.89 25.06L2.89 25.06Z"/></g></g>
		<g transform="matrix(-0.8130876600051016 0.5821412690639862 -0.5821412690639862 -0.8130876600051016 173.1057992748044 258.6700414059017)" style="" id="bw2nvkls0">
		
<g xml:space="preserve" style="stroke: none; stroke-width: 1; stroke-dasharray:none; stroke-linecap: butt; stroke-dashoffset: 0; stroke-linejoin: miter; stroke-miterlimit: 4; fill: rgb(106,109,109); fill-rule: nonzero; opacity: 1; white-space: pre;"><path d="M-9.08 23.79Q-9.75 23.79-10.09 23.30Q-10.43 22.81-10.43 22.14L-10.43 22.14Q-10.35 21.01-9.98 20.79Q-9.60 20.56-8.55 20.56L-8.55 20.56Q-6.38 20.56-5.33 19.77Q-4.28 18.99-4.01 17.82Q-3.75 16.66-3.68 14.79L-3.68 14.79L-3.68-20.99L-8.85-20.99Q-11.40-20.91-12.79-19.90Q-14.18-18.89-14.89-16.90Q-15.60-14.91-16.13-11.24L-16.13-11.24Q-16.20-10.64-17.03-10.26Q-17.85-9.89-18.75-9.89L-18.75-9.89Q-19.43-9.89-19.99-10.30Q-20.55-10.71-20.55-11.39L-20.55-11.39L-20.33-21.96Q-20.33-23.76-18.30-23.76L-18.30-23.76L18.37-23.76Q20.32-23.76 20.32-21.96L20.32-21.96L20.62-11.39Q20.62-10.71 20.02-10.30Q19.42-9.89 18.75-9.89L18.75-9.89Q17.85-9.89 17.06-10.26Q16.27-10.64 16.20-11.24L16.20-11.24Q15.60-14.99 14.92-16.94Q14.25-18.89 12.82-19.90Q11.40-20.91 8.85-20.99L8.85-20.99L3.75-20.99L3.75 14.79Q3.82 16.66 4.09 17.82Q4.35 18.99 5.40 19.77Q6.45 20.56 8.62 20.56L8.62 20.56L9.07 20.56Q9.75 20.56 10.09 20.82Q10.42 21.09 10.50 22.14L10.50 22.14Q10.50 22.81 10.16 23.30Q9.82 23.79 9.15 23.79L9.15 23.79Q4.35 23.56 0.30 23.56L0.30 23.56Q-4.20 23.56-9.08 23.79L-9.08 23.79Z"/></g></g>
		<g transform="matrix(-0.8846685605952368 0.4662204820622447 -0.4662204820622447 -0.8846685605952368 132.40799719201289 283.848791496093)" style="" id="af49biwi8">
		
<g xml:space="preserve" style="stroke: none; stroke-width: 1; stroke-dasharray:none; stroke-linecap: butt; stroke-dashoffset: 0; stroke-linejoin: miter; stroke-miterlimit: 4; fill: rgb(106,109,109); fill-rule: nonzero; opacity: 1; white-space: pre;"><path d="M-17.77 23.79Q-18.37 23.79-18.71 23.30Q-19.05 22.81-19.05 22.14L-19.05 22.14Q-18.97 21.01-18.60 20.79Q-18.22 20.56-17.17 20.56L-17.17 20.56Q-15.00 20.56-13.95 19.77Q-12.90 18.99-12.64 17.82Q-12.37 16.66-12.30 14.79L-12.30 14.79L-12.30-14.99Q-12.37-16.86-12.64-18.03Q-12.90-19.19-13.95-19.98Q-15.00-20.76-17.17-20.76L-17.17-20.76L-17.62-20.76Q-18.37-20.76-18.67-21.03Q-18.97-21.29-19.05-22.34L-19.05-22.34Q-19.05-23.01-18.71-23.50Q-18.37-23.99-17.77-23.99L-17.77-23.99Q-12.82-23.76-8.85-23.76L-8.85-23.76L14.70-23.76Q16.65-23.76 16.65-21.96L16.65-21.96L16.88-11.46Q16.88-10.79 16.20-10.38Q15.53-9.96 14.85-9.96L14.85-9.96Q13.95-9.96 13.28-10.30Q12.60-10.64 12.53-11.31L12.53-11.31Q11.93-14.99 11.21-16.90Q10.50-18.81 9.11-19.75Q7.73-20.69 5.18-20.76L5.18-20.76L-4.87-20.76L-4.87-1.71L8.70-1.71Q9.23-1.64 9.53-1.15Q9.83-0.66 9.83 0.01L9.83 0.01Q9.83 0.61 9.53 1.06Q9.23 1.51 8.70 1.51L8.70 1.51L-4.87 1.51L-4.87 15.69Q-4.72 17.26-4.50 18.20Q-4.27 19.14-3.15 19.89Q-2.02 20.64 0.38 20.56L0.38 20.56L7.28 20.56Q9.90 20.49 11.25 19.70Q12.60 18.91 13.39 17.26Q14.18 15.61 15.30 11.86L15.30 11.86Q15.83 10.51 17.85 10.81L17.85 10.81Q18.60 10.96 19.16 11.41Q19.73 11.86 19.65 12.54L19.65 12.54L18.15 21.99Q17.93 22.96 17.48 23.26Q17.03 23.56 15.98 23.56L15.98 23.56L-8.77 23.56Q-12.82 23.56-17.77 23.79L-17.77 23.79Z"/></g></g>
		<g transform="matrix(-0.9447408008911125 0.3278182715036175 -0.3278182715036175 -0.9447408008911125 88.09662503291102 303.1528390689963)" style="" id="u5257z8zm">
		
<g xml:space="preserve" style="stroke: none; stroke-width: 1; stroke-dasharray:none; stroke-linecap: butt; stroke-dashoffset: 0; stroke-linejoin: miter; stroke-miterlimit: 4; fill: rgb(106,109,109); fill-rule: nonzero; opacity: 1; white-space: pre;"><path d="M-18.15 23.79Q-18.75 23.79-19.12 23.30Q-19.50 22.81-19.50 22.14L-19.50 22.14Q-19.42 21.01-19.01 20.79Q-18.60 20.56-17.55 20.56L-17.55 20.56Q-15.37 20.56-14.32 19.77Q-13.27 18.99-13.01 17.82Q-12.75 16.66-12.67 14.79L-12.67 14.79L-12.67-14.99Q-12.75-16.86-13.01-18.03Q-13.27-19.19-14.32-19.98Q-15.37-20.76-17.55-20.76L-17.55-20.76L-18.00-20.76Q-18.75-20.76-19.09-21.03Q-19.42-21.29-19.50-22.34L-19.50-22.34Q-19.50-23.01-19.12-23.50Q-18.75-23.99-18.15-23.99L-18.15-23.99Q-13.27-23.76-9.15-23.76L-9.15-23.76L2.10-23.76Q8.63-23.76 14.74-21.06Q20.85-18.36 20.85-10.26L20.85-10.26Q20.85-5.76 18.15-2.24Q15.45 1.29 11.14 3.24Q6.83 5.19 2.18 5.19L2.18 5.19Q-2.10 5.19-5.32 3.99L-5.32 3.99L-5.32 14.79Q-5.25 16.66-4.99 17.82Q-4.72 18.99-3.67 19.77Q-2.62 20.56-0.45 20.56L-0.45 20.56L0.00 20.56Q0.75 20.56 1.09 20.82Q1.43 21.09 1.50 22.14L1.50 22.14Q1.50 22.81 1.16 23.30Q0.83 23.79 0.15 23.79L0.15 23.79Q-4.65 23.56-9.22 23.56L-9.22 23.56Q-13.27 23.56-18.15 23.79L-18.15 23.79ZM0.00 1.81Q2.70 1.81 5.59 0.72Q8.48-0.36 10.50-3.03Q12.53-5.69 12.53-10.04L12.53-10.04Q12.53-16.64 8.33-18.81Q4.13-20.99-0.60-20.99L-0.60-20.99Q-2.55-20.99-3.52-20.58Q-4.50-20.16-4.91-18.96Q-5.32-17.76-5.32-15.21L-5.32-15.21L-5.32 0.99Q-3.52 1.81 0.00 1.81L0.00 1.81Z"/></g></g>
		<g transform="matrix(-0.9762747949563971 0.21653527364576122 -0.21653527364576122 -0.9762747949563971 55.73736969761041 312.3505149161464)" style="" id="6q0ryg5v">
		
<g xml:space="preserve" style="stroke: none; stroke-width: 1; stroke-dasharray:none; stroke-linecap: butt; stroke-dashoffset: 0; stroke-linejoin: miter; stroke-miterlimit: 4; fill: rgb(106,109,109); fill-rule: nonzero; opacity: 1; white-space: pre;"><path style="white-space: pre;" d=""/></g></g>
		<g transform="matrix(-0.9975263173060779 0.07029399890299382 -0.07029399890299382 -0.9975263173060779 16.842361725614396 318.048236689252)" style="" id="sxqm69qc9">
		
<g xml:space="preserve" style="stroke: none; stroke-width: 1; stroke-dasharray:none; stroke-linecap: butt; stroke-dashoffset: 0; stroke-linejoin: miter; stroke-miterlimit: 4; fill: rgb(106,109,109); fill-rule: nonzero; opacity: 1; white-space: pre;"><path d="M19.13 24.31Q15.15 24.31 12.45 22.55Q9.75 20.79 8.14 18.20Q6.53 15.61 4.65 11.41L4.65 11.41Q2.85 7.51 1.46 5.22Q0.08 2.94-2.17 1.40Q-4.42-0.14-7.65-0.14L-7.65-0.14L-9.60-0.14L-9.60 14.79Q-9.52 16.66-9.26 17.82Q-9.00 18.99-7.95 19.77Q-6.90 20.56-4.72 20.56L-4.72 20.56L-4.27 20.56Q-3.52 20.56-3.19 20.82Q-2.85 21.09-2.77 22.14L-2.77 22.14Q-2.77 22.81-3.11 23.30Q-3.45 23.79-4.12 23.79L-4.12 23.79Q-8.92 23.56-13.42 23.56L-13.42 23.56Q-17.55 23.56-22.42 23.79L-22.42 23.79Q-23.10 23.79-23.44 23.30Q-23.77 22.81-23.77 22.14L-23.77 22.14Q-23.70 21.01-23.29 20.79Q-22.87 20.56-21.90 20.56L-21.90 20.56Q-19.72 20.56-18.67 19.77Q-17.62 18.99-17.32 17.86Q-17.02 16.74-16.95 14.79L-16.95 14.79L-16.95-14.99Q-17.02-16.94-17.32-18.06Q-17.62-19.19-18.67-19.98Q-19.72-20.76-21.90-20.76L-21.90-20.76L-22.35-20.76Q-23.02-20.76-23.36-21.03Q-23.70-21.29-23.77-22.34L-23.77-22.34Q-23.77-23.01-23.44-23.50Q-23.10-23.99-22.42-23.99L-22.42-23.99Q-17.62-23.76-13.50-23.76L-13.50-23.76Q-9.00-23.76-4.12-23.99L-4.12-23.99Q-3.45-23.99-3.11-23.50Q-2.77-23.01-2.77-22.34L-2.77-22.34Q-2.85-21.21-3.26-20.99Q-3.67-20.76-4.72-20.76L-4.72-20.76Q-6.90-20.76-7.95-19.98Q-9.00-19.19-9.26-18.03Q-9.52-16.86-9.60-14.99L-9.60-14.99L-9.60-3.14L-6.07-3.14Q-3.67-3.14-1.39-4.64Q0.90-6.14 2.55-9.29L2.55-9.29Q3.08-10.34 4.28-13.26L4.28-13.26Q5.78-16.86 7.01-19.23Q8.25-21.59 10.24-23.39Q12.23-25.19 15.00-25.34L15.00-25.34Q18.38-25.34 20.40-23.24Q22.43-21.14 22.43-18.59L22.43-18.59Q22.43-16.94 21.56-15.66Q20.70-14.39 19.58-13.71Q18.45-13.04 17.70-13.04L17.70-13.04Q17.10-13.04 17.10-13.41L17.10-13.41Q17.10-15.36 16.13-16.90Q15.15-18.44 13.73-18.44L13.73-18.44Q11.18-18.44 9.71-16.41Q8.25-14.39 6.83-10.79L6.83-10.79Q6.23-9.29 5.93-8.69L5.93-8.69Q4.65-5.99 2.85-4.26Q1.05-2.54-0.90-2.16L-0.90-2.16L-0.90-1.94Q3.08-1.94 5.85 0.12Q8.63 2.19 10.35 5.07Q12.08 7.96 14.03 12.31L14.03 12.31Q16.05 16.81 17.51 18.87Q18.98 20.94 21.15 20.94L21.15 20.94Q22.13 20.94 22.76 20.41Q23.40 19.89 24.00 18.99L24.00 18.99Q24.68 17.86 25.20 17.86L25.20 17.86L25.28 17.86Q25.95 17.86 26.29 18.39Q26.63 18.91 26.48 19.59L26.48 19.59Q26.03 21.99 23.81 23.15Q21.60 24.31 19.13 24.31L19.13 24.31Z"/></g></g>
		<g transform="matrix(-0.9849885303663881 -0.1726197991154635 0.1726197991154635 -0.9849885303663881 -45.15421152577518 314.7429578712157)" style="" id="vb8snbd4z">
		
<g xml:space="preserve" style="stroke: none; stroke-width: 1; stroke-dasharray:none; stroke-linecap: butt; stroke-dashoffset: 0; stroke-linejoin: miter; stroke-miterlimit: 4; fill: rgb(106,109,109); fill-rule: nonzero; opacity: 1; white-space: pre;"><path d="M-18.26 24.31Q-22.39 24.31-24.71 22.32Q-27.04 20.34-27.04 17.34L-27.04 17.34Q-27.04 14.86-25.50 13.29Q-23.96 11.71-21.64 11.71L-21.64 11.71Q-20.81 11.71-20.25 11.94Q-19.69 12.16-19.54 12.39L-19.54 12.39Q-19.54 12.61-19.95 13.36Q-20.36 14.11-20.36 15.16L-20.36 15.16Q-20.36 18.09-17.21 18.09L-17.21 18.09Q-14.44 18.09-12.75 14.19Q-11.06 10.29-10.05 3.91Q-9.04-2.46-7.61-14.99L-7.61-14.99Q-7.54-15.59-7.54-16.64L-7.54-16.64Q-7.54-18.96-8.55-19.86Q-9.56-20.76-12.19-20.76L-12.19-20.76L-12.64-20.76Q-13.39-20.76-13.69-21.03Q-13.99-21.29-14.06-22.34L-14.06-22.34Q-14.06-23.01-13.73-23.50Q-13.39-23.99-12.71-23.99L-12.71-23.99Q-7.91-23.76-3.86-23.76L-3.86-23.76L15.04-23.76Q19.09-23.76 23.89-23.99L23.89-23.99Q24.56-23.99 24.90-23.50Q25.24-23.01 25.24-22.34L25.24-22.34Q25.16-21.21 24.79-20.99Q24.41-20.76 23.36-20.76L23.36-20.76Q20.59-20.76 19.57-19.38Q18.56-17.99 18.49-14.99L18.49-14.99L18.49 14.79Q18.56 16.66 18.82 17.82Q19.09 18.99 20.14 19.77Q21.19 20.56 23.36 20.56L23.36 20.56L23.81 20.56Q24.56 20.56 24.86 20.82Q25.16 21.09 25.24 22.14L25.24 22.14Q25.24 22.81 24.90 23.30Q24.56 23.79 23.89 23.79L23.89 23.79Q19.09 23.56 14.96 23.56L14.96 23.56Q10.54 23.56 5.66 23.79L5.66 23.79Q4.99 23.79 4.65 23.30Q4.31 22.81 4.31 22.14L4.31 22.14Q4.39 21.01 4.76 20.79Q5.14 20.56 6.19 20.56L6.19 20.56Q8.36 20.56 9.41 19.77Q10.46 18.99 10.73 17.82Q10.99 16.66 11.06 14.79L11.06 14.79L11.06-20.54L0.56-20.54Q-0.94-20.54-1.69-20.24Q-2.44-19.94-2.93-18.85Q-3.41-17.76-3.64-15.51L-3.64-15.51Q-5.06-1.56-6.41 6.39Q-7.76 14.34-10.57 19.32Q-13.39 24.31-18.26 24.31L-18.26 24.31Z"/></g></g>
		<g transform="matrix(-0.930866725032845 -0.36535891973048334 0.36535891973048334 -0.930866725032845 -100.99622078658906 298.9224367490422)" style="" id="ngikuzpn6">
		
<g xml:space="preserve" style="stroke: none; stroke-width: 1; stroke-dasharray:none; stroke-linecap: butt; stroke-dashoffset: 0; stroke-linejoin: miter; stroke-miterlimit: 4; fill: rgb(106,109,109); fill-rule: nonzero; opacity: 1; white-space: pre;"><path d="M-24.04 23.79Q-24.71 23.79-25.05 23.30Q-25.39 22.81-25.39 22.14L-25.39 22.14Q-25.31 21.01-24.94 20.79Q-24.56 20.56-24.04 20.56Q-23.51 20.56-23.36 20.56L-23.36 20.56Q-21.11 20.56-20.06 19.40Q-19.01 18.24-18.38 16.77Q-17.74 15.31-17.51 14.79L-17.51 14.79L-4.39-16.26Q-3.94-17.39-3.94-18.06L-3.94-18.06Q-3.94-19.41-4.99-20.01Q-6.04-20.61-7.91-20.99L-7.91-20.99Q-9.19-21.21-9.49-21.44Q-9.79-21.66-9.79-22.71L-9.79-22.71Q-9.79-23.61-9.30-23.91Q-8.81-24.21-7.76-24.21L-7.76-24.21Q-4.01-24.21-1.80-23.65Q0.41-23.09 2.06-21.40Q3.71-19.71 5.14-16.26L5.14-16.26L17.74 14.79Q18.86 17.64 19.91 19.06Q20.96 20.49 23.06 20.56L23.06 20.56L23.51 20.56Q24.26 20.56 24.56 20.82Q24.86 21.09 24.94 22.14L24.94 22.14Q24.94 22.81 24.60 23.30Q24.26 23.79 23.59 23.79L23.59 23.79Q18.79 23.56 15.34 23.56L15.34 23.56Q10.84 23.56 6.04 23.79L6.04 23.79Q5.36 23.79 5.02 23.30Q4.69 22.81 4.69 22.14L4.69 22.14Q4.76 21.09 5.06 20.82Q5.36 20.56 6.11 20.56L6.11 20.56Q8.66 20.56 9.71 20.07Q10.76 19.59 10.76 18.31L10.76 18.31Q10.76 17.34 9.86 14.79L9.86 14.79L7.31 8.56L-11.21 8.56Q-13.09 13.21-13.35 13.96Q-13.61 14.71-13.61 14.79L-13.61 14.79Q-14.51 17.64-14.51 18.46L-14.51 18.46Q-14.51 19.74-13.39 20.15Q-12.26 20.56-9.11 20.56L-9.11 20.56L-8.66 20.56Q-7.91 20.56-7.61 20.82Q-7.31 21.09-7.24 22.14L-7.24 22.14Q-7.24 22.81-7.58 23.30Q-7.91 23.79-8.59 23.79L-8.59 23.79Q-13.39 23.56-16.76 23.56L-16.76 23.56Q-19.16 23.56-24.04 23.79L-24.04 23.79ZM-1.84-13.94L-9.79 5.34L5.96 5.34L-1.61-13.94L-1.84-13.94Z"/></g></g>
		<g transform="matrix(-0.8613716466705557 -0.5079752812018075 0.5079752812018075 -0.8613716466705557 -147.73575286636006 276.06739880993445)" style="" id="uchbuzkpc">
		
<g xml:space="preserve" style="stroke: none; stroke-width: 1; stroke-dasharray:none; stroke-linecap: butt; stroke-dashoffset: 0; stroke-linejoin: miter; stroke-miterlimit: 4; fill: rgb(106,109,109); fill-rule: nonzero; opacity: 1; white-space: pre;"><path d="M2.89 25.06Q-3.49 25.06-8.78 22.02Q-14.06 18.99-17.18 13.36Q-20.29 7.74-20.29 0.24L-20.29 0.24Q-20.29-7.34-17.29-13.11Q-14.29-18.89-8.74-22.08Q-3.19-25.26 4.24-25.26L4.24-25.26Q10.69-25.26 15.71-22.68Q20.74-20.09 20.74-14.69L20.74-14.69Q20.81-11.31 18.71-8.95Q16.61-6.59 13.09-6.59L13.09-6.59Q11.74-6.59 10.80-7.08Q9.86-7.56 9.41-8.24Q8.96-8.91 9.04-9.29L9.04-9.29Q9.04-9.44 10.09-10.11Q11.14-10.79 11.96-11.99Q12.79-13.19 12.79-14.91L12.79-14.91Q12.79-18.29 10.50-20.28Q8.21-22.26 4.16-22.26L4.16-22.26Q-0.41-22.26-3.98-19.68Q-7.54-17.09-9.53-12.10Q-11.51-7.11-11.51-0.21L-11.51-0.21Q-11.51 5.79-9.38 10.70Q-7.24 15.61-3.34 18.50Q0.56 21.39 5.59 21.39L5.59 21.39Q9.64 21.39 12.52 19.70Q15.41 18.01 17.74 14.26L17.74 14.26Q18.11 13.59 18.79 13.59L18.79 13.59Q19.39 13.59 20.14 14.04L20.14 14.04Q21.34 14.86 21.34 15.69L21.34 15.69Q21.34 16.14 21.04 16.44L21.04 16.44Q18.19 20.04 15.67 21.87Q13.16 23.71 10.24 24.39Q7.31 25.06 2.89 25.06L2.89 25.06Z"/></g></g>
		<g transform="matrix(-0.7698680485179373 -0.6382030929658543 0.6382030929658543 -0.7698680485179373 -194.30160261638534 243.28657660802682)" style="" id="224uyada9">
		
<g xml:space="preserve" style="stroke: none; stroke-width: 1; stroke-dasharray:none; stroke-linecap: butt; stroke-dashoffset: 0; stroke-linejoin: miter; stroke-miterlimit: 4; fill: rgb(106,109,109); fill-rule: nonzero; opacity: 1; white-space: pre;"><path d="M-24.23 23.79Q-25.58 23.71-25.58 22.14L-25.58 22.14Q-25.50 21.01-25.13 20.79Q-24.75 20.56-23.70 20.56L-23.70 20.56Q-21.53 20.56-20.48 19.77Q-19.43 18.99-19.16 17.82Q-18.90 16.66-18.83 14.79L-18.83 14.79L-18.83-14.99Q-18.90-16.86-19.16-18.03Q-19.43-19.19-20.48-19.98Q-21.53-20.76-23.70-20.76L-23.70-20.76L-24.15-20.76Q-24.90-20.76-25.20-21.03Q-25.50-21.29-25.58-22.34L-25.58-22.34Q-25.58-23.01-25.24-23.50Q-24.90-23.99-24.23-23.99L-24.23-23.99Q-19.43-23.76-15.38-23.76L-15.38-23.76Q-10.88-23.76-6.00-23.99L-6.00-23.99Q-5.33-23.99-4.99-23.50Q-4.65-23.01-4.65-22.34L-4.65-22.34Q-4.73-21.21-5.10-20.99Q-5.48-20.76-6.53-20.76L-6.53-20.76Q-8.70-20.76-9.75-19.98Q-10.80-19.19-11.06-18.03Q-11.33-16.86-11.40-14.99L-11.40-14.99L-11.40 11.56L10.12-15.59Q12.97-19.19 14.62-20.84Q16.27-22.49 17.51-23.09Q18.75-23.69 20.40-23.84L20.40-23.84Q22.20-23.99 24.22-23.99L24.22-23.99Q25.57-23.99 25.57-22.34L25.57-22.34Q25.50-21.21 25.12-20.99Q24.75-20.76 23.70-20.76L23.70-20.76Q21.52-20.76 20.47-19.98Q19.42-19.19 19.16-18.03Q18.90-16.86 18.82-14.99L18.82-14.99L18.82 14.79Q18.90 16.66 19.16 17.82Q19.42 18.99 20.47 19.77Q21.52 20.56 23.70 20.56L23.70 20.56L24.15 20.56Q24.90 20.56 25.20 20.82Q25.50 21.09 25.57 22.14L25.57 22.14Q25.57 22.81 25.24 23.30Q24.90 23.79 24.22 23.79L24.22 23.79Q19.42 23.56 15.37 23.56L15.37 23.56Q10.95 23.56 6.07 23.79L6.07 23.79Q5.40 23.79 5.06 23.30Q4.72 22.81 4.72 22.14L4.72 22.14Q4.80 21.01 5.21 20.79Q5.62 20.56 6.60 20.56L6.60 20.56Q8.77 20.56 9.82 19.77Q10.87 18.99 11.14 17.82Q11.40 16.66 11.47 14.79L11.47 14.79L11.47-11.69L-10.13 15.31Q-12.98 18.84-14.51 20.45Q-16.05 22.06-17.21 22.77Q-18.38 23.49-19.88 23.64L-19.88 23.64Q-22.35 23.86-24.23 23.79L-24.23 23.79Z"/></g></g>
		<g transform="matrix(-0.6962904194373281 -0.7177601631462907 0.7177601631462907 -0.6962904194373281 -223.82883442535814 215.97316115683523)" style="" id="9p62lq0uf">
		
<g xml:space="preserve" style="stroke: none; stroke-width: 1; stroke-dasharray:none; stroke-linecap: butt; stroke-dashoffset: 0; stroke-linejoin: miter; stroke-miterlimit: 4; fill: rgb(106,109,109); fill-rule: nonzero; opacity: 1; white-space: pre;"><path style="white-space: pre;" d=""/></g></g>
		<g transform="matrix(-0.6360996668410658 -0.7716069037046552 0.7716069037046552 -0.6360996668410658 -243.78430876474692 193.67021493834596)" style="" id="m613dtav7">
		
<g xml:space="preserve" style="stroke: none; stroke-width: 1; stroke-dasharray:none; stroke-linecap: butt; stroke-dashoffset: 0; stroke-linejoin: miter; stroke-miterlimit: 4; fill: rgb(106,109,109); fill-rule: nonzero; opacity: 1; white-space: pre;"><path d="M-8.10-3.51Q-8.93-3.89-9.49-4.68Q-10.05-5.46-10.05-6.36L-10.05-6.36Q-10.05-7.41-9.45-8.31L-9.45-8.31Q-8.85-9.36-6.68-10.94L-6.68-10.94Q-4.95-12.21-3.79-13.26Q-2.63-14.31-1.43-15.96L-1.43-15.96Q-1.50-16.04-1.54-16.26Q-1.58-16.49-1.65-16.56L-1.65-16.56Q-3.83-16.34-5.36-15.85Q-6.90-15.36-9.00-14.61L-9.00-14.61Q-11.48-13.56-12.83-13.56L-12.83-13.56Q-14.48-13.56-15.53-14.61Q-16.58-15.66-16.50-17.01L-16.50-17.01Q-16.58-18.44-15.49-19.45Q-14.40-20.46-12.68-20.46L-12.68-20.46Q-11.40-20.46-8.78-19.41L-8.78-19.41Q-4.95-17.91-1.73-17.54L-1.73-17.54L-1.20-17.99Q-2.63-19.64-3.86-20.69Q-5.10-21.74-6.75-22.94L-6.75-22.94Q-7.65-23.61-8.44-24.25Q-9.23-24.89-9.60-25.56L-9.60-25.56Q-10.13-26.61-10.13-27.66L-10.13-27.66Q-10.13-29.54-8.48-30.59L-8.48-30.59Q-7.73-31.04-6.68-31.04L-6.68-31.04Q-5.70-31.04-4.80-30.55Q-3.90-30.06-3.30-29.16L-3.30-29.16Q-2.78-28.34-2.55-27.10Q-2.33-25.86-2.25-25.49L-2.25-25.49Q-1.80-21.74-0.45-18.51L-0.45-18.51Q-0.30-18.59 0.22-18.59L0.22-18.59Q1.12-20.46 1.46-22.00Q1.80-23.54 2.02-25.64L2.02-25.64Q2.17-26.69 2.36-27.59Q2.55-28.49 2.92-29.16L2.92-29.16Q4.05-31.04 6.15-31.04L6.15-31.04Q7.20-31.04 7.95-30.59L7.95-30.59Q8.77-30.21 9.30-29.43Q9.82-28.64 9.82-27.74L9.82-27.74Q9.82-26.69 9.22-25.79L9.22-25.79Q8.55-24.66 6.37-23.09L6.37-23.09Q4.65-21.81 3.49-20.76Q2.32-19.71 1.12-18.06L1.12-18.06Q1.20-17.99 1.24-17.76Q1.27-17.54 1.35-17.46L1.35-17.46Q3.52-17.76 5.06-18.21Q6.60-18.66 8.70-19.49L8.70-19.49Q11.17-20.54 12.37-20.54L12.37-20.54Q14.25-20.54 15.34-19.53Q16.42-18.51 16.35-17.09L16.35-17.09Q16.35-15.66 15.26-14.65Q14.17-13.64 12.37-13.64L12.37-13.64Q11.40-13.64 10.12-14.09Q8.85-14.54 8.62-14.61L8.62-14.61Q4.87-16.11 1.42-16.49L1.42-16.49L0.97-16.04Q2.32-14.46 3.45-13.49Q4.57-12.51 6.45-11.09L6.45-11.09Q7.35-10.49 8.14-9.85Q8.92-9.21 9.30-8.54L9.30-8.54Q9.90-7.41 9.90-6.29L9.90-6.29Q9.90-4.49 8.32-3.51L8.32-3.51Q7.42-3.06 6.45-3.06L6.45-3.06Q4.27-3.06 3.07-4.94L3.07-4.94Q2.40-6.06 2.02-8.69L2.02-8.69Q1.35-12.59 0.15-15.51L0.15-15.51Q-0.00-15.44-0.53-15.44L-0.53-15.44Q-1.43-13.49-1.80-11.88Q-2.18-10.26-2.40-8.39L-2.40-8.39Q-2.63-5.91-3.23-4.94L-3.23-4.94Q-4.28-2.99-6.30-2.99L-6.30-2.99Q-7.20-2.99-8.10-3.51L-8.10-3.51Z"/></g></g>
		<g transform="matrix(-0.5703116151362306 -0.8214284275825278 0.8214284275825278 -0.5703116151362306 -261.8808156073066 169.78394443431216)" style="" id="noqa37n47">
		
<g xml:space="preserve" style="stroke: none; stroke-width: 1; stroke-dasharray:none; stroke-linecap: butt; stroke-dashoffset: 0; stroke-linejoin: miter; stroke-miterlimit: 4; fill: rgb(106,109,109); fill-rule: nonzero; opacity: 1; white-space: pre;"><path style="white-space: pre;" d=""/></g></g>
		<g transform="matrix(-0.4761296423385378 -0.879375098400322 0.879375098400322 -0.4761296423385378 -282.0594676423144 137.02653185796746)" style="" id="ouife28m2">
		
<g xml:space="preserve" style="stroke: none; stroke-width: 1; stroke-dasharray:none; stroke-linecap: butt; stroke-dashoffset: 0; stroke-linejoin: miter; stroke-miterlimit: 4; fill: rgb(106,109,109); fill-rule: nonzero; opacity: 1; white-space: pre;"><path d="M19.13 24.31Q15.15 24.31 12.45 22.55Q9.75 20.79 8.14 18.20Q6.53 15.61 4.65 11.41L4.65 11.41Q2.85 7.51 1.46 5.22Q0.08 2.94-2.17 1.40Q-4.42-0.14-7.65-0.14L-7.65-0.14L-9.60-0.14L-9.60 14.79Q-9.52 16.66-9.26 17.82Q-9.00 18.99-7.95 19.77Q-6.90 20.56-4.72 20.56L-4.72 20.56L-4.27 20.56Q-3.52 20.56-3.19 20.82Q-2.85 21.09-2.77 22.14L-2.77 22.14Q-2.77 22.81-3.11 23.30Q-3.45 23.79-4.12 23.79L-4.12 23.79Q-8.92 23.56-13.42 23.56L-13.42 23.56Q-17.55 23.56-22.42 23.79L-22.42 23.79Q-23.10 23.79-23.44 23.30Q-23.77 22.81-23.77 22.14L-23.77 22.14Q-23.70 21.01-23.29 20.79Q-22.87 20.56-21.90 20.56L-21.90 20.56Q-19.72 20.56-18.67 19.77Q-17.62 18.99-17.32 17.86Q-17.02 16.74-16.95 14.79L-16.95 14.79L-16.95-14.99Q-17.02-16.94-17.32-18.06Q-17.62-19.19-18.67-19.98Q-19.72-20.76-21.90-20.76L-21.90-20.76L-22.35-20.76Q-23.02-20.76-23.36-21.03Q-23.70-21.29-23.77-22.34L-23.77-22.34Q-23.77-23.01-23.44-23.50Q-23.10-23.99-22.42-23.99L-22.42-23.99Q-17.62-23.76-13.50-23.76L-13.50-23.76Q-9.00-23.76-4.12-23.99L-4.12-23.99Q-3.45-23.99-3.11-23.50Q-2.77-23.01-2.77-22.34L-2.77-22.34Q-2.85-21.21-3.26-20.99Q-3.67-20.76-4.72-20.76L-4.72-20.76Q-6.90-20.76-7.95-19.98Q-9.00-19.19-9.26-18.03Q-9.52-16.86-9.60-14.99L-9.60-14.99L-9.60-3.14L-6.07-3.14Q-3.67-3.14-1.39-4.64Q0.90-6.14 2.55-9.29L2.55-9.29Q3.08-10.34 4.28-13.26L4.28-13.26Q5.78-16.86 7.01-19.23Q8.25-21.59 10.24-23.39Q12.23-25.19 15.00-25.34L15.00-25.34Q18.38-25.34 20.40-23.24Q22.43-21.14 22.43-18.59L22.43-18.59Q22.43-16.94 21.56-15.66Q20.70-14.39 19.58-13.71Q18.45-13.04 17.70-13.04L17.70-13.04Q17.10-13.04 17.10-13.41L17.10-13.41Q17.10-15.36 16.13-16.90Q15.15-18.44 13.73-18.44L13.73-18.44Q11.18-18.44 9.71-16.41Q8.25-14.39 6.83-10.79L6.83-10.79Q6.23-9.29 5.93-8.69L5.93-8.69Q4.65-5.99 2.85-4.26Q1.05-2.54-0.90-2.16L-0.90-2.16L-0.90-1.94Q3.08-1.94 5.85 0.12Q8.63 2.19 10.35 5.07Q12.08 7.96 14.03 12.31L14.03 12.31Q16.05 16.81 17.51 18.87Q18.98 20.94 21.15 20.94L21.15 20.94Q22.13 20.94 22.76 20.41Q23.40 19.89 24.00 18.99L24.00 18.99Q24.68 17.86 25.20 17.86L25.20 17.86L25.28 17.86Q25.95 17.86 26.29 18.39Q26.63 18.91 26.48 19.59L26.48 19.59Q26.03 21.99 23.81 23.15Q21.60 24.31 19.13 24.31L19.13 24.31Z"/></g></g>
		<g transform="matrix(-0.32110153501915123 -0.9470447741307403 0.9470447741307403 -0.32110153501915123 -303.7643940919711 87.51574998539748)" style="" id="pq17j6kp4">
		
<g xml:space="preserve" style="stroke: none; stroke-width: 1; stroke-dasharray:none; stroke-linecap: butt; stroke-dashoffset: 0; stroke-linejoin: miter; stroke-miterlimit: 4; fill: rgb(106,109,109); fill-rule: nonzero; opacity: 1; white-space: pre;"><path d="M-18.15 23.79Q-18.75 23.79-19.12 23.30Q-19.50 22.81-19.50 22.14L-19.50 22.14Q-19.42 21.01-19.01 20.79Q-18.60 20.56-17.55 20.56L-17.55 20.56Q-15.37 20.56-14.32 19.77Q-13.27 18.99-13.01 17.82Q-12.75 16.66-12.67 14.79L-12.67 14.79L-12.67-14.99Q-12.75-16.86-13.01-18.03Q-13.27-19.19-14.32-19.98Q-15.37-20.76-17.55-20.76L-17.55-20.76L-18.00-20.76Q-18.75-20.76-19.09-21.03Q-19.42-21.29-19.50-22.34L-19.50-22.34Q-19.50-23.01-19.12-23.50Q-18.75-23.99-18.15-23.99L-18.15-23.99Q-13.27-23.76-9.15-23.76L-9.15-23.76L2.10-23.76Q8.63-23.76 14.74-21.06Q20.85-18.36 20.85-10.26L20.85-10.26Q20.85-5.76 18.15-2.24Q15.45 1.29 11.14 3.24Q6.83 5.19 2.18 5.19L2.18 5.19Q-2.10 5.19-5.32 3.99L-5.32 3.99L-5.32 14.79Q-5.25 16.66-4.99 17.82Q-4.72 18.99-3.67 19.77Q-2.62 20.56-0.45 20.56L-0.45 20.56L0.00 20.56Q0.75 20.56 1.09 20.82Q1.43 21.09 1.50 22.14L1.50 22.14Q1.50 22.81 1.16 23.30Q0.83 23.79 0.15 23.79L0.15 23.79Q-4.65 23.56-9.22 23.56L-9.22 23.56Q-13.27 23.56-18.15 23.79L-18.15 23.79ZM0.00 1.81Q2.70 1.81 5.59 0.72Q8.48-0.36 10.50-3.03Q12.53-5.69 12.53-10.04L12.53-10.04Q12.53-16.64 8.33-18.81Q4.13-20.99-0.60-20.99L-0.60-20.99Q-2.55-20.99-3.52-20.58Q-4.50-20.16-4.91-18.96Q-5.32-17.76-5.32-15.21L-5.32-15.21L-5.32 0.99Q-3.52 1.81 0.00 1.81L0.00 1.81Z"/></g></g>
		<g transform="matrix(-0.14613480168031617 -0.9892646863897724 0.9892646863897724 -0.14613480168031617 -315.8594704205102 37.77417469521478)" style="" id="sf5nxzxvh">
		
<g xml:space="preserve" style="stroke: none; stroke-width: 1; stroke-dasharray:none; stroke-linecap: butt; stroke-dashoffset: 0; stroke-linejoin: miter; stroke-miterlimit: 4; fill: rgb(106,109,109); fill-rule: nonzero; opacity: 1; white-space: pre;"><path d="M-24.04 23.79Q-24.71 23.79-25.05 23.30Q-25.39 22.81-25.39 22.14L-25.39 22.14Q-25.31 21.01-24.94 20.79Q-24.56 20.56-24.04 20.56Q-23.51 20.56-23.36 20.56L-23.36 20.56Q-21.11 20.56-20.06 19.40Q-19.01 18.24-18.38 16.77Q-17.74 15.31-17.51 14.79L-17.51 14.79L-4.39-16.26Q-3.94-17.39-3.94-18.06L-3.94-18.06Q-3.94-19.41-4.99-20.01Q-6.04-20.61-7.91-20.99L-7.91-20.99Q-9.19-21.21-9.49-21.44Q-9.79-21.66-9.79-22.71L-9.79-22.71Q-9.79-23.61-9.30-23.91Q-8.81-24.21-7.76-24.21L-7.76-24.21Q-4.01-24.21-1.80-23.65Q0.41-23.09 2.06-21.40Q3.71-19.71 5.14-16.26L5.14-16.26L17.74 14.79Q18.86 17.64 19.91 19.06Q20.96 20.49 23.06 20.56L23.06 20.56L23.51 20.56Q24.26 20.56 24.56 20.82Q24.86 21.09 24.94 22.14L24.94 22.14Q24.94 22.81 24.60 23.30Q24.26 23.79 23.59 23.79L23.59 23.79Q18.79 23.56 15.34 23.56L15.34 23.56Q10.84 23.56 6.04 23.79L6.04 23.79Q5.36 23.79 5.02 23.30Q4.69 22.81 4.69 22.14L4.69 22.14Q4.76 21.09 5.06 20.82Q5.36 20.56 6.11 20.56L6.11 20.56Q8.66 20.56 9.71 20.07Q10.76 19.59 10.76 18.31L10.76 18.31Q10.76 17.34 9.86 14.79L9.86 14.79L7.31 8.56L-11.21 8.56Q-13.09 13.21-13.35 13.96Q-13.61 14.71-13.61 14.79L-13.61 14.79Q-14.51 17.64-14.51 18.46L-14.51 18.46Q-14.51 19.74-13.39 20.15Q-12.26 20.56-9.11 20.56L-9.11 20.56L-8.66 20.56Q-7.91 20.56-7.61 20.82Q-7.31 21.09-7.24 22.14L-7.24 22.14Q-7.24 22.81-7.58 23.30Q-7.91 23.79-8.59 23.79L-8.59 23.79Q-13.39 23.56-16.76 23.56L-16.76 23.56Q-19.16 23.56-24.04 23.79L-24.04 23.79ZM-1.84-13.94L-9.79 5.34L5.96 5.34L-1.61-13.94L-1.84-13.94Z"/></g></g>
		<g transform="matrix(0.08891498203676733 -0.9960392190920001 0.9960392190920001 0.08891498203676733 -317.65258099115925 -22.64874501430675)" style="" id="zlcucwdas">
		
<g xml:space="preserve" style="stroke: none; stroke-width: 1; stroke-dasharray:none; stroke-linecap: butt; stroke-dashoffset: 0; stroke-linejoin: miter; stroke-miterlimit: 4; fill: rgb(106,109,109); fill-rule: nonzero; opacity: 1; white-space: pre;"><path d="M-9.11 23.79Q-9.79 23.79-10.13 23.30Q-10.46 22.81-10.46 22.14L-10.46 22.14Q-10.39 21.09-10.09 20.82Q-9.79 20.56-9.04 20.56L-9.04 20.56Q-6.64 20.56-5.55 20.04Q-4.46 19.51-4.20 18.80Q-3.94 18.09-3.79 16.44L-3.79 16.44Q-13.01 16.21-19.73 12.27Q-26.44 8.34-26.44-0.89L-26.44-0.89Q-26.44-9.74-19.73-13.53Q-13.01-17.31-3.79-17.61L-3.79-17.61Q-3.94-19.26-4.16-19.98Q-4.39-20.69-5.40-21.21Q-6.41-21.74-8.59-21.74L-8.59-21.74L-9.04-21.74Q-9.79-21.74-10.09-22.00Q-10.39-22.26-10.46-23.31L-10.46-23.31Q-10.46-23.99-10.13-24.48Q-9.79-24.96-9.11-24.96L-9.11-24.96Q-4.24-24.74-0.26-24.74L-0.26-24.74Q4.24-24.74 9.11-24.96L9.11-24.96Q9.79-24.96 10.12-24.48Q10.46-23.99 10.46-23.31L10.46-23.31Q10.39-22.26 10.09-22.00Q9.79-21.74 9.04-21.74L9.04-21.74Q6.64-21.74 5.55-21.21Q4.46-20.69 4.20-19.98Q3.94-19.26 3.79-17.61L3.79-17.61Q13.01-17.31 19.72-13.53Q26.44-9.74 26.44-0.89L26.44-0.89Q26.44 8.34 19.72 12.27Q13.01 16.21 3.79 16.44L3.79 16.44Q3.94 18.09 4.16 18.80Q4.39 19.51 5.40 20.04Q6.41 20.56 8.59 20.56L8.59 20.56L9.04 20.56Q9.79 20.56 10.09 20.82Q10.39 21.09 10.46 22.14L10.46 22.14Q10.46 22.81 10.12 23.30Q9.79 23.79 9.11 23.79L9.11 23.79Q4.31 23.56-0.26 23.56L-0.26 23.56Q-4.24 23.56-9.11 23.79L-9.11 23.79ZM-3.71 14.04L-3.71-15.21Q-10.31-14.99-14.25-11.76Q-18.19-8.54-18.19-0.89L-18.19-0.89Q-18.19 6.91-14.10 10.32Q-10.01 13.74-3.71 14.04L-3.71 14.04ZM3.71 14.04Q10.01 13.74 14.10 10.32Q18.19 6.91 18.19-0.89L18.19-0.89Q18.19-8.54 14.25-11.76Q10.31-14.99 3.71-15.21L3.71-15.21L3.71 14.04Z"/></g></g>
		<g transform="matrix(0.2940675003280683 -0.9557846542243715 0.9557846542243715 0.2940675003280683 -306.37638262329693 -79.4376598470416)" style="" id="gv0w6zom6">
		
<g xml:space="preserve" style="stroke: none; stroke-width: 1; stroke-dasharray:none; stroke-linecap: butt; stroke-dashoffset: 0; stroke-linejoin: miter; stroke-miterlimit: 4; fill: rgb(106,109,109); fill-rule: nonzero; opacity: 1; white-space: pre;"><path d="M-9.08 23.79Q-9.75 23.79-10.09 23.30Q-10.43 22.81-10.43 22.14L-10.43 22.14Q-10.35 21.01-9.98 20.79Q-9.60 20.56-8.55 20.56L-8.55 20.56Q-6.38 20.56-5.33 19.77Q-4.28 18.99-4.01 17.82Q-3.75 16.66-3.68 14.79L-3.68 14.79L-3.68-20.99L-8.85-20.99Q-11.40-20.91-12.79-19.90Q-14.18-18.89-14.89-16.90Q-15.60-14.91-16.13-11.24L-16.13-11.24Q-16.20-10.64-17.03-10.26Q-17.85-9.89-18.75-9.89L-18.75-9.89Q-19.43-9.89-19.99-10.30Q-20.55-10.71-20.55-11.39L-20.55-11.39L-20.33-21.96Q-20.33-23.76-18.30-23.76L-18.30-23.76L18.37-23.76Q20.32-23.76 20.32-21.96L20.32-21.96L20.62-11.39Q20.62-10.71 20.02-10.30Q19.42-9.89 18.75-9.89L18.75-9.89Q17.85-9.89 17.06-10.26Q16.27-10.64 16.20-11.24L16.20-11.24Q15.60-14.99 14.92-16.94Q14.25-18.89 12.82-19.90Q11.40-20.91 8.85-20.99L8.85-20.99L3.75-20.99L3.75 14.79Q3.82 16.66 4.09 17.82Q4.35 18.99 5.40 19.77Q6.45 20.56 8.62 20.56L8.62 20.56L9.07 20.56Q9.75 20.56 10.09 20.82Q10.42 21.09 10.50 22.14L10.50 22.14Q10.50 22.81 10.16 23.30Q9.82 23.79 9.15 23.79L9.15 23.79Q4.35 23.56 0.30 23.56L0.30 23.56Q-4.20 23.56-9.08 23.79L-9.08 23.79Z"/></g></g>
		<g transform="matrix(0.39589271290296046 -0.9182967711313887 0.9182967711313887 0.39589271290296046 -294.8404851929176 -110.70705351214316)" style="" id="qkm2r5uug">
		
<g xml:space="preserve" style="stroke: none; stroke-width: 1; stroke-dasharray:none; stroke-linecap: butt; stroke-dashoffset: 0; stroke-linejoin: miter; stroke-miterlimit: 4; fill: rgb(106,109,109); fill-rule: nonzero; opacity: 1; white-space: pre;"><path style="white-space: pre;" d=""/></g></g>
		<g transform="matrix(0.48839171086401384 -0.8726245107486504 0.8726245107486504 0.48839171086401384 -279.77228213850964 -141.18098224884622)" style="" id="txb086fml">
		
<g xml:space="preserve" style="stroke: none; stroke-width: 1; stroke-dasharray:none; stroke-linecap: butt; stroke-dashoffset: 0; stroke-linejoin: miter; stroke-miterlimit: 4; fill: rgb(106,109,109); fill-rule: nonzero; opacity: 1; white-space: pre;"><path d="M-18.79 23.79Q-19.46 23.79-19.80 23.30Q-20.14 22.81-20.14 22.14L-20.14 22.14Q-20.06 21.01-19.69 20.79Q-19.31 20.56-18.26 20.56L-18.26 20.56Q-16.09 20.56-15.04 19.77Q-13.99 18.99-13.72 17.82Q-13.46 16.66-13.39 14.79L-13.39 14.79L-13.39-14.99Q-13.46-16.86-13.72-18.03Q-13.99-19.19-15.04-19.98Q-16.09-20.76-18.26-20.76L-18.26-20.76L-18.71-20.76Q-19.46-20.76-19.76-21.03Q-20.06-21.29-20.14-22.34L-20.14-22.34Q-20.14-23.01-19.80-23.50Q-19.46-23.99-18.79-23.99L-18.79-23.99Q-13.91-23.76-9.94-23.76L-9.94-23.76L0.64-23.76Q4.76-23.76 7.31-23.16Q9.86-22.56 11.89-21.29L11.89-21.29Q13.84-20.01 14.96-17.80Q16.09-15.59 16.09-12.96L16.09-12.96Q16.09-8.31 13.05-5.58Q10.01-2.84 5.96-1.86L5.96-1.86L5.96-1.64Q9.86-1.64 13.05-0.10Q16.24 1.44 18.00 4.02Q19.76 6.61 19.76 9.61L19.76 9.61Q19.76 14.71 16.65 17.86Q13.54 21.01 8.85 22.32Q4.16 23.64-0.86 23.64L-0.86 23.64L-9.86 23.56Q-13.91 23.56-18.79 23.79L-18.79 23.79ZM-5.96-3.14L-2.81-3.14Q0.19-3.14 2.40-3.59Q4.61-4.04 6.34-5.99Q8.06-7.94 8.06-12.06L8.06-12.06Q8.06-20.99-0.71-20.99L-0.71-20.99L-5.96-20.99L-5.96-3.14ZM-0.56 20.64Q4.99 20.56 8.33 17.90Q11.66 15.24 11.66 9.16L11.66 9.16Q11.29 5.11 7.88 2.49Q4.46-0.14-2.89-0.14L-2.89-0.14L-5.96-0.14L-5.96 14.79Q-5.96 17.34-5.47 18.57Q-4.99 19.81-3.90 20.22Q-2.81 20.64-0.56 20.64L-0.56 20.64Z"/></g></g>
		<g transform="matrix(0.620403560092294 -0.7842827440565088 0.7842827440565088 0.620403560092294 -248.43467558236273 -187.91191680582068)" style="" id="ed4t70j9m">
		
<g xml:space="preserve" style="stroke: none; stroke-width: 1; stroke-dasharray:none; stroke-linecap: butt; stroke-dashoffset: 0; stroke-linejoin: miter; stroke-miterlimit: 4; fill: rgb(106,109,109); fill-rule: nonzero; opacity: 1; white-space: pre;"><path d="M-24.23 23.79Q-25.58 23.71-25.58 22.14L-25.58 22.14Q-25.50 21.01-25.13 20.79Q-24.75 20.56-23.70 20.56L-23.70 20.56Q-21.53 20.56-20.48 19.77Q-19.43 18.99-19.16 17.82Q-18.90 16.66-18.83 14.79L-18.83 14.79L-18.83-14.99Q-18.90-16.86-19.16-18.03Q-19.43-19.19-20.48-19.98Q-21.53-20.76-23.70-20.76L-23.70-20.76L-24.15-20.76Q-24.90-20.76-25.20-21.03Q-25.50-21.29-25.58-22.34L-25.58-22.34Q-25.58-23.01-25.24-23.50Q-24.90-23.99-24.23-23.99L-24.23-23.99Q-19.43-23.76-15.38-23.76L-15.38-23.76Q-10.88-23.76-6.00-23.99L-6.00-23.99Q-5.33-23.99-4.99-23.50Q-4.65-23.01-4.65-22.34L-4.65-22.34Q-4.73-21.21-5.10-20.99Q-5.48-20.76-6.53-20.76L-6.53-20.76Q-8.70-20.76-9.75-19.98Q-10.80-19.19-11.06-18.03Q-11.33-16.86-11.40-14.99L-11.40-14.99L-11.40 11.56L10.12-15.59Q12.97-19.19 14.62-20.84Q16.27-22.49 17.51-23.09Q18.75-23.69 20.40-23.84L20.40-23.84Q22.20-23.99 24.22-23.99L24.22-23.99Q25.57-23.99 25.57-22.34L25.57-22.34Q25.50-21.21 25.12-20.99Q24.75-20.76 23.70-20.76L23.70-20.76Q21.52-20.76 20.47-19.98Q19.42-19.19 19.16-18.03Q18.90-16.86 18.82-14.99L18.82-14.99L18.82 14.79Q18.90 16.66 19.16 17.82Q19.42 18.99 20.47 19.77Q21.52 20.56 23.70 20.56L23.70 20.56L24.15 20.56Q24.90 20.56 25.20 20.82Q25.50 21.09 25.57 22.14L25.57 22.14Q25.57 22.81 25.24 23.30Q24.90 23.79 24.22 23.79L24.22 23.79Q19.42 23.56 15.37 23.56L15.37 23.56Q10.95 23.56 6.07 23.79L6.07 23.79Q5.40 23.79 5.06 23.30Q4.72 22.81 4.72 22.14L4.72 22.14Q4.80 21.01 5.21 20.79Q5.62 20.56 6.60 20.56L6.60 20.56Q8.77 20.56 9.82 19.77Q10.87 18.99 11.14 17.82Q11.40 16.66 11.47 14.79L11.47 14.79L11.47-11.69L-10.13 15.31Q-12.98 18.84-14.51 20.45Q-16.05 22.06-17.21 22.77Q-18.38 23.49-19.88 23.64L-19.88 23.64Q-22.35 23.86-24.23 23.79L-24.23 23.79Z"/></g></g>
		<g transform="matrix(0.7304213673804499 -0.6829967979969407 0.6829967979969407 0.7304213673804499 -210.88833405937453 -228.67835999727174)" style="" id="3up62nhe5">
		
<g xml:space="preserve" style="stroke: none; stroke-width: 1; stroke-dasharray:none; stroke-linecap: butt; stroke-dashoffset: 0; stroke-linejoin: miter; stroke-miterlimit: 4; fill: rgb(106,109,109); fill-rule: nonzero; opacity: 1; white-space: pre;"><path d="M-18.15 23.79Q-18.75 23.79-19.12 23.30Q-19.50 22.81-19.50 22.14L-19.50 22.14Q-19.42 21.01-19.01 20.79Q-18.60 20.56-17.55 20.56L-17.55 20.56Q-15.37 20.56-14.32 19.77Q-13.27 18.99-13.01 17.82Q-12.75 16.66-12.67 14.79L-12.67 14.79L-12.67-14.99Q-12.75-16.86-13.01-18.03Q-13.27-19.19-14.32-19.98Q-15.37-20.76-17.55-20.76L-17.55-20.76L-18.00-20.76Q-18.75-20.76-19.09-21.03Q-19.42-21.29-19.50-22.34L-19.50-22.34Q-19.50-23.01-19.12-23.50Q-18.75-23.99-18.15-23.99L-18.15-23.99Q-13.27-23.76-9.15-23.76L-9.15-23.76L2.10-23.76Q8.63-23.76 14.74-21.06Q20.85-18.36 20.85-10.26L20.85-10.26Q20.85-5.76 18.15-2.24Q15.45 1.29 11.14 3.24Q6.83 5.19 2.18 5.19L2.18 5.19Q-2.10 5.19-5.32 3.99L-5.32 3.99L-5.32 14.79Q-5.25 16.66-4.99 17.82Q-4.72 18.99-3.67 19.77Q-2.62 20.56-0.45 20.56L-0.45 20.56L0.00 20.56Q0.75 20.56 1.09 20.82Q1.43 21.09 1.50 22.14L1.50 22.14Q1.50 22.81 1.16 23.30Q0.83 23.79 0.15 23.79L0.15 23.79Q-4.65 23.56-9.22 23.56L-9.22 23.56Q-13.27 23.56-18.15 23.79L-18.15 23.79ZM0.00 1.81Q2.70 1.81 5.59 0.72Q8.48-0.36 10.50-3.03Q12.53-5.69 12.53-10.04L12.53-10.04Q12.53-16.64 8.33-18.81Q4.13-20.99-0.60-20.99L-0.60-20.99Q-2.55-20.99-3.52-20.58Q-4.50-20.16-4.91-18.96Q-5.32-17.76-5.32-15.21L-5.32-15.21L-5.32 0.99Q-3.52 1.81 0.00 1.81L0.00 1.81Z"/></g></g>
		<g transform="matrix(0.8221662577258959 -0.5692474371106081 0.5692474371106081 0.8221662577258959 -169.25321076998176 -262.292551339066)" style="" id="npzgvhbqx">
		
<g xml:space="preserve" style="stroke: none; stroke-width: 1; stroke-dasharray:none; stroke-linecap: butt; stroke-dashoffset: 0; stroke-linejoin: miter; stroke-miterlimit: 4; fill: rgb(106,109,109); fill-rule: nonzero; opacity: 1; white-space: pre;"><path d="M-0.11 25.06Q-7.24 25.06-12.68 21.65Q-18.11 18.24-21.07 12.61Q-24.04 6.99-24.04 0.54L-24.04 0.54Q-24.04-7.34-20.48-13.19Q-16.91-19.04-11.36-22.15Q-5.81-25.26-0.11-25.26L-0.11-25.26Q7.09-25.26 12.60-21.85Q18.11-18.44 21.07-12.85Q24.04-7.26 24.04-0.81L24.04-0.81Q24.04 7.06 20.44 12.95Q16.84 18.84 11.21 21.95Q5.59 25.06-0.11 25.06L-0.11 25.06ZM-0.19 21.76Q4.91 21.76 8.32 18.72Q11.74 15.69 13.42 10.55Q15.11 5.41 15.11-0.81L15.11-0.81Q15.11-6.59 13.39-11.43Q11.66-16.26 8.21-19.15Q4.76-22.04-0.19-22.04L-0.19-22.04Q-7.69-22.04-11.48-15.70Q-15.26-9.36-15.26 0.31L-15.26 0.31Q-15.26 6.16-13.58 11.04Q-11.89 15.91-8.51 18.84Q-5.14 21.76-0.19 21.76L-0.19 21.76Z"/></g></g>
		<g transform="matrix(0.9031699752865489 -0.4292831183972819 0.4292831183972819 0.9031699752865489 -121.345290273161 -290.098963849895)" style="" id="vqcjvogn9">
		
<g xml:space="preserve" style="stroke: none; stroke-width: 1; stroke-dasharray:none; stroke-linecap: butt; stroke-dashoffset: 0; stroke-linejoin: miter; stroke-miterlimit: 4; fill: rgb(106,109,109); fill-rule: nonzero; opacity: 1; white-space: pre;"><path d="M-19.01 23.79Q-19.69 23.79-20.02 23.30Q-20.36 22.81-20.36 22.14L-20.36 22.14Q-20.29 21.01-19.91 20.79Q-19.54 20.56-18.49 20.56L-18.49 20.56Q-16.31 20.56-15.26 19.77Q-14.21 18.99-13.95 17.82Q-13.69 16.66-13.61 14.79L-13.61 14.79L-13.61-14.99Q-13.69-16.86-13.95-18.03Q-14.21-19.19-15.26-19.98Q-16.31-20.76-18.49-20.76L-18.49-20.76L-18.94-20.76Q-19.69-20.76-19.99-21.03Q-20.29-21.29-20.36-22.34L-20.36-22.34Q-20.36-23.01-20.02-23.50Q-19.69-23.99-19.01-23.99L-19.01-23.99Q-14.21-23.76-10.16-23.76L-10.16-23.76L13.91-23.76Q15.86-23.76 15.86-21.96L15.86-21.96L16.09-11.39Q16.09-10.71 15.52-10.30Q14.96-9.89 14.29-9.89L14.29-9.89Q13.39-9.89 12.60-10.26Q11.81-10.64 11.74-11.24L11.74-11.24Q11.14-14.91 10.42-16.86Q9.71-18.81 8.32-19.75Q6.94-20.69 4.39-20.76L4.39-20.76L-6.19-20.76L-6.19-4.04Q-2.06-4.71 1.54-4.71L1.54-4.71Q7.46-4.71 11.63-2.91Q15.79-1.11 17.89 2.04Q19.99 5.19 19.99 9.16L19.99 9.16Q19.99 14.41 16.84 17.67Q13.69 20.94 8.96 22.29Q4.24 23.64-0.86 23.64L-0.86 23.64L-10.09 23.56Q-14.14 23.56-19.01 23.79L-19.01 23.79ZM-0.64 20.56Q11.66 20.41 11.66 9.24L11.66 9.24Q11.66 3.76 7.84 1.17Q4.01-1.41-1.46-1.41L-1.46-1.41Q-4.39-1.41-6.19-0.96L-6.19-0.96L-6.19 14.34Q-6.19 18.01-5.03 19.29Q-3.86 20.56-0.64 20.56L-0.64 20.56Z"/></g></g>
		<g transform="matrix(0.9679003908333885 -0.2513341071652907 0.2513341071652907 0.9679003908333885 -67.03254810995399 -309.98511880976287)" style="" id="iyuea22uo">
		
<g xml:space="preserve" style="stroke: none; stroke-width: 1; stroke-dasharray:none; stroke-linecap: butt; stroke-dashoffset: 0; stroke-linejoin: miter; stroke-miterlimit: 4; fill: rgb(106,109,109); fill-rule: nonzero; opacity: 1; white-space: pre;"><path d="M-24.23 23.79Q-25.58 23.71-25.58 22.14L-25.58 22.14Q-25.50 21.01-25.13 20.79Q-24.75 20.56-23.70 20.56L-23.70 20.56Q-21.53 20.56-20.48 19.77Q-19.43 18.99-19.16 17.82Q-18.90 16.66-18.83 14.79L-18.83 14.79L-18.83-14.99Q-18.90-16.86-19.16-18.03Q-19.43-19.19-20.48-19.98Q-21.53-20.76-23.70-20.76L-23.70-20.76L-24.15-20.76Q-24.90-20.76-25.20-21.03Q-25.50-21.29-25.58-22.34L-25.58-22.34Q-25.58-23.01-25.24-23.50Q-24.90-23.99-24.23-23.99L-24.23-23.99Q-19.43-23.76-15.38-23.76L-15.38-23.76Q-10.88-23.76-6.00-23.99L-6.00-23.99Q-5.33-23.99-4.99-23.50Q-4.65-23.01-4.65-22.34L-4.65-22.34Q-4.73-21.21-5.10-20.99Q-5.48-20.76-6.53-20.76L-6.53-20.76Q-8.70-20.76-9.75-19.98Q-10.80-19.19-11.06-18.03Q-11.33-16.86-11.40-14.99L-11.40-14.99L-11.40 11.56L10.12-15.59Q12.97-19.19 14.62-20.84Q16.27-22.49 17.51-23.09Q18.75-23.69 20.40-23.84L20.40-23.84Q22.20-23.99 24.22-23.99L24.22-23.99Q25.57-23.99 25.57-22.34L25.57-22.34Q25.50-21.21 25.12-20.99Q24.75-20.76 23.70-20.76L23.70-20.76Q21.52-20.76 20.47-19.98Q19.42-19.19 19.16-18.03Q18.90-16.86 18.82-14.99L18.82-14.99L18.82 14.79Q18.90 16.66 19.16 17.82Q19.42 18.99 20.47 19.77Q21.52 20.56 23.70 20.56L23.70 20.56L24.15 20.56Q24.90 20.56 25.20 20.82Q25.50 21.09 25.57 22.14L25.57 22.14Q25.57 22.81 25.24 23.30Q24.90 23.79 24.22 23.79L24.22 23.79Q19.42 23.56 15.37 23.56L15.37 23.56Q10.95 23.56 6.07 23.79L6.07 23.79Q5.40 23.79 5.06 23.30Q4.72 22.81 4.72 22.14L4.72 22.14Q4.80 21.01 5.21 20.79Q5.62 20.56 6.60 20.56L6.60 20.56Q8.77 20.56 9.82 19.77Q10.87 18.99 11.14 17.82Q11.40 16.66 11.47 14.79L11.47 14.79L11.47-11.69L-10.13 15.31Q-12.98 18.84-14.51 20.45Q-16.05 22.06-17.21 22.77Q-18.38 23.49-19.88 23.64L-19.88 23.64Q-22.35 23.86-24.23 23.79L-24.23 23.79Z"/></g></g>
		<g transform="matrix(0.998564459583745 -0.05356323418375183 0.05356323418375183 0.998564459583745 -14.061960862844307 -318.3102619256504)" style="" id="9qvkbnub3">
		
<g xml:space="preserve" style="stroke: none; stroke-width: 1; stroke-dasharray:none; stroke-linecap: butt; stroke-dashoffset: 0; stroke-linejoin: miter; stroke-miterlimit: 4; fill: rgb(106,109,109); fill-rule: nonzero; opacity: 1; white-space: pre;"><path d="M-8.10-3.51Q-8.93-3.89-9.49-4.68Q-10.05-5.46-10.05-6.36L-10.05-6.36Q-10.05-7.41-9.45-8.31L-9.45-8.31Q-8.85-9.36-6.68-10.94L-6.68-10.94Q-4.95-12.21-3.79-13.26Q-2.63-14.31-1.43-15.96L-1.43-15.96Q-1.50-16.04-1.54-16.26Q-1.58-16.49-1.65-16.56L-1.65-16.56Q-3.83-16.34-5.36-15.85Q-6.90-15.36-9.00-14.61L-9.00-14.61Q-11.48-13.56-12.83-13.56L-12.83-13.56Q-14.48-13.56-15.53-14.61Q-16.58-15.66-16.50-17.01L-16.50-17.01Q-16.58-18.44-15.49-19.45Q-14.40-20.46-12.68-20.46L-12.68-20.46Q-11.40-20.46-8.78-19.41L-8.78-19.41Q-4.95-17.91-1.73-17.54L-1.73-17.54L-1.20-17.99Q-2.63-19.64-3.86-20.69Q-5.10-21.74-6.75-22.94L-6.75-22.94Q-7.65-23.61-8.44-24.25Q-9.23-24.89-9.60-25.56L-9.60-25.56Q-10.13-26.61-10.13-27.66L-10.13-27.66Q-10.13-29.54-8.48-30.59L-8.48-30.59Q-7.73-31.04-6.68-31.04L-6.68-31.04Q-5.70-31.04-4.80-30.55Q-3.90-30.06-3.30-29.16L-3.30-29.16Q-2.78-28.34-2.55-27.10Q-2.33-25.86-2.25-25.49L-2.25-25.49Q-1.80-21.74-0.45-18.51L-0.45-18.51Q-0.30-18.59 0.22-18.59L0.22-18.59Q1.12-20.46 1.46-22.00Q1.80-23.54 2.02-25.64L2.02-25.64Q2.17-26.69 2.36-27.59Q2.55-28.49 2.92-29.16L2.92-29.16Q4.05-31.04 6.15-31.04L6.15-31.04Q7.20-31.04 7.95-30.59L7.95-30.59Q8.77-30.21 9.30-29.43Q9.82-28.64 9.82-27.74L9.82-27.74Q9.82-26.69 9.22-25.79L9.22-25.79Q8.55-24.66 6.37-23.09L6.37-23.09Q4.65-21.81 3.49-20.76Q2.32-19.71 1.12-18.06L1.12-18.06Q1.20-17.99 1.24-17.76Q1.27-17.54 1.35-17.46L1.35-17.46Q3.52-17.76 5.06-18.21Q6.60-18.66 8.70-19.49L8.70-19.49Q11.17-20.54 12.37-20.54L12.37-20.54Q14.25-20.54 15.34-19.53Q16.42-18.51 16.35-17.09L16.35-17.09Q16.35-15.66 15.26-14.65Q14.17-13.64 12.37-13.64L12.37-13.64Q11.40-13.64 10.12-14.09Q8.85-14.54 8.62-14.61L8.62-14.61Q4.87-16.11 1.42-16.49L1.42-16.49L0.97-16.04Q2.32-14.46 3.45-13.49Q4.57-12.51 6.45-11.09L6.45-11.09Q7.35-10.49 8.14-9.85Q8.92-9.21 9.30-8.54L9.30-8.54Q9.90-7.41 9.90-6.29L9.90-6.29Q9.90-4.49 8.32-3.51L8.32-3.51Q7.42-3.06 6.45-3.06L6.45-3.06Q4.27-3.06 3.07-4.94L3.07-4.94Q2.40-6.06 2.02-8.69L2.02-8.69Q1.35-12.59 0.15-15.51L0.15-15.51Q-0.00-15.44-0.53-15.44L-0.53-15.44Q-1.43-13.49-1.80-11.88Q-2.18-10.26-2.40-8.39L-2.40-8.39Q-2.63-5.91-3.23-4.94L-3.23-4.94Q-4.28-2.99-6.30-2.99L-6.30-2.99Q-7.20-2.99-8.10-3.51L-8.10-3.51Z"/></g></g>
</g>
</g>
</svg>