<svg xmlns="http://www.w3.org/2000/svg" xmlns:xlink="http://www.w3.org/1999/xlink" version="1.1" width="1000" height="1000" viewBox="0 0 1000 1000" xml:space="preserve">
<desc>Created with Fabric.js 3.6.3</desc>
<defs>
</defs>
<g transform="matrix(1 0 0 1 500 500)" id="uid6tfdw8pyt">
<g style="">
		<g transform="matrix(1 0 0 1 0 0)" id="uidry161l80t">
<path style="stroke: rgb(191,7,185); stroke-width: 0; stroke-dasharray:none; stroke-linecap: butt; stroke-dashoffset: 0; stroke-linejoin: miter; stroke-miterlimit: 4; fill: rgb(255,255,255); fill-opacity: 0; fill-rule: nonzero; opacity: 1;" transform=" translate(-500, -499.9999999279804)" d="M 500 181.48815 c 159.25596 0.50799 318.51185 159.50992 318.51185 318.51185 c 0 159.00194 -159.25596 318.00386 -318.51185 318.51185 c -159.25596 0.50799 -318.51185 -157.47796 -318.51185 -318.51185 c 0 -161.03391 159.25596 -319.01987 318.51185 -318.51185 z" stroke-linecap="round"/>
</g>
		<g transform="matrix(0.9966546134370459 0.0817287067966498 -0.0817287067966498 0.9966546134370459 21.092042303012143 -339.97874994060317)" style="" id="e1n9oo6au">
		
<g xml:space="preserve" style="stroke: none; stroke-width: 1; stroke-dasharray:none; stroke-linecap: butt; stroke-dashoffset: 0; stroke-linejoin: miter; stroke-miterlimit: 4; fill: rgb(106,109,109); fill-rule: nonzero; opacity: 1; white-space: pre;"><path d="M-7.92-3.44Q-8.73-3.80-9.28-4.57Q-9.83-5.34-9.83-6.22L-9.83-6.22Q-9.83-7.25-9.24-8.13L-9.24-8.13Q-8.65-9.16-6.53-10.70L-6.53-10.70Q-4.84-11.94-3.70-12.97Q-2.57-14.00-1.39-15.61L-1.39-15.61Q-1.47-15.68-1.50-15.90Q-1.54-16.12-1.61-16.20L-1.61-16.20Q-3.74-15.98-5.24-15.50Q-6.75-15.02-8.80-14.29L-8.80-14.29Q-11.22-13.26-12.54-13.26L-12.54-13.26Q-14.15-13.26-15.18-14.29Q-16.21-15.32-16.13-16.64L-16.13-16.64Q-16.21-18.03-15.14-19.02Q-14.08-20.01-12.39-20.01L-12.39-20.01Q-11.15-20.01-8.58-18.98L-8.58-18.98Q-4.84-17.52-1.69-17.15L-1.69-17.15L-1.17-17.59Q-2.57-19.20-3.78-20.23Q-4.99-21.26-6.60-22.43L-6.60-22.43Q-7.48-23.09-8.25-23.71Q-9.02-24.34-9.39-25.00L-9.39-25.00Q-9.90-26.02-9.90-27.05L-9.90-27.05Q-9.90-28.88-8.29-29.91L-8.29-29.91Q-7.55-30.35-6.53-30.35L-6.53-30.35Q-5.57-30.35-4.69-29.87Q-3.81-29.40-3.23-28.52L-3.23-28.52Q-2.71-27.71-2.49-26.50Q-2.27-25.29-2.20-24.92L-2.20-24.92Q-1.76-21.26-0.44-18.10L-0.44-18.10Q-0.29-18.18 0.22-18.18L0.22-18.18Q1.10-20.01 1.43-21.51Q1.76-23.02 1.98-25.07L1.98-25.07Q2.13-26.10 2.31-26.98Q2.49-27.86 2.86-28.52L2.86-28.52Q3.96-30.35 6.01-30.35L6.01-30.35Q7.04-30.35 7.77-29.91L7.77-29.91Q8.58-29.54 9.09-28.77Q9.61-28.00 9.61-27.12L9.61-27.12Q9.61-26.10 9.02-25.22L9.02-25.22Q8.36-24.12 6.23-22.58L6.23-22.58Q4.55-21.33 3.41-20.30Q2.27-19.28 1.10-17.66L1.10-17.66Q1.17-17.59 1.21-17.37Q1.25-17.15 1.32-17.08L1.32-17.08Q3.45-17.37 4.95-17.81Q6.45-18.25 8.51-19.06L8.51-19.06Q10.93-20.08 12.10-20.08L12.10-20.08Q13.93-20.08 15.00-19.09Q16.06-18.10 15.99-16.71L15.99-16.71Q15.99-15.32 14.92-14.33Q13.86-13.34 12.10-13.34L12.10-13.34Q11.15-13.34 9.90-13.78Q8.65-14.22 8.43-14.29L8.43-14.29Q4.77-15.76 1.39-16.12L1.39-16.12L0.95-15.68Q2.27-14.14 3.37-13.19Q4.47-12.24 6.31-10.84L6.31-10.84Q7.19-10.26 7.96-9.63Q8.73-9.01 9.09-8.35L9.09-8.35Q9.68-7.25 9.68-6.15L9.68-6.15Q9.68-4.39 8.14-3.44L8.14-3.44Q7.26-3.00 6.31-3.00L6.31-3.00Q4.18-3.00 3.01-4.83L3.01-4.83Q2.35-5.93 1.98-8.50L1.98-8.50Q1.32-12.31 0.15-15.17L0.15-15.17Q-0.00-15.10-0.51-15.10L-0.51-15.10Q-1.39-13.19-1.76-11.61Q-2.13-10.04-2.35-8.20L-2.35-8.20Q-2.57-5.78-3.15-4.83L-3.15-4.83Q-4.18-2.92-6.16-2.92L-6.16-2.92Q-7.04-2.92-7.92-3.44L-7.92-3.44Z"/></g></g>
		<g transform="matrix(0.9824763228166585 0.1863874327970022 -0.1863874327970022 0.9824763228166585 50.63265372608993 -335.959330205607)" style="" id="2ufet7ons">
		
<g xml:space="preserve" style="stroke: none; stroke-width: 1; stroke-dasharray:none; stroke-linecap: butt; stroke-dashoffset: 0; stroke-linejoin: miter; stroke-miterlimit: 4; fill: rgb(106,109,109); fill-rule: nonzero; opacity: 1; white-space: pre;"><path style="white-space: pre;" d=""/></g></g>
		<g transform="matrix(0.9570395310466836 0.2899574727678939 -0.2899574727678939 0.9570395310466836 82.02227916357006 -328.2276290960116)" style="" id="wf3hfqtcm">
		
<g xml:space="preserve" style="stroke: none; stroke-width: 1; stroke-dasharray:none; stroke-linecap: butt; stroke-dashoffset: 0; stroke-linejoin: miter; stroke-miterlimit: 4; fill: rgb(106,109,109); fill-rule: nonzero; opacity: 1; white-space: pre;"><path d="M-17.38 23.26Q-17.97 23.26-18.30 22.78Q-18.63 22.30-18.63 21.64L-18.63 21.64Q-18.55 20.54-18.19 20.32Q-17.82 20.10-16.79 20.10L-16.79 20.10Q-14.67 20.10-13.64 19.33Q-12.61 18.56-12.36 17.43Q-12.10 16.29-12.03 14.46L-12.03 14.46L-12.03-14.66Q-12.10-16.49-12.36-17.63Q-12.61-18.76-13.64-19.53Q-14.67-20.30-16.79-20.30L-16.79-20.30L-17.23-20.30Q-17.97-20.30-18.26-20.56Q-18.55-20.82-18.63-21.84L-18.63-21.84Q-18.63-22.50-18.30-22.98Q-17.97-23.46-17.38-23.46L-17.38-23.46Q-12.54-23.24-8.65-23.24L-8.65-23.24L14.37-23.24Q16.28-23.24 16.28-21.48L16.28-21.48L16.50-11.21Q16.50-10.55 15.84-10.15Q15.18-9.74 14.52-9.74L14.52-9.74Q13.64-9.74 12.98-10.07Q12.32-10.40 12.25-11.06L12.25-11.06Q11.66-14.66 10.96-16.53Q10.27-18.40 8.91-19.31Q7.55-20.23 5.06-20.30L5.06-20.30L-4.77-20.30L-4.77-1.68L8.51-1.68Q9.02-1.60 9.31-1.13Q9.61-0.65 9.61 0.01L9.61 0.01Q9.61 0.60 9.31 1.04Q9.02 1.48 8.51 1.48L8.51 1.48L-4.77 1.48L-4.77 15.34Q-4.62 16.88-4.40 17.79Q-4.18 18.71-3.08 19.44Q-1.98 20.18 0.37 20.10L0.37 20.10L7.11 20.10Q9.68 20.03 11.00 19.26Q12.32 18.49 13.09 16.88Q13.86 15.26 14.96 11.60L14.96 11.60Q15.47 10.28 17.45 10.57L17.45 10.57Q18.19 10.72 18.74 11.16Q19.29 11.60 19.21 12.26L19.21 12.26L17.75 21.50Q17.53 22.45 17.09 22.74Q16.65 23.04 15.62 23.04L15.62 23.04L-8.58 23.04Q-12.54 23.04-17.38 23.26L-17.38 23.26Z"/></g></g>
		<g transform="matrix(0.9065958685194658 0.42199991846377805 -0.42199991846377805 0.9065958685194658 125.81833666205418 -311.4350904120797)" style="" id="5xdig6eit">
		
<g xml:space="preserve" style="stroke: none; stroke-width: 1; stroke-dasharray:none; stroke-linecap: butt; stroke-dashoffset: 0; stroke-linejoin: miter; stroke-miterlimit: 4; fill: rgb(106,109,109); fill-rule: nonzero; opacity: 1; white-space: pre;"><path d="M-8.87 23.26Q-9.53 23.26-9.86 22.78Q-10.19 22.30-10.19 21.64L-10.19 21.64Q-10.12 20.54-9.75 20.32Q-9.39 20.10-8.36 20.10L-8.36 20.10Q-6.23 20.10-5.21 19.33Q-4.18 18.56-3.92 17.43Q-3.67 16.29-3.59 14.46L-3.59 14.46L-3.59-20.52L-8.65-20.52Q-11.15-20.45-12.50-19.46Q-13.86-18.47-14.56-16.53Q-15.25-14.58-15.77-10.99L-15.77-10.99Q-15.84-10.40-16.65-10.04Q-17.45-9.67-18.33-9.67L-18.33-9.67Q-18.99-9.67-19.54-10.07Q-20.09-10.48-20.09-11.14L-20.09-11.14L-19.87-21.48Q-19.87-23.24-17.89-23.24L-17.89-23.24L17.97-23.24Q19.87-23.24 19.87-21.48L19.87-21.48L20.17-11.14Q20.17-10.48 19.58-10.07Q18.99-9.67 18.33-9.67L18.33-9.67Q17.45-9.67 16.68-10.04Q15.91-10.40 15.84-10.99L15.84-10.99Q15.25-14.66 14.59-16.56Q13.93-18.47 12.54-19.46Q11.15-20.45 8.65-20.52L8.65-20.52L3.67-20.52L3.67 14.46Q3.74 16.29 4.00 17.43Q4.25 18.56 5.28 19.33Q6.31 20.10 8.43 20.10L8.43 20.10L8.87 20.10Q9.53 20.10 9.86 20.36Q10.19 20.62 10.27 21.64L10.27 21.64Q10.27 22.30 9.94 22.78Q9.61 23.26 8.95 23.26L8.95 23.26Q4.25 23.04 0.29 23.04L0.29 23.04Q-4.11 23.04-8.87 23.26L-8.87 23.26Z"/></g></g>
		<g transform="matrix(0.835128250523089 0.5500552746572336 -0.5500552746572336 0.835128250523089 172.70230789078298 -285.2006268881785)" style="" id="aejxsv2nq">
		
<g xml:space="preserve" style="stroke: none; stroke-width: 1; stroke-dasharray:none; stroke-linecap: butt; stroke-dashoffset: 0; stroke-linejoin: miter; stroke-miterlimit: 4; fill: rgb(106,109,109); fill-rule: nonzero; opacity: 1; white-space: pre;"><path d="M-24.02 23.26Q-24.68 23.26-25.01 22.78Q-25.34 22.30-25.34 21.64L-25.34 21.64Q-25.26 20.54-24.90 20.32Q-24.53 20.10-23.50 20.10L-23.50 20.10Q-21.38 20.10-20.35 19.33Q-19.32 18.56-19.07 17.43Q-18.81 16.29-18.74 14.46L-18.74 14.46L-18.74-14.66Q-18.81-16.49-19.07-17.63Q-19.32-18.76-20.35-19.53Q-21.38-20.30-23.50-20.30L-23.50-20.30L-23.94-20.30Q-24.68-20.30-24.97-20.56Q-25.26-20.82-25.34-21.84L-25.34-21.84Q-25.34-22.50-25.01-22.98Q-24.68-23.46-24.02-23.46L-24.02-23.46Q-19.25-23.24-15.36-23.24L-15.36-23.24Q-10.96-23.24-6.20-23.46L-6.20-23.46Q-5.54-23.46-5.21-22.98Q-4.88-22.50-4.88-21.84L-4.88-21.84Q-4.95-20.74-5.32-20.52Q-5.68-20.30-6.71-20.30L-6.71-20.30Q-8.84-20.30-9.86-19.53Q-10.89-18.76-11.15-17.63Q-11.40-16.49-11.48-14.66L-11.48-14.66L-11.48-1.68L11.55-1.68L11.55-14.66Q11.48-16.49 11.22-17.63Q10.96-18.76 9.94-19.53Q8.91-20.30 6.78-20.30L6.78-20.30L6.34-20.30Q5.61-20.30 5.28-20.56Q4.95-20.82 4.88-21.84L4.88-21.84Q4.88-22.50 5.24-22.98Q5.61-23.46 6.20-23.46L6.20-23.46Q10.96-23.24 15.36-23.24L15.36-23.24Q19.40-23.24 24.09-23.46L24.09-23.46Q24.75-23.46 25.08-22.98Q25.41-22.50 25.41-21.84L25.41-21.84Q25.34-20.74 24.93-20.52Q24.53-20.30 23.58-20.30L23.58-20.30Q21.45-20.30 20.39-19.53Q19.32-18.76 19.07-17.63Q18.81-16.49 18.74-14.66L18.74-14.66L18.74 14.46Q18.81 16.29 19.07 17.43Q19.32 18.56 20.39 19.33Q21.45 20.10 23.58 20.10L23.58 20.10L24.02 20.10Q24.68 20.10 25.01 20.36Q25.34 20.62 25.41 21.64L25.41 21.64Q25.41 22.30 25.08 22.78Q24.75 23.26 24.09 23.26L24.09 23.26Q19.40 23.04 15.29 23.04L15.29 23.04Q10.96 23.04 6.20 23.26L6.20 23.26Q5.61 23.26 5.24 22.78Q4.88 22.30 4.88 21.64L4.88 21.64Q4.95 20.54 5.35 20.32Q5.76 20.10 6.78 20.10L6.78 20.10Q8.91 20.10 9.94 19.33Q10.96 18.56 11.22 17.43Q11.48 16.29 11.55 14.46L11.55 14.46L11.55 1.48L-11.48 1.48L-11.48 14.46Q-11.40 16.29-11.15 17.43Q-10.89 18.56-9.86 19.33Q-8.84 20.10-6.71 20.10L-6.71 20.10L-6.27 20.10Q-5.54 20.10-5.24 20.36Q-4.95 20.62-4.88 21.64L-4.88 21.64Q-4.88 22.30-5.21 22.78Q-5.54 23.26-6.20 23.26L-6.20 23.26Q-10.89 23.04-15.29 23.04L-15.29 23.04Q-19.25 23.04-24.02 23.26L-24.02 23.26Z"/></g></g>
		<g transform="matrix(0.744024160118844 0.6681527139505226 -0.6681527139505226 0.744024160118844 219.17716702878593 -249.3024390279786)" style="" id="m4hok33cw">
		
<g xml:space="preserve" style="stroke: none; stroke-width: 1; stroke-dasharray:none; stroke-linecap: butt; stroke-dashoffset: 0; stroke-linejoin: miter; stroke-miterlimit: 4; fill: rgb(106,109,109); fill-rule: nonzero; opacity: 1; white-space: pre;"><path d="M-0.11 24.50Q-7.08 24.50-12.39 21.17Q-17.71 17.83-20.61 12.33Q-23.50 6.83-23.50 0.52L-23.50 0.52Q-23.50-7.18-20.02-12.90Q-16.54-18.62-11.11-21.66Q-5.68-24.70-0.11-24.70L-0.11-24.70Q6.93-24.70 12.32-21.37Q17.71-18.03 20.61-12.57Q23.50-7.10 23.50-0.80L23.50-0.80Q23.50 6.90 19.98 12.66Q16.46 18.42 10.96 21.46Q5.46 24.50-0.11 24.50L-0.11 24.50ZM-0.18 21.28Q4.80 21.28 8.14 18.31Q11.48 15.34 13.13 10.31Q14.78 5.29 14.78-0.80L14.78-0.80Q14.78-6.44 13.09-11.17Q11.40-15.90 8.03-18.73Q4.66-21.55-0.18-21.55L-0.18-21.55Q-7.52-21.55-11.22-15.35Q-14.92-9.16-14.92 0.30L-14.92 0.30Q-14.92 6.02-13.27 10.79Q-11.62 15.56-8.32 18.42Q-5.02 21.28-0.18 21.28L-0.18 21.28Z"/></g></g>
		<g transform="matrix(0.6792376238220188 0.7339184221591781 -0.7339184221591781 0.6792376238220188 245.66295142196643 -223.21062657778887)" style="" id="ukjjctpg7">
		
<g xml:space="preserve" style="stroke: none; stroke-width: 1; stroke-dasharray:none; stroke-linecap: butt; stroke-dashoffset: 0; stroke-linejoin: miter; stroke-miterlimit: 4; fill: rgb(106,109,109); fill-rule: nonzero; opacity: 1; white-space: pre;"><path style="white-space: pre;" d=""/></g></g>
		<g transform="matrix(0.6077915450116136 0.7940966174291361 -0.7940966174291361 0.6077915450116136 269.6350518707053 -194.7603394490607)" style="" id="sblxefu0t">
		
<g xml:space="preserve" style="stroke: none; stroke-width: 1; stroke-dasharray:none; stroke-linecap: butt; stroke-dashoffset: 0; stroke-linejoin: miter; stroke-miterlimit: 4; fill: rgb(106,109,109); fill-rule: nonzero; opacity: 1; white-space: pre;"><path d="M-0.11 24.50Q-7.08 24.50-12.39 21.17Q-17.71 17.83-20.61 12.33Q-23.50 6.83-23.50 0.52L-23.50 0.52Q-23.50-7.18-20.02-12.90Q-16.54-18.62-11.11-21.66Q-5.68-24.70-0.11-24.70L-0.11-24.70Q6.93-24.70 12.32-21.37Q17.71-18.03 20.61-12.57Q23.50-7.10 23.50-0.80L23.50-0.80Q23.50 6.90 19.98 12.66Q16.46 18.42 10.96 21.46Q5.46 24.50-0.11 24.50L-0.11 24.50ZM-0.18 21.28Q4.80 21.28 8.14 18.31Q11.48 15.34 13.13 10.31Q14.78 5.29 14.78-0.80L14.78-0.80Q14.78-6.44 13.09-11.17Q11.40-15.90 8.03-18.73Q4.66-21.55-0.18-21.55L-0.18-21.55Q-7.52-21.55-11.22-15.35Q-14.92-9.16-14.92 0.30L-14.92 0.30Q-14.92 6.02-13.27 10.79Q-11.62 15.56-8.32 18.42Q-5.02 21.28-0.18 21.28L-0.18 21.28Z"/></g></g>
		<g transform="matrix(0.4824107176628514 0.875945146389894 -0.875945146389894 0.4824107176628514 300.7281207235049 -147.23169250186245)" style="" id="vvr7nppny">
		
<g xml:space="preserve" style="stroke: none; stroke-width: 1; stroke-dasharray:none; stroke-linecap: butt; stroke-dashoffset: 0; stroke-linejoin: miter; stroke-miterlimit: 4; fill: rgb(106,109,109); fill-rule: nonzero; opacity: 1; white-space: pre;"><path d="M-22.81 36.16Q-23.76 36.16-24.46 35.65Q-25.15 35.14-25.15 34.33L-25.15 34.33L-25.15 22.23Q-25.15 19.88-22.73 19.88L-22.73 19.88L-20.09 19.88Q-15.55 14.31-13.05 4.34Q-10.56-5.64-10.49-14.66L-10.49-14.66Q-10.56-16.49-10.82-17.63Q-11.07-18.76-12.10-19.53Q-13.13-20.30-15.25-20.30L-15.25-20.30L-15.69-20.30Q-16.43-20.30-16.72-20.56Q-17.01-20.82-17.09-21.84L-17.09-21.84Q-17.09-22.50-16.76-22.98Q-16.43-23.46-15.84-23.46L-15.84-23.46Q-11.00-23.24-7.11-23.24L-7.11-23.24L11.22-23.24Q15.25-23.24 19.95-23.46L19.95-23.46Q20.61-23.46 20.94-22.98Q21.27-22.50 21.27-21.84L21.27-21.84Q21.19-20.74 20.79-20.52Q20.39-20.30 19.43-20.30L19.43-20.30Q17.31-20.30 16.28-19.53Q15.25-18.76 15.00-17.63Q14.74-16.49 14.67-14.66L14.67-14.66L14.67 12.92Q14.67 15.78 15.00 17.13Q15.33 18.49 16.57 19.19Q17.82 19.88 20.61 19.88L20.61 19.88Q23.03 19.88 23.03 22.23L23.03 22.23L23.03 34.33Q23.03 35.14 22.37 35.65Q21.71 36.16 20.90 36.16L20.90 36.16Q18.48 36.16 18.19 34.55L18.19 34.55Q17.45 29.78 16.68 27.51Q15.91 25.24 14.30 24.14Q12.69 23.04 9.46 23.04L9.46 23.04L-11.59 23.04Q-14.81 23.04-16.43 24.14Q-18.04 25.24-18.81 27.51Q-19.58 29.78-20.31 34.55L-20.31 34.55Q-20.61 36.16-22.81 36.16L-22.81 36.16ZM-15.91 19.88L3.23 19.88Q4.77 19.88 5.61 19.59Q6.45 19.30 6.93 18.23Q7.41 17.17 7.41 14.97L7.41 14.97L7.41-20.08L-2.79-20.08Q-4.33-20.08-5.17-19.79Q-6.01-19.50-6.49-18.43Q-6.97-17.37-6.97-15.17L-6.97-15.17Q-7.41-3.51-9.39 5.22Q-11.37 13.94-15.91 19.88L-15.91 19.88Z"/></g></g>
		<g transform="matrix(0.3306641256919743 0.9437485025049641 -0.9437485025049641 0.3306641256919743 324.08446602431076 -95.18993844826777)" style="" id="9ddd51sf9">
		
<g xml:space="preserve" style="stroke: none; stroke-width: 1; stroke-dasharray:none; stroke-linecap: butt; stroke-dashoffset: 0; stroke-linejoin: miter; stroke-miterlimit: 4; fill: rgb(106,109,109); fill-rule: nonzero; opacity: 1; white-space: pre;"><path d="M-18.04 23.77Q-20.46 23.77-22.59 22.63Q-24.71 21.50-25.23 19.15L-25.23 19.15L-25.23 18.86Q-25.23 18.27-24.93 17.87Q-24.64 17.46-24.13 17.46L-24.13 17.46Q-23.76 17.46-23.47 17.76Q-23.17 18.05-22.73 18.64L-22.73 18.64Q-22.07 19.52-21.52 19.99Q-20.97 20.47-19.95 20.47L-19.95 20.47Q-17.82 20.47-16.28 18.60Q-14.74 16.73-12.61 12.77L-12.61 12.77L-10.63 9.32Q-8.87 6.39-6.82 4.34Q-4.77 2.28-2.05 1.26L-2.05 1.26L-2.05 1.04Q-8.14 0.89-12.91-2.78L-12.91-2.78Q-16.57-5.93-16.57-10.84L-16.57-10.84Q-16.57-17.74-11.37-20.52Q-6.16-23.31 0.07-23.31L0.07-23.31L1.61-23.24L12.98-23.24Q17.09-23.24 21.78-23.46L21.78-23.46Q22.44-23.46 22.77-22.98Q23.10-22.50 23.10-21.84L23.10-21.84Q23.03-20.74 22.62-20.52Q22.22-20.30 21.19-20.30L21.19-20.30Q19.07-20.30 18.04-19.53Q17.01-18.76 16.76-17.63Q16.50-16.49 16.43-14.66L16.43-14.66L16.43 14.46Q16.50 16.29 16.76 17.43Q17.01 18.56 18.04 19.33Q19.07 20.10 21.19 20.10L21.19 20.10L21.63 20.10Q22.37 20.10 22.70 20.36Q23.03 20.62 23.10 21.64L23.10 21.64Q23.10 22.30 22.77 22.78Q22.44 23.26 21.78 23.26L21.78 23.26Q17.09 23.04 13.05 23.04L13.05 23.04Q8.65 23.04 3.89 23.26L3.89 23.26Q3.23 23.26 2.90 22.78Q2.57 22.30 2.57 21.64L2.57 21.64Q2.64 20.54 3.04 20.32Q3.45 20.10 4.40 20.10L4.40 20.10Q6.53 20.10 7.55 19.33Q8.58 18.56 8.87 17.46Q9.17 16.36 9.24 14.46L9.24 14.46L9.24 2.14L7.48 2.14Q4.69 2.14 2.75 3.38Q0.81 4.63-0.48 6.54Q-1.76 8.44-3.30 11.52L-3.30 11.52Q-5.35 15.63-6.86 18.01Q-8.36 20.40-11.11 22.08Q-13.86 23.77-18.04 23.77L-18.04 23.77ZM5.50-0.58L9.24-0.58L9.24-14.66Q9.24-17.30 8.80-18.47Q8.36-19.64 7.26-19.97Q6.16-20.30 3.89-20.30L3.89-20.30Q-1.98-20.30-5.17-17.70Q-8.36-15.10-8.36-10.33L-8.36-10.33Q-8.36-4.10-4.14-2.34Q0.07-0.58 5.50-0.58L5.50-0.58Z"/></g></g>
		<g transform="matrix(0.16753704596965593 0.9858657810410915 -0.9858657810410915 0.16753704596965593 336.96663966215544 -45.641863925538765)" style="" id="6uzolpodp">
		
<g xml:space="preserve" style="stroke: none; stroke-width: 1; stroke-dasharray:none; stroke-linecap: butt; stroke-dashoffset: 0; stroke-linejoin: miter; stroke-miterlimit: 4; fill: rgb(106,109,109); fill-rule: nonzero; opacity: 1; white-space: pre;"><path d="M-15.66 23.26Q-16.24 23.26-16.57 22.78Q-16.90 22.30-16.90 21.64L-16.90 21.64Q-16.83 20.54-16.46 20.32Q-16.10 20.10-15.07 20.10L-15.07 20.10Q-12.94 20.10-11.92 19.33Q-10.89 18.56-10.63 17.43Q-10.38 16.29-10.30 14.46L-10.30 14.46L-10.30-14.66Q-10.38-16.49-10.63-17.63Q-10.89-18.76-11.92-19.53Q-12.94-20.30-15.07-20.30L-15.07-20.30L-15.51-20.30Q-16.24-20.30-16.54-20.56Q-16.83-20.82-16.90-21.84L-16.90-21.84Q-16.90-22.50-16.57-22.98Q-16.24-23.46-15.66-23.46L-15.66-23.46Q-10.96-23.24-6.93-23.24L-6.93-23.24L15.73-23.24Q17.64-23.24 17.64-21.48L17.64-21.48L17.86-11.14Q17.86-10.48 17.31-10.07Q16.76-9.67 16.10-9.67L16.10-9.67Q15.22-9.67 14.45-10.04Q13.68-10.40 13.60-10.99L13.60-10.99Q13.02-14.58 12.32-16.49Q11.62-18.40 10.27-19.31Q8.91-20.23 6.42-20.30L6.42-20.30L-3.04-20.30L-3.04 14.46Q-2.97 16.29-2.71 17.43Q-2.46 18.56-1.43 19.33Q-0.40 20.10 1.72 20.10L1.72 20.10L2.16 20.10Q2.82 20.10 3.15 20.36Q3.48 20.62 3.56 21.64L3.56 21.64Q3.56 22.30 3.23 22.78Q2.90 23.26 2.24 23.26L2.24 23.26Q-2.53 23.04-6.86 23.04L-6.86 23.04Q-10.89 23.04-15.66 23.26L-15.66 23.26Z"/></g></g>
		<g transform="matrix(0.05493244641085503 0.9984900732262282 -0.9984900732262282 0.05493244641085503 340.4781435417685 -14.500282814326106)" style="" id="ic8220hve">
		
<g xml:space="preserve" style="stroke: none; stroke-width: 1; stroke-dasharray:none; stroke-linecap: butt; stroke-dashoffset: 0; stroke-linejoin: miter; stroke-miterlimit: 4; fill: rgb(106,109,109); fill-rule: nonzero; opacity: 1; white-space: pre;"><path style="white-space: pre;" d=""/></g></g>
		<g transform="matrix(-0.05861866694233337 0.9982804475125734 -0.9982804475125734 -0.05861866694233337 340.4219807164803 15.487880786977524)" style="" id="bytenhaq4">
		
<g xml:space="preserve" style="stroke: none; stroke-width: 1; stroke-dasharray:none; stroke-linecap: butt; stroke-dashoffset: 0; stroke-linejoin: miter; stroke-miterlimit: 4; fill: rgb(106,109,109); fill-rule: nonzero; opacity: 1; white-space: pre;"><path d="M-7.92-3.44Q-8.73-3.80-9.28-4.57Q-9.83-5.34-9.83-6.22L-9.83-6.22Q-9.83-7.25-9.24-8.13L-9.24-8.13Q-8.65-9.16-6.53-10.70L-6.53-10.70Q-4.84-11.94-3.70-12.97Q-2.57-14.00-1.39-15.61L-1.39-15.61Q-1.47-15.68-1.50-15.90Q-1.54-16.12-1.61-16.20L-1.61-16.20Q-3.74-15.98-5.24-15.50Q-6.75-15.02-8.80-14.29L-8.80-14.29Q-11.22-13.26-12.54-13.26L-12.54-13.26Q-14.15-13.26-15.18-14.29Q-16.21-15.32-16.13-16.64L-16.13-16.64Q-16.21-18.03-15.14-19.02Q-14.08-20.01-12.39-20.01L-12.39-20.01Q-11.15-20.01-8.58-18.98L-8.58-18.98Q-4.84-17.52-1.69-17.15L-1.69-17.15L-1.17-17.59Q-2.57-19.20-3.78-20.23Q-4.99-21.26-6.60-22.43L-6.60-22.43Q-7.48-23.09-8.25-23.71Q-9.02-24.34-9.39-25.00L-9.39-25.00Q-9.90-26.02-9.90-27.05L-9.90-27.05Q-9.90-28.88-8.29-29.91L-8.29-29.91Q-7.55-30.35-6.53-30.35L-6.53-30.35Q-5.57-30.35-4.69-29.87Q-3.81-29.40-3.23-28.52L-3.23-28.52Q-2.71-27.71-2.49-26.50Q-2.27-25.29-2.20-24.92L-2.20-24.92Q-1.76-21.26-0.44-18.10L-0.44-18.10Q-0.29-18.18 0.22-18.18L0.22-18.18Q1.10-20.01 1.43-21.51Q1.76-23.02 1.98-25.07L1.98-25.07Q2.13-26.10 2.31-26.98Q2.49-27.86 2.86-28.52L2.86-28.52Q3.96-30.35 6.01-30.35L6.01-30.35Q7.04-30.35 7.77-29.91L7.77-29.91Q8.58-29.54 9.09-28.77Q9.61-28.00 9.61-27.12L9.61-27.12Q9.61-26.10 9.02-25.22L9.02-25.22Q8.36-24.12 6.23-22.58L6.23-22.58Q4.55-21.33 3.41-20.30Q2.27-19.28 1.10-17.66L1.10-17.66Q1.17-17.59 1.21-17.37Q1.25-17.15 1.32-17.08L1.32-17.08Q3.45-17.37 4.95-17.81Q6.45-18.25 8.51-19.06L8.51-19.06Q10.93-20.08 12.10-20.08L12.10-20.08Q13.93-20.08 15.00-19.09Q16.06-18.10 15.99-16.71L15.99-16.71Q15.99-15.32 14.92-14.33Q13.86-13.34 12.10-13.34L12.10-13.34Q11.15-13.34 9.90-13.78Q8.65-14.22 8.43-14.29L8.43-14.29Q4.77-15.76 1.39-16.12L1.39-16.12L0.95-15.68Q2.27-14.14 3.37-13.19Q4.47-12.24 6.31-10.84L6.31-10.84Q7.19-10.26 7.96-9.63Q8.73-9.01 9.09-8.35L9.09-8.35Q9.68-7.25 9.68-6.15L9.68-6.15Q9.68-4.39 8.14-3.44L8.14-3.44Q7.26-3.00 6.31-3.00L6.31-3.00Q4.18-3.00 3.01-4.83L3.01-4.83Q2.35-5.93 1.98-8.50L1.98-8.50Q1.32-12.31 0.15-15.17L0.15-15.17Q-0.00-15.10-0.51-15.10L-0.51-15.10Q-1.39-13.19-1.76-11.61Q-2.13-10.04-2.35-8.20L-2.35-8.20Q-2.57-5.78-3.15-4.83L-3.15-4.83Q-4.18-2.92-6.16-2.92L-6.16-2.92Q-7.04-2.92-7.92-3.44L-7.92-3.44Z"/></g></g>
		<g transform="matrix(-0.16585517773693662 0.9861501204268289 -0.9861501204268289 -0.16585517773693662 337.04802076617 45.16048857815632)" style="" id="fb04fb4gn">
		
<g xml:space="preserve" style="stroke: none; stroke-width: 1; stroke-dasharray:none; stroke-linecap: butt; stroke-dashoffset: 0; stroke-linejoin: miter; stroke-miterlimit: 4; fill: rgb(106,109,109); fill-rule: nonzero; opacity: 1; white-space: pre;"><path style="white-space: pre;" d=""/></g></g>
		<g transform="matrix(-0.3078668013296282 0.9514294680316893 -0.9514294680316893 -0.3078668013296282 326.5425886687489 87.8950094914626)" style="" id="sr386w6pa">
		
<g xml:space="preserve" style="stroke: none; stroke-width: 1; stroke-dasharray:none; stroke-linecap: butt; stroke-dashoffset: 0; stroke-linejoin: miter; stroke-miterlimit: 4; fill: rgb(106,109,109); fill-rule: nonzero; opacity: 1; white-space: pre;"><path d="M-1.21 23.40Q-2.31 23.40-2.75 22.67L-2.75 22.67L-19.25-14.66L-19.47-14.66L-19.32 14.46Q-19.25 16.44-19.03 17.50Q-18.81 18.56-17.82 19.33Q-16.83 20.10-14.70 20.10L-14.70 20.10L-14.26 20.10Q-13.53 20.10-13.20 20.36Q-12.87 20.62-12.80 21.64L-12.80 21.64Q-12.80 22.30-13.13 22.78Q-13.46 23.26-14.12 23.26L-14.12 23.26L-15.95 23.18Q-19.32 23.04-20.79 23.04L-20.79 23.04Q-23.28 23.04-28.05 23.26L-28.05 23.26Q-28.71 23.26-29.04 22.78Q-29.37 22.30-29.37 21.64L-29.37 21.64Q-29.30 20.54-28.93 20.32Q-28.56 20.10-27.54 20.10L-27.54 20.10Q-25.41 20.10-24.42 19.33Q-23.43 18.56-23.21 17.50Q-22.99 16.44-22.92 14.46L-22.92 14.46L-22.77-14.66Q-22.77-16.93-23.28-18.07Q-23.80-19.20-24.79-19.68Q-25.78-20.16-27.68-20.52L-27.68-20.52Q-27.98-20.60-28.56-20.71Q-29.15-20.82-29.33-21.15Q-29.52-21.48-29.52-22.21L-29.52-22.21Q-29.52-23.09-29.04-23.38Q-28.56-23.68-27.54-23.68L-27.54-23.68Q-23.21-23.68-20.42-23.13Q-17.64-22.58-15.55-20.89Q-13.46-19.20-12.06-15.90L-12.06-15.90L0.55 12.40L0.77 12.40L15.22-23.24L19.40-23.24Q23.43-23.24 28.12-23.46L28.12-23.46Q28.78-23.46 29.11-22.98Q29.44-22.50 29.44-21.84L29.44-21.84Q29.37-20.74 28.97-20.52Q28.56-20.30 27.61-20.30L27.61-20.30Q25.48-20.30 24.46-19.53Q23.43-18.76 23.17-17.63Q22.92-16.49 22.84-14.66L22.84-14.66L22.84 14.46Q22.92 16.29 23.17 17.43Q23.43 18.56 24.46 19.33Q25.48 20.10 27.61 20.10L27.61 20.10L28.05 20.10Q28.71 20.10 29.04 20.36Q29.37 20.62 29.44 21.64L29.44 21.64Q29.44 22.30 29.11 22.78Q28.78 23.26 28.12 23.26L28.12 23.26Q23.43 23.04 19.32 23.04L19.32 23.04Q15.07 23.04 10.30 23.26L10.30 23.26Q9.64 23.26 9.31 22.78Q8.98 22.30 8.98 21.64L8.98 21.64Q9.06 20.54 9.42 20.32Q9.79 20.10 10.82 20.10L10.82 20.10Q12.94 20.10 13.97 19.33Q15.00 18.56 15.25 17.43Q15.51 16.29 15.58 14.46L15.58 14.46L15.58-14.66L15.36-14.66L0.26 22.67Q-0.04 23.40-1.21 23.40L-1.21 23.40Z"/></g></g>
		<g transform="matrix(-0.472045284008062 0.8815743019426939 -0.8815743019426939 -0.472045284008062 302.76618519251366 143.47888346919854)" style="" id="h4yvcd46o">
		
<g xml:space="preserve" style="stroke: none; stroke-width: 1; stroke-dasharray:none; stroke-linecap: butt; stroke-dashoffset: 0; stroke-linejoin: miter; stroke-miterlimit: 4; fill: rgb(106,109,109); fill-rule: nonzero; opacity: 1; white-space: pre;"><path d="M-23.50 23.26Q-24.16 23.26-24.49 22.78Q-24.82 22.30-24.82 21.64L-24.82 21.64Q-24.75 20.54-24.38 20.32Q-24.02 20.10-23.50 20.10Q-22.99 20.10-22.84 20.10L-22.84 20.10Q-20.64 20.10-19.62 18.97Q-18.59 17.83-17.97 16.40Q-17.34 14.97-17.12 14.46L-17.12 14.46L-4.29-15.90Q-3.85-17.00-3.85-17.66L-3.85-17.66Q-3.85-18.98-4.88-19.57Q-5.90-20.16-7.74-20.52L-7.74-20.52Q-8.98-20.74-9.28-20.96Q-9.57-21.18-9.57-22.21L-9.57-22.21Q-9.57-23.09-9.09-23.38Q-8.62-23.68-7.59-23.68L-7.59-23.68Q-3.92-23.68-1.76-23.13Q0.40-22.58 2.02-20.93Q3.63-19.28 5.02-15.90L5.02-15.90L17.34 14.46Q18.44 17.24 19.47 18.64Q20.50 20.03 22.55 20.10L22.55 20.10L22.99 20.10Q23.72 20.10 24.02 20.36Q24.31 20.62 24.38 21.64L24.38 21.64Q24.38 22.30 24.05 22.78Q23.72 23.26 23.06 23.26L23.06 23.26Q18.37 23.04 15.00 23.04L15.00 23.04Q10.60 23.04 5.90 23.26L5.90 23.26Q5.24 23.26 4.91 22.78Q4.58 22.30 4.58 21.64L4.58 21.64Q4.66 20.62 4.95 20.36Q5.24 20.10 5.98 20.10L5.98 20.10Q8.47 20.10 9.50 19.63Q10.52 19.15 10.52 17.90L10.52 17.90Q10.52 16.95 9.64 14.46L9.64 14.46L7.15 8.37L-10.96 8.37Q-12.80 12.92-13.05 13.65Q-13.31 14.38-13.31 14.46L-13.31 14.46Q-14.19 17.24-14.19 18.05L-14.19 18.05Q-14.19 19.30-13.09 19.70Q-11.99 20.10-8.91 20.10L-8.91 20.10L-8.47 20.10Q-7.74 20.10-7.44 20.36Q-7.15 20.62-7.08 21.64L-7.08 21.64Q-7.08 22.30-7.41 22.78Q-7.74 23.26-8.40 23.26L-8.40 23.26Q-13.09 23.04-16.39 23.04L-16.39 23.04Q-18.74 23.04-23.50 23.26L-23.50 23.26ZM-1.80-13.63L-9.57 5.22L5.83 5.22L-1.58-13.63L-1.80-13.63Z"/></g></g>
		<g transform="matrix(-0.5973987639237834 0.8019443352641975 -0.8019443352641975 -0.5973987639237834 272.7111483445275 190.6866698037385)" style="" id="jenfvit3i">
		
<g xml:space="preserve" style="stroke: none; stroke-width: 1; stroke-dasharray:none; stroke-linecap: butt; stroke-dashoffset: 0; stroke-linejoin: miter; stroke-miterlimit: 4; fill: rgb(106,109,109); fill-rule: nonzero; opacity: 1; white-space: pre;"><path d="M-23.69 23.26Q-25.01 23.18-25.01 21.64L-25.01 21.64Q-24.93 20.54-24.57 20.32Q-24.20 20.10-23.17 20.10L-23.17 20.10Q-21.05 20.10-20.02 19.33Q-18.99 18.56-18.74 17.43Q-18.48 16.29-18.41 14.46L-18.41 14.46L-18.41-14.66Q-18.48-16.49-18.74-17.63Q-18.99-18.76-20.02-19.53Q-21.05-20.30-23.17-20.30L-23.17-20.30L-23.61-20.30Q-24.35-20.30-24.64-20.56Q-24.93-20.82-25.01-21.84L-25.01-21.84Q-25.01-22.50-24.68-22.98Q-24.35-23.46-23.69-23.46L-23.69-23.46Q-18.99-23.24-15.03-23.24L-15.03-23.24Q-10.63-23.24-5.87-23.46L-5.87-23.46Q-5.21-23.46-4.88-22.98Q-4.55-22.50-4.55-21.84L-4.55-21.84Q-4.62-20.74-4.99-20.52Q-5.35-20.30-6.38-20.30L-6.38-20.30Q-8.51-20.30-9.53-19.53Q-10.56-18.76-10.82-17.63Q-11.07-16.49-11.15-14.66L-11.15-14.66L-11.15 11.30L9.90-15.24Q12.69-18.76 14.30-20.38Q15.91-21.99 17.12-22.58Q18.33-23.16 19.95-23.31L19.95-23.31Q21.71-23.46 23.69-23.46L23.69-23.46Q25.01-23.46 25.01-21.84L25.01-21.84Q24.93-20.74 24.57-20.52Q24.20-20.30 23.17-20.30L23.17-20.30Q21.05-20.30 20.02-19.53Q18.99-18.76 18.74-17.63Q18.48-16.49 18.41-14.66L18.41-14.66L18.41 14.46Q18.48 16.29 18.74 17.43Q18.99 18.56 20.02 19.33Q21.05 20.10 23.17 20.10L23.17 20.10L23.61 20.10Q24.35 20.10 24.64 20.36Q24.93 20.62 25.01 21.64L25.01 21.64Q25.01 22.30 24.68 22.78Q24.35 23.26 23.69 23.26L23.69 23.26Q18.99 23.04 15.03 23.04L15.03 23.04Q10.71 23.04 5.94 23.26L5.94 23.26Q5.28 23.26 4.95 22.78Q4.62 22.30 4.62 21.64L4.62 21.64Q4.69 20.54 5.10 20.32Q5.50 20.10 6.45 20.10L6.45 20.10Q8.58 20.10 9.61 19.33Q10.63 18.56 10.89 17.43Q11.15 16.29 11.22 14.46L11.22 14.46L11.22-11.43L-9.90 14.97Q-12.69 18.42-14.19 19.99Q-15.69 21.57-16.83 22.27Q-17.97 22.96-19.43 23.11L-19.43 23.11Q-21.85 23.33-23.69 23.26L-23.69 23.26ZM10.49-39.00Q12.10-39.00 13.09-38.01Q14.08-37.02 14.08-35.26L14.08-35.26Q14.08-31.52 9.90-29.51Q5.72-27.49-0.00-27.49L-0.00-27.49Q-5.72-27.49-9.90-29.51Q-14.08-31.52-14.08-35.26L-14.08-35.26Q-14.08-37.02-13.09-38.01Q-12.10-39.00-10.49-39.00L-10.49-39.00Q-8.87-39.00-7.92-37.98Q-6.97-36.95-6.01-34.90L-6.01-34.90Q-4.84-32.55-3.59-31.27Q-2.35-29.98-0.00-29.98L-0.00-29.98Q2.35-29.98 3.59-31.27Q4.84-32.55 6.01-34.90L6.01-34.90Q6.97-36.95 7.92-37.98Q8.87-39.00 10.49-39.00L10.49-39.00Z"/></g></g>
		<g transform="matrix(-0.7024951920898548 0.7116884888001478 -0.7116884888001478 -0.7024951920898548 236.71106537036067 232.57619171992258)" style="" id="czf6c45da">
		
<g xml:space="preserve" style="stroke: none; stroke-width: 1; stroke-dasharray:none; stroke-linecap: butt; stroke-dashoffset: 0; stroke-linejoin: miter; stroke-miterlimit: 4; fill: rgb(106,109,109); fill-rule: nonzero; opacity: 1; white-space: pre;"><path d="M2.82 24.50Q-3.41 24.50-8.58 21.53Q-13.75 18.56-16.79 13.06Q-19.84 7.56-19.84 0.23L-19.84 0.23Q-19.84-7.18-16.90-12.82Q-13.97-18.47-8.54-21.59Q-3.12-24.70 4.14-24.70L4.14-24.70Q10.45-24.70 15.36-22.17Q20.28-19.64 20.28-14.36L20.28-14.36Q20.35-11.06 18.30-8.75Q16.24-6.44 12.80-6.44L12.80-6.44Q11.48-6.44 10.56-6.92Q9.64-7.40 9.20-8.06Q8.76-8.72 8.84-9.08L8.84-9.08Q8.84-9.23 9.86-9.89Q10.89-10.55 11.70-11.72Q12.50-12.90 12.50-14.58L12.50-14.58Q12.50-17.88 10.27-19.83Q8.03-21.77 4.07-21.77L4.07-21.77Q-0.40-21.77-3.89-19.24Q-7.37-16.71-9.31-11.83Q-11.26-6.96-11.26-0.21L-11.26-0.21Q-11.26 5.66-9.17 10.46Q-7.08 15.26-3.26 18.09Q0.55 20.91 5.46 20.91L5.46 20.91Q9.42 20.91 12.25 19.26Q15.07 17.61 17.34 13.94L17.34 13.94Q17.71 13.28 18.37 13.28L18.37 13.28Q18.96 13.28 19.69 13.72L19.69 13.72Q20.86 14.53 20.86 15.34L20.86 15.34Q20.86 15.78 20.57 16.07L20.57 16.07Q17.78 19.59 15.33 21.39Q12.87 23.18 10.01 23.84Q7.15 24.50 2.82 24.50L2.82 24.50Z"/></g></g>
		<g transform="matrix(-0.7826142762587743 0.6225069434118424 -0.6225069434118424 -0.7826142762587743 200.9469154615371 264.71680860947697)" style="" id="bw2nvkls0">
		
<g xml:space="preserve" style="stroke: none; stroke-width: 1; stroke-dasharray:none; stroke-linecap: butt; stroke-dashoffset: 0; stroke-linejoin: miter; stroke-miterlimit: 4; fill: rgb(106,109,109); fill-rule: nonzero; opacity: 1; white-space: pre;"><path d="M-8.87 23.26Q-9.53 23.26-9.86 22.78Q-10.19 22.30-10.19 21.64L-10.19 21.64Q-10.12 20.54-9.75 20.32Q-9.39 20.10-8.36 20.10L-8.36 20.10Q-6.23 20.10-5.21 19.33Q-4.18 18.56-3.92 17.43Q-3.67 16.29-3.59 14.46L-3.59 14.46L-3.59-20.52L-8.65-20.52Q-11.15-20.45-12.50-19.46Q-13.86-18.47-14.56-16.53Q-15.25-14.58-15.77-10.99L-15.77-10.99Q-15.84-10.40-16.65-10.04Q-17.45-9.67-18.33-9.67L-18.33-9.67Q-18.99-9.67-19.54-10.07Q-20.09-10.48-20.09-11.14L-20.09-11.14L-19.87-21.48Q-19.87-23.24-17.89-23.24L-17.89-23.24L17.97-23.24Q19.87-23.24 19.87-21.48L19.87-21.48L20.17-11.14Q20.17-10.48 19.58-10.07Q18.99-9.67 18.33-9.67L18.33-9.67Q17.45-9.67 16.68-10.04Q15.91-10.40 15.84-10.99L15.84-10.99Q15.25-14.66 14.59-16.56Q13.93-18.47 12.54-19.46Q11.15-20.45 8.65-20.52L8.65-20.52L3.67-20.52L3.67 14.46Q3.74 16.29 4.00 17.43Q4.25 18.56 5.28 19.33Q6.31 20.10 8.43 20.10L8.43 20.10L8.87 20.10Q9.53 20.10 9.86 20.36Q10.19 20.62 10.27 21.64L10.27 21.64Q10.27 22.30 9.94 22.78Q9.61 23.26 8.95 23.26L8.95 23.26Q4.25 23.04 0.29 23.04L0.29 23.04Q-4.11 23.04-8.87 23.26L-8.87 23.26Z"/></g></g>
		<g transform="matrix(-0.8515063871128197 0.5243442311173767 -0.5243442311173767 -0.8515063871128197 162.95151142037156 291.41250860825136)" style="" id="af49biwi8">
		
<g xml:space="preserve" style="stroke: none; stroke-width: 1; stroke-dasharray:none; stroke-linecap: butt; stroke-dashoffset: 0; stroke-linejoin: miter; stroke-miterlimit: 4; fill: rgb(106,109,109); fill-rule: nonzero; opacity: 1; white-space: pre;"><path d="M-17.38 23.26Q-17.97 23.26-18.30 22.78Q-18.63 22.30-18.63 21.64L-18.63 21.64Q-18.55 20.54-18.19 20.32Q-17.82 20.10-16.79 20.10L-16.79 20.10Q-14.67 20.10-13.64 19.33Q-12.61 18.56-12.36 17.43Q-12.10 16.29-12.03 14.46L-12.03 14.46L-12.03-14.66Q-12.10-16.49-12.36-17.63Q-12.61-18.76-13.64-19.53Q-14.67-20.30-16.79-20.30L-16.79-20.30L-17.23-20.30Q-17.97-20.30-18.26-20.56Q-18.55-20.82-18.63-21.84L-18.63-21.84Q-18.63-22.50-18.30-22.98Q-17.97-23.46-17.38-23.46L-17.38-23.46Q-12.54-23.24-8.65-23.24L-8.65-23.24L14.37-23.24Q16.28-23.24 16.28-21.48L16.28-21.48L16.50-11.21Q16.50-10.55 15.84-10.15Q15.18-9.74 14.52-9.74L14.52-9.74Q13.64-9.74 12.98-10.07Q12.32-10.40 12.25-11.06L12.25-11.06Q11.66-14.66 10.96-16.53Q10.27-18.40 8.91-19.31Q7.55-20.23 5.06-20.30L5.06-20.30L-4.77-20.30L-4.77-1.68L8.51-1.68Q9.02-1.60 9.31-1.13Q9.61-0.65 9.61 0.01L9.61 0.01Q9.61 0.60 9.31 1.04Q9.02 1.48 8.51 1.48L8.51 1.48L-4.77 1.48L-4.77 15.34Q-4.62 16.88-4.40 17.79Q-4.18 18.71-3.08 19.44Q-1.98 20.18 0.37 20.10L0.37 20.10L7.11 20.10Q9.68 20.03 11.00 19.26Q12.32 18.49 13.09 16.88Q13.86 15.26 14.96 11.60L14.96 11.60Q15.47 10.28 17.45 10.57L17.45 10.57Q18.19 10.72 18.74 11.16Q19.29 11.60 19.21 12.26L19.21 12.26L17.75 21.50Q17.53 22.45 17.09 22.74Q16.65 23.04 15.62 23.04L15.62 23.04L-8.58 23.04Q-12.54 23.04-17.38 23.26L-17.38 23.26Z"/></g></g>
		<g transform="matrix(-0.9121183867110496 0.4099268820456059 -0.4099268820456059 -0.9121183867110496 121.62290296151794 313.35423076863856)" style="" id="u5257z8zm">
		
<g xml:space="preserve" style="stroke: none; stroke-width: 1; stroke-dasharray:none; stroke-linecap: butt; stroke-dashoffset: 0; stroke-linejoin: miter; stroke-miterlimit: 4; fill: rgb(106,109,109); fill-rule: nonzero; opacity: 1; white-space: pre;"><path d="M-17.75 23.26Q-18.33 23.26-18.70 22.78Q-19.07 22.30-19.07 21.64L-19.07 21.64Q-18.99 20.54-18.59 20.32Q-18.19 20.10-17.16 20.10L-17.16 20.10Q-15.03 20.10-14.01 19.33Q-12.98 18.56-12.72 17.43Q-12.47 16.29-12.39 14.46L-12.39 14.46L-12.39-14.66Q-12.47-16.49-12.72-17.63Q-12.98-18.76-14.01-19.53Q-15.03-20.30-17.16-20.30L-17.16-20.30L-17.60-20.30Q-18.33-20.30-18.66-20.56Q-18.99-20.82-19.07-21.84L-19.07-21.84Q-19.07-22.50-18.70-22.98Q-18.33-23.46-17.75-23.46L-17.75-23.46Q-12.98-23.24-8.95-23.24L-8.95-23.24L2.05-23.24Q8.43-23.24 14.41-20.60Q20.39-17.96 20.39-10.04L20.39-10.04Q20.39-5.64 17.75-2.19Q15.11 1.26 10.89 3.16Q6.67 5.07 2.13 5.07L2.13 5.07Q-2.05 5.07-5.21 3.90L-5.21 3.90L-5.21 14.46Q-5.13 16.29-4.88 17.43Q-4.62 18.56-3.59 19.33Q-2.57 20.10-0.44 20.10L-0.44 20.10L0.00 20.10Q0.73 20.10 1.06 20.36Q1.39 20.62 1.47 21.64L1.47 21.64Q1.47 22.30 1.14 22.78Q0.81 23.26 0.15 23.26L0.15 23.26Q-4.55 23.04-9.02 23.04L-9.02 23.04Q-12.98 23.04-17.75 23.26L-17.75 23.26ZM0.00 1.77Q2.64 1.77 5.46 0.71Q8.29-0.36 10.27-2.96Q12.25-5.56 12.25-9.82L12.25-9.82Q12.25-16.27 8.14-18.40Q4.03-20.52-0.59-20.52L-0.59-20.52Q-2.49-20.52-3.45-20.12Q-4.40-19.72-4.80-18.54Q-5.21-17.37-5.21-14.88L-5.21-14.88L-5.21 0.96Q-3.45 1.77 0.00 1.77L0.00 1.77Z"/></g></g>
		<g transform="matrix(-0.9476354570960529 0.31935409885322413 -0.31935409885322413 -0.9476354570960529 91.38469831487609 325.23195131365213)" style="" id="6q0ryg5v">
		
<g xml:space="preserve" style="stroke: none; stroke-width: 1; stroke-dasharray:none; stroke-linecap: butt; stroke-dashoffset: 0; stroke-linejoin: miter; stroke-miterlimit: 4; fill: rgb(106,109,109); fill-rule: nonzero; opacity: 1; white-space: pre;"><path style="white-space: pre;" d=""/></g></g>
		<g transform="matrix(-0.9796680760073451 0.20062517502065091 -0.20062517502065091 -0.9796680760073451 54.8100820552365 335.13532107940114)" style="" id="sxqm69qc9">
		
<g xml:space="preserve" style="stroke: none; stroke-width: 1; stroke-dasharray:none; stroke-linecap: butt; stroke-dashoffset: 0; stroke-linejoin: miter; stroke-miterlimit: 4; fill: rgb(106,109,109); fill-rule: nonzero; opacity: 1; white-space: pre;"><path d="M18.70 23.77Q14.81 23.77 12.17 22.05Q9.53 20.32 7.96 17.79Q6.38 15.26 4.55 11.16L4.55 11.16Q2.79 7.34 1.43 5.11Q0.07 2.87-2.13 1.37Q-4.33-0.14-7.48-0.14L-7.48-0.14L-9.39-0.14L-9.39 14.46Q-9.31 16.29-9.06 17.43Q-8.80 18.56-7.77 19.33Q-6.75 20.10-4.62 20.10L-4.62 20.10L-4.18 20.10Q-3.45 20.10-3.12 20.36Q-2.79 20.62-2.71 21.64L-2.71 21.64Q-2.71 22.30-3.04 22.78Q-3.37 23.26-4.03 23.26L-4.03 23.26Q-8.73 23.04-13.13 23.04L-13.13 23.04Q-17.16 23.04-21.93 23.26L-21.93 23.26Q-22.59 23.26-22.92 22.78Q-23.25 22.30-23.25 21.64L-23.25 21.64Q-23.17 20.54-22.77 20.32Q-22.37 20.10-21.41 20.10L-21.41 20.10Q-19.29 20.10-18.26 19.33Q-17.23 18.56-16.94 17.46Q-16.65 16.36-16.57 14.46L-16.57 14.46L-16.57-14.66Q-16.65-16.56-16.94-17.66Q-17.23-18.76-18.26-19.53Q-19.29-20.30-21.41-20.30L-21.41-20.30L-21.85-20.30Q-22.51-20.30-22.84-20.56Q-23.17-20.82-23.25-21.84L-23.25-21.84Q-23.25-22.50-22.92-22.98Q-22.59-23.46-21.93-23.46L-21.93-23.46Q-17.23-23.24-13.20-23.24L-13.20-23.24Q-8.80-23.24-4.03-23.46L-4.03-23.46Q-3.37-23.46-3.04-22.98Q-2.71-22.50-2.71-21.84L-2.71-21.84Q-2.79-20.74-3.19-20.52Q-3.59-20.30-4.62-20.30L-4.62-20.30Q-6.75-20.30-7.77-19.53Q-8.80-18.76-9.06-17.63Q-9.31-16.49-9.39-14.66L-9.39-14.66L-9.39-3.07L-5.94-3.07Q-3.59-3.07-1.36-4.54Q0.88-6.00 2.49-9.08L2.49-9.08Q3.01-10.11 4.18-12.97L4.18-12.97Q5.65-16.49 6.86-18.80Q8.07-21.11 10.01-22.87Q11.95-24.63 14.67-24.78L14.67-24.78Q17.97-24.78 19.95-22.72Q21.93-20.67 21.93-18.18L21.93-18.18Q21.93-16.56 21.08-15.32Q20.24-14.07 19.14-13.41Q18.04-12.75 17.31-12.75L17.31-12.75Q16.72-12.75 16.72-13.12L16.72-13.12Q16.72-15.02 15.77-16.53Q14.81-18.03 13.42-18.03L13.42-18.03Q10.93-18.03 9.50-16.05Q8.07-14.07 6.67-10.55L6.67-10.55Q6.09-9.08 5.79-8.50L5.79-8.50Q4.55-5.86 2.79-4.17Q1.03-2.48-0.88-2.12L-0.88-2.12L-0.88-1.90Q3.01-1.90 5.72 0.12Q8.43 2.14 10.12 4.96Q11.81 7.78 13.71 12.04L13.71 12.04Q15.69 16.44 17.12 18.45Q18.55 20.47 20.68 20.47L20.68 20.47Q21.63 20.47 22.26 19.96Q22.88 19.44 23.47 18.56L23.47 18.56Q24.13 17.46 24.64 17.46L24.64 17.46L24.71 17.46Q25.37 17.46 25.70 17.98Q26.03 18.49 25.89 19.15L25.89 19.15Q25.45 21.50 23.28 22.63Q21.12 23.77 18.70 23.77L18.70 23.77Z"/></g></g>
		<g transform="matrix(-0.9998658697537072 -0.01637811044237886 0.01637811044237886 -0.9998658697537072 -5.086106643262352 340.8443162785428)" style="" id="vb8snbd4z">
		
<g xml:space="preserve" style="stroke: none; stroke-width: 1; stroke-dasharray:none; stroke-linecap: butt; stroke-dashoffset: 0; stroke-linejoin: miter; stroke-miterlimit: 4; fill: rgb(106,109,109); fill-rule: nonzero; opacity: 1; white-space: pre;"><path d="M-17.86 23.77Q-21.89 23.77-24.16 21.83Q-26.44 19.88-26.44 16.95L-26.44 16.95Q-26.44 14.53-24.93 12.99Q-23.43 11.45-21.16 11.45L-21.16 11.45Q-20.35 11.45-19.80 11.67Q-19.25 11.89-19.10 12.11L-19.10 12.11Q-19.10 12.33-19.51 13.06Q-19.91 13.80-19.91 14.82L-19.91 14.82Q-19.91 17.68-16.83 17.68L-16.83 17.68Q-14.12 17.68-12.47 13.87Q-10.82 10.06-9.83 3.82Q-8.84-2.41-7.44-14.66L-7.44-14.66Q-7.37-15.24-7.37-16.27L-7.37-16.27Q-7.37-18.54-8.36-19.42Q-9.35-20.30-11.92-20.30L-11.92-20.30L-12.36-20.30Q-13.09-20.30-13.38-20.56Q-13.68-20.82-13.75-21.84L-13.75-21.84Q-13.75-22.50-13.42-22.98Q-13.09-23.46-12.43-23.46L-12.43-23.46Q-7.74-23.24-3.78-23.24L-3.78-23.24L14.70-23.24Q18.66-23.24 23.36-23.46L23.36-23.46Q24.02-23.46 24.35-22.98Q24.68-22.50 24.68-21.84L24.68-21.84Q24.60-20.74 24.24-20.52Q23.87-20.30 22.84-20.30L22.84-20.30Q20.13-20.30 19.14-18.95Q18.15-17.59 18.08-14.66L18.08-14.66L18.08 14.46Q18.15 16.29 18.41 17.43Q18.66 18.56 19.69 19.33Q20.72 20.10 22.84 20.10L22.84 20.10L23.28 20.10Q24.02 20.10 24.31 20.36Q24.60 20.62 24.68 21.64L24.68 21.64Q24.68 22.30 24.35 22.78Q24.02 23.26 23.36 23.26L23.36 23.26Q18.66 23.04 14.63 23.04L14.63 23.04Q10.30 23.04 5.54 23.26L5.54 23.26Q4.88 23.26 4.55 22.78Q4.22 22.30 4.22 21.64L4.22 21.64Q4.29 20.54 4.66 20.32Q5.02 20.10 6.05 20.10L6.05 20.10Q8.18 20.10 9.20 19.33Q10.23 18.56 10.49 17.43Q10.74 16.29 10.82 14.46L10.82 14.46L10.82-20.08L0.55-20.08Q-0.92-20.08-1.65-19.79Q-2.38-19.50-2.86-18.43Q-3.34-17.37-3.56-15.17L-3.56-15.17Q-4.95-1.53-6.27 6.24Q-7.59 14.02-10.34 18.89Q-13.09 23.77-17.86 23.77L-17.86 23.77Z"/></g></g>
		<g transform="matrix(-0.9760027326620079 -0.21775827386414756 0.21775827386414756 -0.9760027326620079 -61.48348086022738 334.04577182947486)" style="" id="ngikuzpn6">
		
<g xml:space="preserve" style="stroke: none; stroke-width: 1; stroke-dasharray:none; stroke-linecap: butt; stroke-dashoffset: 0; stroke-linejoin: miter; stroke-miterlimit: 4; fill: rgb(106,109,109); fill-rule: nonzero; opacity: 1; white-space: pre;"><path d="M-23.50 23.26Q-24.16 23.26-24.49 22.78Q-24.82 22.30-24.82 21.64L-24.82 21.64Q-24.75 20.54-24.38 20.32Q-24.02 20.10-23.50 20.10Q-22.99 20.10-22.84 20.10L-22.84 20.10Q-20.64 20.10-19.62 18.97Q-18.59 17.83-17.97 16.40Q-17.34 14.97-17.12 14.46L-17.12 14.46L-4.29-15.90Q-3.85-17.00-3.85-17.66L-3.85-17.66Q-3.85-18.98-4.88-19.57Q-5.90-20.16-7.74-20.52L-7.74-20.52Q-8.98-20.74-9.28-20.96Q-9.57-21.18-9.57-22.21L-9.57-22.21Q-9.57-23.09-9.09-23.38Q-8.62-23.68-7.59-23.68L-7.59-23.68Q-3.92-23.68-1.76-23.13Q0.40-22.58 2.02-20.93Q3.63-19.28 5.02-15.90L5.02-15.90L17.34 14.46Q18.44 17.24 19.47 18.64Q20.50 20.03 22.55 20.10L22.55 20.10L22.99 20.10Q23.72 20.10 24.02 20.36Q24.31 20.62 24.38 21.64L24.38 21.64Q24.38 22.30 24.05 22.78Q23.72 23.26 23.06 23.26L23.06 23.26Q18.37 23.04 15.00 23.04L15.00 23.04Q10.60 23.04 5.90 23.26L5.90 23.26Q5.24 23.26 4.91 22.78Q4.58 22.30 4.58 21.64L4.58 21.64Q4.66 20.62 4.95 20.36Q5.24 20.10 5.98 20.10L5.98 20.10Q8.47 20.10 9.50 19.63Q10.52 19.15 10.52 17.90L10.52 17.90Q10.52 16.95 9.64 14.46L9.64 14.46L7.15 8.37L-10.96 8.37Q-12.80 12.92-13.05 13.65Q-13.31 14.38-13.31 14.46L-13.31 14.46Q-14.19 17.24-14.19 18.05L-14.19 18.05Q-14.19 19.30-13.09 19.70Q-11.99 20.10-8.91 20.10L-8.91 20.10L-8.47 20.10Q-7.74 20.10-7.44 20.36Q-7.15 20.62-7.08 21.64L-7.08 21.64Q-7.08 22.30-7.41 22.78Q-7.74 23.26-8.40 23.26L-8.40 23.26Q-13.09 23.04-16.39 23.04L-16.39 23.04Q-18.74 23.04-23.50 23.26L-23.50 23.26ZM-1.80-13.63L-9.57 5.22L5.83 5.22L-1.58-13.63L-1.80-13.63Z"/></g></g>
		<g transform="matrix(-0.9282635907380177 -0.3719229841111761 0.3719229841111761 -0.9282635907380177 -110.11254539628666 318.9052159717246)" style="" id="uchbuzkpc">
		
<g xml:space="preserve" style="stroke: none; stroke-width: 1; stroke-dasharray:none; stroke-linecap: butt; stroke-dashoffset: 0; stroke-linejoin: miter; stroke-miterlimit: 4; fill: rgb(106,109,109); fill-rule: nonzero; opacity: 1; white-space: pre;"><path d="M2.82 24.50Q-3.41 24.50-8.58 21.53Q-13.75 18.56-16.79 13.06Q-19.84 7.56-19.84 0.23L-19.84 0.23Q-19.84-7.18-16.90-12.82Q-13.97-18.47-8.54-21.59Q-3.12-24.70 4.14-24.70L4.14-24.70Q10.45-24.70 15.36-22.17Q20.28-19.64 20.28-14.36L20.28-14.36Q20.35-11.06 18.30-8.75Q16.24-6.44 12.80-6.44L12.80-6.44Q11.48-6.44 10.56-6.92Q9.64-7.40 9.20-8.06Q8.76-8.72 8.84-9.08L8.84-9.08Q8.84-9.23 9.86-9.89Q10.89-10.55 11.70-11.72Q12.50-12.90 12.50-14.58L12.50-14.58Q12.50-17.88 10.27-19.83Q8.03-21.77 4.07-21.77L4.07-21.77Q-0.40-21.77-3.89-19.24Q-7.37-16.71-9.31-11.83Q-11.26-6.96-11.26-0.21L-11.26-0.21Q-11.26 5.66-9.17 10.46Q-7.08 15.26-3.26 18.09Q0.55 20.91 5.46 20.91L5.46 20.91Q9.42 20.91 12.25 19.26Q15.07 17.61 17.34 13.94L17.34 13.94Q17.71 13.28 18.37 13.28L18.37 13.28Q18.96 13.28 19.69 13.72L19.69 13.72Q20.86 14.53 20.86 15.34L20.86 15.34Q20.86 15.78 20.57 16.07L20.57 16.07Q17.78 19.59 15.33 21.39Q12.87 23.18 10.01 23.84Q7.15 24.50 2.82 24.50L2.82 24.50Z"/></g></g>
		<g transform="matrix(-0.8581339293082917 -0.51342590445936 0.51342590445936 -0.8581339293082917 -159.94542036873295 294.1234608099786)" style="" id="224uyada9">
		
<g xml:space="preserve" style="stroke: none; stroke-width: 1; stroke-dasharray:none; stroke-linecap: butt; stroke-dashoffset: 0; stroke-linejoin: miter; stroke-miterlimit: 4; fill: rgb(106,109,109); fill-rule: nonzero; opacity: 1; white-space: pre;"><path d="M-23.69 23.26Q-25.01 23.18-25.01 21.64L-25.01 21.64Q-24.93 20.54-24.57 20.32Q-24.20 20.10-23.17 20.10L-23.17 20.10Q-21.05 20.10-20.02 19.33Q-18.99 18.56-18.74 17.43Q-18.48 16.29-18.41 14.46L-18.41 14.46L-18.41-14.66Q-18.48-16.49-18.74-17.63Q-18.99-18.76-20.02-19.53Q-21.05-20.30-23.17-20.30L-23.17-20.30L-23.61-20.30Q-24.35-20.30-24.64-20.56Q-24.93-20.82-25.01-21.84L-25.01-21.84Q-25.01-22.50-24.68-22.98Q-24.35-23.46-23.69-23.46L-23.69-23.46Q-18.99-23.24-15.03-23.24L-15.03-23.24Q-10.63-23.24-5.87-23.46L-5.87-23.46Q-5.21-23.46-4.88-22.98Q-4.55-22.50-4.55-21.84L-4.55-21.84Q-4.62-20.74-4.99-20.52Q-5.35-20.30-6.38-20.30L-6.38-20.30Q-8.51-20.30-9.53-19.53Q-10.56-18.76-10.82-17.63Q-11.07-16.49-11.15-14.66L-11.15-14.66L-11.15 11.30L9.90-15.24Q12.69-18.76 14.30-20.38Q15.91-21.99 17.12-22.58Q18.33-23.16 19.95-23.31L19.95-23.31Q21.71-23.46 23.69-23.46L23.69-23.46Q25.01-23.46 25.01-21.84L25.01-21.84Q24.93-20.74 24.57-20.52Q24.20-20.30 23.17-20.30L23.17-20.30Q21.05-20.30 20.02-19.53Q18.99-18.76 18.74-17.63Q18.48-16.49 18.41-14.66L18.41-14.66L18.41 14.46Q18.48 16.29 18.74 17.43Q18.99 18.56 20.02 19.33Q21.05 20.10 23.17 20.10L23.17 20.10L23.61 20.10Q24.35 20.10 24.64 20.36Q24.93 20.62 25.01 21.64L25.01 21.64Q25.01 22.30 24.68 22.78Q24.35 23.26 23.69 23.26L23.69 23.26Q18.99 23.04 15.03 23.04L15.03 23.04Q10.71 23.04 5.94 23.26L5.94 23.26Q5.28 23.26 4.95 22.78Q4.62 22.30 4.62 21.64L4.62 21.64Q4.69 20.54 5.10 20.32Q5.50 20.10 6.45 20.10L6.45 20.10Q8.58 20.10 9.61 19.33Q10.63 18.56 10.89 17.43Q11.15 16.29 11.22 14.46L11.22 14.46L11.22-11.43L-9.90 14.97Q-12.69 18.42-14.19 19.99Q-15.69 21.57-16.83 22.27Q-17.97 22.96-19.43 23.11L-19.43 23.11Q-21.85 23.33-23.69 23.26L-23.69 23.26Z"/></g></g>
		<g transform="matrix(-0.8006123528575986 -0.5991826603397499 0.5991826603397499 -0.8006123528575986 -192.50492752235863 272.2644555257544)" style="" id="9p62lq0uf">
		
<g xml:space="preserve" style="stroke: none; stroke-width: 1; stroke-dasharray:none; stroke-linecap: butt; stroke-dashoffset: 0; stroke-linejoin: miter; stroke-miterlimit: 4; fill: rgb(106,109,109); fill-rule: nonzero; opacity: 1; white-space: pre;"><path style="white-space: pre;" d=""/></g></g>
		<g transform="matrix(-0.7540216940271893 -0.6568495146807735 0.6568495146807735 -0.7540216940271893 -215.14996124106932 253.96422078332733)" style="" id="m613dtav7">
		
<g xml:space="preserve" style="stroke: none; stroke-width: 1; stroke-dasharray:none; stroke-linecap: butt; stroke-dashoffset: 0; stroke-linejoin: miter; stroke-miterlimit: 4; fill: rgb(106,109,109); fill-rule: nonzero; opacity: 1; white-space: pre;"><path d="M-7.92-3.44Q-8.73-3.80-9.28-4.57Q-9.83-5.34-9.83-6.22L-9.83-6.22Q-9.83-7.25-9.24-8.13L-9.24-8.13Q-8.65-9.16-6.53-10.70L-6.53-10.70Q-4.84-11.94-3.70-12.97Q-2.57-14.00-1.39-15.61L-1.39-15.61Q-1.47-15.68-1.50-15.90Q-1.54-16.12-1.61-16.20L-1.61-16.20Q-3.74-15.98-5.24-15.50Q-6.75-15.02-8.80-14.29L-8.80-14.29Q-11.22-13.26-12.54-13.26L-12.54-13.26Q-14.15-13.26-15.18-14.29Q-16.21-15.32-16.13-16.64L-16.13-16.64Q-16.21-18.03-15.14-19.02Q-14.08-20.01-12.39-20.01L-12.39-20.01Q-11.15-20.01-8.58-18.98L-8.58-18.98Q-4.84-17.52-1.69-17.15L-1.69-17.15L-1.17-17.59Q-2.57-19.20-3.78-20.23Q-4.99-21.26-6.60-22.43L-6.60-22.43Q-7.48-23.09-8.25-23.71Q-9.02-24.34-9.39-25.00L-9.39-25.00Q-9.90-26.02-9.90-27.05L-9.90-27.05Q-9.90-28.88-8.29-29.91L-8.29-29.91Q-7.55-30.35-6.53-30.35L-6.53-30.35Q-5.57-30.35-4.69-29.87Q-3.81-29.40-3.23-28.52L-3.23-28.52Q-2.71-27.71-2.49-26.50Q-2.27-25.29-2.20-24.92L-2.20-24.92Q-1.76-21.26-0.44-18.10L-0.44-18.10Q-0.29-18.18 0.22-18.18L0.22-18.18Q1.10-20.01 1.43-21.51Q1.76-23.02 1.98-25.07L1.98-25.07Q2.13-26.10 2.31-26.98Q2.49-27.86 2.86-28.52L2.86-28.52Q3.96-30.35 6.01-30.35L6.01-30.35Q7.04-30.35 7.77-29.91L7.77-29.91Q8.58-29.54 9.09-28.77Q9.61-28.00 9.61-27.12L9.61-27.12Q9.61-26.10 9.02-25.22L9.02-25.22Q8.36-24.12 6.23-22.58L6.23-22.58Q4.55-21.33 3.41-20.30Q2.27-19.28 1.10-17.66L1.10-17.66Q1.17-17.59 1.21-17.37Q1.25-17.15 1.32-17.08L1.32-17.08Q3.45-17.37 4.95-17.81Q6.45-18.25 8.51-19.06L8.51-19.06Q10.93-20.08 12.10-20.08L12.10-20.08Q13.93-20.08 15.00-19.09Q16.06-18.10 15.99-16.71L15.99-16.71Q15.99-15.32 14.92-14.33Q13.86-13.34 12.10-13.34L12.10-13.34Q11.15-13.34 9.90-13.78Q8.65-14.22 8.43-14.29L8.43-14.29Q4.77-15.76 1.39-16.12L1.39-16.12L0.95-15.68Q2.27-14.14 3.37-13.19Q4.47-12.24 6.31-10.84L6.31-10.84Q7.19-10.26 7.96-9.63Q8.73-9.01 9.09-8.35L9.09-8.35Q9.68-7.25 9.68-6.15L9.68-6.15Q9.68-4.39 8.14-3.44L8.14-3.44Q7.26-3.00 6.31-3.00L6.31-3.00Q4.18-3.00 3.01-4.83L3.01-4.83Q2.35-5.93 1.98-8.50L1.98-8.50Q1.32-12.31 0.15-15.17L0.15-15.17Q-0.00-15.10-0.51-15.10L-0.51-15.10Q-1.39-13.19-1.76-11.61Q-2.13-10.04-2.35-8.20L-2.35-8.20Q-2.57-5.78-3.15-4.83L-3.15-4.83Q-4.18-2.92-6.16-2.92L-6.16-2.92Q-7.04-2.92-7.92-3.44L-7.92-3.44Z"/></g></g>
		<g transform="matrix(-0.7040199579543497 -0.710180187559436 0.710180187559436 -0.7040199579543497 -236.37231695665787 234.06508835944885)" style="" id="noqa37n47">
		
<g xml:space="preserve" style="stroke: none; stroke-width: 1; stroke-dasharray:none; stroke-linecap: butt; stroke-dashoffset: 0; stroke-linejoin: miter; stroke-miterlimit: 4; fill: rgb(106,109,109); fill-rule: nonzero; opacity: 1; white-space: pre;"><path style="white-space: pre;" d=""/></g></g>
		<g transform="matrix(-0.6343424636026765 -0.7730521579236986 0.7730521579236986 -0.6343424636026765 -261.3292887832644 206.4122753307298)" style="" id="ouife28m2">
		
<g xml:space="preserve" style="stroke: none; stroke-width: 1; stroke-dasharray:none; stroke-linecap: butt; stroke-dashoffset: 0; stroke-linejoin: miter; stroke-miterlimit: 4; fill: rgb(106,109,109); fill-rule: nonzero; opacity: 1; white-space: pre;"><path d="M18.70 23.77Q14.81 23.77 12.17 22.05Q9.53 20.32 7.96 17.79Q6.38 15.26 4.55 11.16L4.55 11.16Q2.79 7.34 1.43 5.11Q0.07 2.87-2.13 1.37Q-4.33-0.14-7.48-0.14L-7.48-0.14L-9.39-0.14L-9.39 14.46Q-9.31 16.29-9.06 17.43Q-8.80 18.56-7.77 19.33Q-6.75 20.10-4.62 20.10L-4.62 20.10L-4.18 20.10Q-3.45 20.10-3.12 20.36Q-2.79 20.62-2.71 21.64L-2.71 21.64Q-2.71 22.30-3.04 22.78Q-3.37 23.26-4.03 23.26L-4.03 23.26Q-8.73 23.04-13.13 23.04L-13.13 23.04Q-17.16 23.04-21.93 23.26L-21.93 23.26Q-22.59 23.26-22.92 22.78Q-23.25 22.30-23.25 21.64L-23.25 21.64Q-23.17 20.54-22.77 20.32Q-22.37 20.10-21.41 20.10L-21.41 20.10Q-19.29 20.10-18.26 19.33Q-17.23 18.56-16.94 17.46Q-16.65 16.36-16.57 14.46L-16.57 14.46L-16.57-14.66Q-16.65-16.56-16.94-17.66Q-17.23-18.76-18.26-19.53Q-19.29-20.30-21.41-20.30L-21.41-20.30L-21.85-20.30Q-22.51-20.30-22.84-20.56Q-23.17-20.82-23.25-21.84L-23.25-21.84Q-23.25-22.50-22.92-22.98Q-22.59-23.46-21.93-23.46L-21.93-23.46Q-17.23-23.24-13.20-23.24L-13.20-23.24Q-8.80-23.24-4.03-23.46L-4.03-23.46Q-3.37-23.46-3.04-22.98Q-2.71-22.50-2.71-21.84L-2.71-21.84Q-2.79-20.74-3.19-20.52Q-3.59-20.30-4.62-20.30L-4.62-20.30Q-6.75-20.30-7.77-19.53Q-8.80-18.76-9.06-17.63Q-9.31-16.49-9.39-14.66L-9.39-14.66L-9.39-3.07L-5.94-3.07Q-3.59-3.07-1.36-4.54Q0.88-6.00 2.49-9.08L2.49-9.08Q3.01-10.11 4.18-12.97L4.18-12.97Q5.65-16.49 6.86-18.80Q8.07-21.11 10.01-22.87Q11.95-24.63 14.67-24.78L14.67-24.78Q17.97-24.78 19.95-22.72Q21.93-20.67 21.93-18.18L21.93-18.18Q21.93-16.56 21.08-15.32Q20.24-14.07 19.14-13.41Q18.04-12.75 17.31-12.75L17.31-12.75Q16.72-12.75 16.72-13.12L16.72-13.12Q16.72-15.02 15.77-16.53Q14.81-18.03 13.42-18.03L13.42-18.03Q10.93-18.03 9.50-16.05Q8.07-14.07 6.67-10.55L6.67-10.55Q6.09-9.08 5.79-8.50L5.79-8.50Q4.55-5.86 2.79-4.17Q1.03-2.48-0.88-2.12L-0.88-2.12L-0.88-1.90Q3.01-1.90 5.72 0.12Q8.43 2.14 10.12 4.96Q11.81 7.78 13.71 12.04L13.71 12.04Q15.69 16.44 17.12 18.45Q18.55 20.47 20.68 20.47L20.68 20.47Q21.63 20.47 22.26 19.96Q22.88 19.44 23.47 18.56L23.47 18.56Q24.13 17.46 24.64 17.46L24.64 17.46L24.71 17.46Q25.37 17.46 25.70 17.98Q26.03 18.49 25.89 19.15L25.89 19.15Q25.45 21.50 23.28 22.63Q21.12 23.77 18.70 23.77L18.70 23.77Z"/></g></g>
		<g transform="matrix(-0.5238532121574446 -0.8518085536740796 0.8518085536740796 -0.5238532121574446 -291.61411348371047 163.98097202420797)" style="" id="pq17j6kp4">
		
<g xml:space="preserve" style="stroke: none; stroke-width: 1; stroke-dasharray:none; stroke-linecap: butt; stroke-dashoffset: 0; stroke-linejoin: miter; stroke-miterlimit: 4; fill: rgb(106,109,109); fill-rule: nonzero; opacity: 1; white-space: pre;"><path d="M-17.75 23.26Q-18.33 23.26-18.70 22.78Q-19.07 22.30-19.07 21.64L-19.07 21.64Q-18.99 20.54-18.59 20.32Q-18.19 20.10-17.16 20.10L-17.16 20.10Q-15.03 20.10-14.01 19.33Q-12.98 18.56-12.72 17.43Q-12.47 16.29-12.39 14.46L-12.39 14.46L-12.39-14.66Q-12.47-16.49-12.72-17.63Q-12.98-18.76-14.01-19.53Q-15.03-20.30-17.16-20.30L-17.16-20.30L-17.60-20.30Q-18.33-20.30-18.66-20.56Q-18.99-20.82-19.07-21.84L-19.07-21.84Q-19.07-22.50-18.70-22.98Q-18.33-23.46-17.75-23.46L-17.75-23.46Q-12.98-23.24-8.95-23.24L-8.95-23.24L2.05-23.24Q8.43-23.24 14.41-20.60Q20.39-17.96 20.39-10.04L20.39-10.04Q20.39-5.64 17.75-2.19Q15.11 1.26 10.89 3.16Q6.67 5.07 2.13 5.07L2.13 5.07Q-2.05 5.07-5.21 3.90L-5.21 3.90L-5.21 14.46Q-5.13 16.29-4.88 17.43Q-4.62 18.56-3.59 19.33Q-2.57 20.10-0.44 20.10L-0.44 20.10L0.00 20.10Q0.73 20.10 1.06 20.36Q1.39 20.62 1.47 21.64L1.47 21.64Q1.47 22.30 1.14 22.78Q0.81 23.26 0.15 23.26L0.15 23.26Q-4.55 23.04-9.02 23.04L-9.02 23.04Q-12.98 23.04-17.75 23.26L-17.75 23.26ZM0.00 1.77Q2.64 1.77 5.46 0.71Q8.29-0.36 10.27-2.96Q12.25-5.56 12.25-9.82L12.25-9.82Q12.25-16.27 8.14-18.40Q4.03-20.52-0.59-20.52L-0.59-20.52Q-2.49-20.52-3.45-20.12Q-4.40-19.72-4.80-18.54Q-5.21-17.37-5.21-14.88L-5.21-14.88L-5.21 0.96Q-3.45 1.77 0.00 1.77L0.00 1.77Z"/></g></g>
		<g transform="matrix(-0.4022684824772467 -0.9155217463312671 0.9155217463312671 -0.4022684824772467 -314.4574527025992 120.49131586017603)" style="" id="sf5nxzxvh">
		
<g xml:space="preserve" style="stroke: none; stroke-width: 1; stroke-dasharray:none; stroke-linecap: butt; stroke-dashoffset: 0; stroke-linejoin: miter; stroke-miterlimit: 4; fill: rgb(106,109,109); fill-rule: nonzero; opacity: 1; white-space: pre;"><path d="M-23.50 23.26Q-24.16 23.26-24.49 22.78Q-24.82 22.30-24.82 21.64L-24.82 21.64Q-24.75 20.54-24.38 20.32Q-24.02 20.10-23.50 20.10Q-22.99 20.10-22.84 20.10L-22.84 20.10Q-20.64 20.10-19.62 18.97Q-18.59 17.83-17.97 16.40Q-17.34 14.97-17.12 14.46L-17.12 14.46L-4.29-15.90Q-3.85-17.00-3.85-17.66L-3.85-17.66Q-3.85-18.98-4.88-19.57Q-5.90-20.16-7.74-20.52L-7.74-20.52Q-8.98-20.74-9.28-20.96Q-9.57-21.18-9.57-22.21L-9.57-22.21Q-9.57-23.09-9.09-23.38Q-8.62-23.68-7.59-23.68L-7.59-23.68Q-3.92-23.68-1.76-23.13Q0.40-22.58 2.02-20.93Q3.63-19.28 5.02-15.90L5.02-15.90L17.34 14.46Q18.44 17.24 19.47 18.64Q20.50 20.03 22.55 20.10L22.55 20.10L22.99 20.10Q23.72 20.10 24.02 20.36Q24.31 20.62 24.38 21.64L24.38 21.64Q24.38 22.30 24.05 22.78Q23.72 23.26 23.06 23.26L23.06 23.26Q18.37 23.04 15.00 23.04L15.00 23.04Q10.60 23.04 5.90 23.26L5.90 23.26Q5.24 23.26 4.91 22.78Q4.58 22.30 4.58 21.64L4.58 21.64Q4.66 20.62 4.95 20.36Q5.24 20.10 5.98 20.10L5.98 20.10Q8.47 20.10 9.50 19.63Q10.52 19.15 10.52 17.90L10.52 17.90Q10.52 16.95 9.64 14.46L9.64 14.46L7.15 8.37L-10.96 8.37Q-12.80 12.92-13.05 13.65Q-13.31 14.38-13.31 14.46L-13.31 14.46Q-14.19 17.24-14.19 18.05L-14.19 18.05Q-14.19 19.30-13.09 19.70Q-11.99 20.10-8.91 20.10L-8.91 20.10L-8.47 20.10Q-7.74 20.10-7.44 20.36Q-7.15 20.62-7.08 21.64L-7.08 21.64Q-7.08 22.30-7.41 22.78Q-7.74 23.26-8.40 23.26L-8.40 23.26Q-13.09 23.04-16.39 23.04L-16.39 23.04Q-18.74 23.04-23.50 23.26L-23.50 23.26ZM-1.80-13.63L-9.57 5.22L5.83 5.22L-1.58-13.63L-1.80-13.63Z"/></g></g>
		<g transform="matrix(-0.2318755059557988 -0.9727454701707648 0.9727454701707648 -0.2318755059557988 -332.99835492005667 65.61818046500242)" style="" id="zlcucwdas">
		
<g xml:space="preserve" style="stroke: none; stroke-width: 1; stroke-dasharray:none; stroke-linecap: butt; stroke-dashoffset: 0; stroke-linejoin: miter; stroke-miterlimit: 4; fill: rgb(106,109,109); fill-rule: nonzero; opacity: 1; white-space: pre;"><path d="M-8.91 23.26Q-9.57 23.26-9.90 22.78Q-10.23 22.30-10.23 21.64L-10.23 21.64Q-10.16 20.62-9.86 20.36Q-9.57 20.10-8.84 20.10L-8.84 20.10Q-6.49 20.10-5.43 19.59Q-4.36 19.08-4.11 18.38Q-3.85 17.68-3.70 16.07L-3.70 16.07Q-12.72 15.85-19.29 12.00Q-25.85 8.15-25.85-0.87L-25.85-0.87Q-25.85-9.52-19.29-13.23Q-12.72-16.93-3.70-17.22L-3.70-17.22Q-3.85-18.84-4.07-19.53Q-4.29-20.23-5.28-20.74Q-6.27-21.26-8.40-21.26L-8.40-21.26L-8.84-21.26Q-9.57-21.26-9.86-21.51Q-10.16-21.77-10.23-22.80L-10.23-22.80Q-10.23-23.46-9.90-23.93Q-9.57-24.41-8.91-24.41L-8.91-24.41Q-4.14-24.19-0.26-24.19L-0.26-24.19Q4.14-24.19 8.91-24.41L8.91-24.41Q9.57-24.41 9.90-23.93Q10.23-23.46 10.23-22.80L10.23-22.80Q10.16-21.77 9.86-21.51Q9.57-21.26 8.84-21.26L8.84-21.26Q6.49-21.26 5.43-20.74Q4.36-20.23 4.11-19.53Q3.85-18.84 3.70-17.22L3.70-17.22Q12.72-16.93 19.29-13.23Q25.85-9.52 25.85-0.87L25.85-0.87Q25.85 8.15 19.29 12.00Q12.72 15.85 3.70 16.07L3.70 16.07Q3.85 17.68 4.07 18.38Q4.29 19.08 5.28 19.59Q6.27 20.10 8.40 20.10L8.40 20.10L8.84 20.10Q9.57 20.10 9.86 20.36Q10.16 20.62 10.23 21.64L10.23 21.64Q10.23 22.30 9.90 22.78Q9.57 23.26 8.91 23.26L8.91 23.26Q4.22 23.04-0.26 23.04L-0.26 23.04Q-4.14 23.04-8.91 23.26L-8.91 23.26ZM-3.63 13.72L-3.63-14.88Q-10.08-14.66-13.93-11.50Q-17.78-8.35-17.78-0.87L-17.78-0.87Q-17.78 6.76-13.79 10.09Q-9.79 13.43-3.63 13.72L-3.63 13.72ZM3.63 13.72Q9.79 13.43 13.79 10.09Q17.78 6.76 17.78-0.87L17.78-0.87Q17.78-8.35 13.93-11.50Q10.08-14.66 3.63-14.88L3.63-14.88L3.63 13.72Z"/></g></g>
		<g transform="matrix(-0.03643421936955554 -0.999336053416933 0.999336053416933 -0.03643421936955554 -340.69964307870794 9.78984812898192)" style="" id="gv0w6zom6">
		
<g xml:space="preserve" style="stroke: none; stroke-width: 1; stroke-dasharray:none; stroke-linecap: butt; stroke-dashoffset: 0; stroke-linejoin: miter; stroke-miterlimit: 4; fill: rgb(106,109,109); fill-rule: nonzero; opacity: 1; white-space: pre;"><path d="M-8.87 23.26Q-9.53 23.26-9.86 22.78Q-10.19 22.30-10.19 21.64L-10.19 21.64Q-10.12 20.54-9.75 20.32Q-9.39 20.10-8.36 20.10L-8.36 20.10Q-6.23 20.10-5.21 19.33Q-4.18 18.56-3.92 17.43Q-3.67 16.29-3.59 14.46L-3.59 14.46L-3.59-20.52L-8.65-20.52Q-11.15-20.45-12.50-19.46Q-13.86-18.47-14.56-16.53Q-15.25-14.58-15.77-10.99L-15.77-10.99Q-15.84-10.40-16.65-10.04Q-17.45-9.67-18.33-9.67L-18.33-9.67Q-18.99-9.67-19.54-10.07Q-20.09-10.48-20.09-11.14L-20.09-11.14L-19.87-21.48Q-19.87-23.24-17.89-23.24L-17.89-23.24L17.97-23.24Q19.87-23.24 19.87-21.48L19.87-21.48L20.17-11.14Q20.17-10.48 19.58-10.07Q18.99-9.67 18.33-9.67L18.33-9.67Q17.45-9.67 16.68-10.04Q15.91-10.40 15.84-10.99L15.84-10.99Q15.25-14.66 14.59-16.56Q13.93-18.47 12.54-19.46Q11.15-20.45 8.65-20.52L8.65-20.52L3.67-20.52L3.67 14.46Q3.74 16.29 4.00 17.43Q4.25 18.56 5.28 19.33Q6.31 20.10 8.43 20.10L8.43 20.10L8.87 20.10Q9.53 20.10 9.86 20.36Q10.19 20.62 10.27 21.64L10.27 21.64Q10.27 22.30 9.94 22.78Q9.61 23.26 8.95 23.26L8.95 23.26Q4.25 23.04 0.29 23.04L0.29 23.04Q-4.11 23.04-8.87 23.26L-8.87 23.26Z"/></g></g>
		<g transform="matrix(0.1564146694983893 -0.9876914756976035 0.9876914756976035 0.1564146694983893 -337.4251845965181 -43.303780841755405)" style="" id="o9unph0w9">
		
<g xml:space="preserve" style="stroke: none; stroke-width: 1; stroke-dasharray:none; stroke-linecap: butt; stroke-dashoffset: 0; stroke-linejoin: miter; stroke-miterlimit: 4; fill: rgb(106,109,109); fill-rule: nonzero; opacity: 1; white-space: pre;"><path d="M-0.11 24.50Q-7.08 24.50-12.39 21.17Q-17.71 17.83-20.61 12.33Q-23.50 6.83-23.50 0.52L-23.50 0.52Q-23.50-7.18-20.02-12.90Q-16.54-18.62-11.11-21.66Q-5.68-24.70-0.11-24.70L-0.11-24.70Q6.93-24.70 12.32-21.37Q17.71-18.03 20.61-12.57Q23.50-7.10 23.50-0.80L23.50-0.80Q23.50 6.90 19.98 12.66Q16.46 18.42 10.96 21.46Q5.46 24.50-0.11 24.50L-0.11 24.50ZM-0.18 21.28Q4.80 21.28 8.14 18.31Q11.48 15.34 13.13 10.31Q14.78 5.29 14.78-0.80L14.78-0.80Q14.78-6.44 13.09-11.17Q11.40-15.90 8.03-18.73Q4.66-21.55-0.18-21.55L-0.18-21.55Q-7.52-21.55-11.22-15.35Q-14.92-9.16-14.92 0.30L-14.92 0.30Q-14.92 6.02-13.27 10.79Q-11.62 15.56-8.32 18.42Q-5.02 21.28-0.18 21.28L-0.18 21.28Z"/></g></g>
		<g transform="matrix(0.3265203804888927 -0.9451901613566387 0.9451901613566387 0.3265203804888927 -324.3501685677137 -95.2617300052672)" style="" id="wqw67v0dm">
		
<g xml:space="preserve" style="stroke: none; stroke-width: 1; stroke-dasharray:none; stroke-linecap: butt; stroke-dashoffset: 0; stroke-linejoin: miter; stroke-miterlimit: 4; fill: rgb(106,109,109); fill-rule: nonzero; opacity: 1; white-space: pre;"><path d="M-18.37 23.26Q-19.03 23.26-19.36 22.78Q-19.69 22.30-19.69 21.64L-19.69 21.64Q-19.62 20.54-19.25 20.32Q-18.88 20.10-17.86 20.10L-17.86 20.10Q-15.73 20.10-14.70 19.33Q-13.68 18.56-13.42 17.43Q-13.16 16.29-13.09 14.46L-13.09 14.46L-13.09-14.66Q-13.16-16.49-13.42-17.63Q-13.68-18.76-14.70-19.53Q-15.73-20.30-17.86-20.30L-17.86-20.30L-18.30-20.30Q-19.03-20.30-19.32-20.56Q-19.62-20.82-19.69-21.84L-19.69-21.84Q-19.69-22.50-19.36-22.98Q-19.03-23.46-18.37-23.46L-18.37-23.46Q-13.60-23.24-9.72-23.24L-9.72-23.24L0.62-23.24Q4.66-23.24 7.15-22.65Q9.64-22.06 11.62-20.82L11.62-20.82Q13.53-19.57 14.63-17.41Q15.73-15.24 15.73-12.68L15.73-12.68Q15.73-8.13 12.76-5.45Q9.79-2.78 5.83-1.82L5.83-1.82L5.83-1.60Q9.64-1.60 12.76-0.10Q15.88 1.40 17.60 3.93Q19.32 6.46 19.32 9.40L19.32 9.40Q19.32 14.38 16.28 17.46Q13.24 20.54 8.65 21.83Q4.07 23.11-0.84 23.11L-0.84 23.11L-9.64 23.04Q-13.60 23.04-18.37 23.26L-18.37 23.26ZM-5.83-3.07L-2.75-3.07Q0.18-3.07 2.35-3.51Q4.51-3.95 6.20-5.86Q7.88-7.76 7.88-11.80L7.88-11.80Q7.88-20.52-0.70-20.52L-0.70-20.52L-5.83-20.52L-5.83-3.07ZM-0.55 20.18Q4.88 20.10 8.14 17.50Q11.40 14.90 11.40 8.96L11.40 8.96Q11.04 5.00 7.70 2.43Q4.36-0.14-2.82-0.14L-2.82-0.14L-5.83-0.14L-5.83 14.46Q-5.83 16.95-5.35 18.16Q-4.88 19.37-3.81 19.77Q-2.75 20.18-0.55 20.18L-0.55 20.18Z"/></g></g>
		<g transform="matrix(0.4326471581782125 -0.9015633291789972 0.9015633291789972 0.4326471581782125 -309.6233304252744 -131.01043355189626)" style="" id="cfpbr0wmy">
		
<g xml:space="preserve" style="stroke: none; stroke-width: 1; stroke-dasharray:none; stroke-linecap: butt; stroke-dashoffset: 0; stroke-linejoin: miter; stroke-miterlimit: 4; fill: rgb(106,109,109); fill-rule: nonzero; opacity: 1; white-space: pre;"><path d="M-8.95 23.26Q-9.61 23.26-9.94 22.78Q-10.27 22.30-10.27 21.64L-10.27 21.64Q-10.19 20.54-9.79 20.32Q-9.39 20.10-8.43 20.10L-8.43 20.10Q-6.31 20.10-5.28 19.33Q-4.25 18.56-3.96 17.46Q-3.67 16.36-3.59 14.46L-3.59 14.46L-3.59-14.66Q-3.67-16.56-3.96-17.66Q-4.25-18.76-5.28-19.53Q-6.31-20.30-8.43-20.30L-8.43-20.30L-8.87-20.30Q-9.53-20.30-9.86-20.56Q-10.19-20.82-10.27-21.84L-10.27-21.84Q-10.27-22.50-9.94-22.98Q-9.61-23.46-8.95-23.46L-8.95-23.46Q-4.18-23.24-0.22-23.24L-0.22-23.24Q4.18-23.24 8.95-23.46L8.95-23.46Q9.61-23.46 9.94-22.98Q10.27-22.50 10.27-21.84L10.27-21.84Q10.19-20.74 9.79-20.52Q9.39-20.30 8.36-20.30L8.36-20.30Q6.23-20.30 5.21-19.53Q4.18-18.76 3.92-17.63Q3.67-16.49 3.59-14.66L3.59-14.66L3.59 14.46Q3.67 16.29 3.92 17.43Q4.18 18.56 5.21 19.33Q6.23 20.10 8.36 20.10L8.36 20.10L8.80 20.10Q9.53 20.10 9.86 20.36Q10.19 20.62 10.27 21.64L10.27 21.64Q10.27 22.30 9.94 22.78Q9.61 23.26 8.95 23.26L8.95 23.26Q4.25 23.04-0.15 23.04L-0.15 23.04Q-4.18 23.04-8.95 23.26L-8.95 23.26Z"/></g></g>
		<g transform="matrix(0.48964704274925835 -0.8719207380988859 0.8719207380988859 0.48964704274925835 -299.02712204963177 -151.3752753933896)" style="" id="qkm2r5uug">
		
<g xml:space="preserve" style="stroke: none; stroke-width: 1; stroke-dasharray:none; stroke-linecap: butt; stroke-dashoffset: 0; stroke-linejoin: miter; stroke-miterlimit: 4; fill: rgb(106,109,109); fill-rule: nonzero; opacity: 1; white-space: pre;"><path style="white-space: pre;" d=""/></g></g>
		<g transform="matrix(0.5645352321519899 -0.8254089723640632 0.8254089723640632 0.5645352321519899 -281.65503187647664 -179.32476901737797)" style="" id="txb086fml">
		
<g xml:space="preserve" style="stroke: none; stroke-width: 1; stroke-dasharray:none; stroke-linecap: butt; stroke-dashoffset: 0; stroke-linejoin: miter; stroke-miterlimit: 4; fill: rgb(106,109,109); fill-rule: nonzero; opacity: 1; white-space: pre;"><path d="M-18.37 23.26Q-19.03 23.26-19.36 22.78Q-19.69 22.30-19.69 21.64L-19.69 21.64Q-19.62 20.54-19.25 20.32Q-18.88 20.10-17.86 20.10L-17.86 20.10Q-15.73 20.10-14.70 19.33Q-13.68 18.56-13.42 17.43Q-13.16 16.29-13.09 14.46L-13.09 14.46L-13.09-14.66Q-13.16-16.49-13.42-17.63Q-13.68-18.76-14.70-19.53Q-15.73-20.30-17.86-20.30L-17.86-20.30L-18.30-20.30Q-19.03-20.30-19.32-20.56Q-19.62-20.82-19.69-21.84L-19.69-21.84Q-19.69-22.50-19.36-22.98Q-19.03-23.46-18.37-23.46L-18.37-23.46Q-13.60-23.24-9.72-23.24L-9.72-23.24L0.62-23.24Q4.66-23.24 7.15-22.65Q9.64-22.06 11.62-20.82L11.62-20.82Q13.53-19.57 14.63-17.41Q15.73-15.24 15.73-12.68L15.73-12.68Q15.73-8.13 12.76-5.45Q9.79-2.78 5.83-1.82L5.83-1.82L5.83-1.60Q9.64-1.60 12.76-0.10Q15.88 1.40 17.60 3.93Q19.32 6.46 19.32 9.40L19.32 9.40Q19.32 14.38 16.28 17.46Q13.24 20.54 8.65 21.83Q4.07 23.11-0.84 23.11L-0.84 23.11L-9.64 23.04Q-13.60 23.04-18.37 23.26L-18.37 23.26ZM-5.83-3.07L-2.75-3.07Q0.18-3.07 2.35-3.51Q4.51-3.95 6.20-5.86Q7.88-7.76 7.88-11.80L7.88-11.80Q7.88-20.52-0.70-20.52L-0.70-20.52L-5.83-20.52L-5.83-3.07ZM-0.55 20.18Q4.88 20.10 8.14 17.50Q11.40 14.90 11.40 8.96L11.40 8.96Q11.04 5.00 7.70 2.43Q4.36-0.14-2.82-0.14L-2.82-0.14L-5.83-0.14L-5.83 14.46Q-5.83 16.95-5.35 18.16Q-4.88 19.37-3.81 19.77Q-2.75 20.18-0.55 20.18L-0.55 20.18Z"/></g></g>
		<g transform="matrix(0.6740089046278903 -0.7387232204840399 0.7387232204840399 0.6740089046278903 -247.74069825733955 -222.1122378212984)" style="" id="ed4t70j9m">
		
<g xml:space="preserve" style="stroke: none; stroke-width: 1; stroke-dasharray:none; stroke-linecap: butt; stroke-dashoffset: 0; stroke-linejoin: miter; stroke-miterlimit: 4; fill: rgb(106,109,109); fill-rule: nonzero; opacity: 1; white-space: pre;"><path d="M-23.69 23.26Q-25.01 23.18-25.01 21.64L-25.01 21.64Q-24.93 20.54-24.57 20.32Q-24.20 20.10-23.17 20.10L-23.17 20.10Q-21.05 20.10-20.02 19.33Q-18.99 18.56-18.74 17.43Q-18.48 16.29-18.41 14.46L-18.41 14.46L-18.41-14.66Q-18.48-16.49-18.74-17.63Q-18.99-18.76-20.02-19.53Q-21.05-20.30-23.17-20.30L-23.17-20.30L-23.61-20.30Q-24.35-20.30-24.64-20.56Q-24.93-20.82-25.01-21.84L-25.01-21.84Q-25.01-22.50-24.68-22.98Q-24.35-23.46-23.69-23.46L-23.69-23.46Q-18.99-23.24-15.03-23.24L-15.03-23.24Q-10.63-23.24-5.87-23.46L-5.87-23.46Q-5.21-23.46-4.88-22.98Q-4.55-22.50-4.55-21.84L-4.55-21.84Q-4.62-20.74-4.99-20.52Q-5.35-20.30-6.38-20.30L-6.38-20.30Q-8.51-20.30-9.53-19.53Q-10.56-18.76-10.82-17.63Q-11.07-16.49-11.15-14.66L-11.15-14.66L-11.15 11.30L9.90-15.24Q12.69-18.76 14.30-20.38Q15.91-21.99 17.12-22.58Q18.33-23.16 19.95-23.31L19.95-23.31Q21.71-23.46 23.69-23.46L23.69-23.46Q25.01-23.46 25.01-21.84L25.01-21.84Q24.93-20.74 24.57-20.52Q24.20-20.30 23.17-20.30L23.17-20.30Q21.05-20.30 20.02-19.53Q18.99-18.76 18.74-17.63Q18.48-16.49 18.41-14.66L18.41-14.66L18.41 14.46Q18.48 16.29 18.74 17.43Q18.99 18.56 20.02 19.33Q21.05 20.10 23.17 20.10L23.17 20.10L23.61 20.10Q24.35 20.10 24.64 20.36Q24.93 20.62 25.01 21.64L25.01 21.64Q25.01 22.30 24.68 22.78Q24.35 23.26 23.69 23.26L23.69 23.26Q18.99 23.04 15.03 23.04L15.03 23.04Q10.71 23.04 5.94 23.26L5.94 23.26Q5.28 23.26 4.95 22.78Q4.62 22.30 4.62 21.64L4.62 21.64Q4.69 20.54 5.10 20.32Q5.50 20.10 6.45 20.10L6.45 20.10Q8.58 20.10 9.61 19.33Q10.63 18.56 10.89 17.43Q11.15 16.29 11.22 14.46L11.22 14.46L11.22-11.43L-9.90 14.97Q-12.69 18.42-14.19 19.99Q-15.69 21.57-16.83 22.27Q-17.97 22.96-19.43 23.11L-19.43 23.11Q-21.85 23.33-23.69 23.26L-23.69 23.26Z"/></g></g>
		<g transform="matrix(0.7676910676953828 -0.6408201187390445 0.6408201187390445 0.7676910676953828 -208.81132805808167 -259.3696893643565)" style="" id="3up62nhe5">
		
<g xml:space="preserve" style="stroke: none; stroke-width: 1; stroke-dasharray:none; stroke-linecap: butt; stroke-dashoffset: 0; stroke-linejoin: miter; stroke-miterlimit: 4; fill: rgb(106,109,109); fill-rule: nonzero; opacity: 1; white-space: pre;"><path d="M-17.75 23.26Q-18.33 23.26-18.70 22.78Q-19.07 22.30-19.07 21.64L-19.07 21.64Q-18.99 20.54-18.59 20.32Q-18.19 20.10-17.16 20.10L-17.16 20.10Q-15.03 20.10-14.01 19.33Q-12.98 18.56-12.72 17.43Q-12.47 16.29-12.39 14.46L-12.39 14.46L-12.39-14.66Q-12.47-16.49-12.72-17.63Q-12.98-18.76-14.01-19.53Q-15.03-20.30-17.16-20.30L-17.16-20.30L-17.60-20.30Q-18.33-20.30-18.66-20.56Q-18.99-20.82-19.07-21.84L-19.07-21.84Q-19.07-22.50-18.70-22.98Q-18.33-23.46-17.75-23.46L-17.75-23.46Q-12.98-23.24-8.95-23.24L-8.95-23.24L2.05-23.24Q8.43-23.24 14.41-20.60Q20.39-17.96 20.39-10.04L20.39-10.04Q20.39-5.64 17.75-2.19Q15.11 1.26 10.89 3.16Q6.67 5.07 2.13 5.07L2.13 5.07Q-2.05 5.07-5.21 3.90L-5.21 3.90L-5.21 14.46Q-5.13 16.29-4.88 17.43Q-4.62 18.56-3.59 19.33Q-2.57 20.10-0.44 20.10L-0.44 20.10L0.00 20.10Q0.73 20.10 1.06 20.36Q1.39 20.62 1.47 21.64L1.47 21.64Q1.47 22.30 1.14 22.78Q0.81 23.26 0.15 23.26L0.15 23.26Q-4.55 23.04-9.02 23.04L-9.02 23.04Q-12.98 23.04-17.75 23.26L-17.75 23.26ZM0.00 1.77Q2.64 1.77 5.46 0.71Q8.29-0.36 10.27-2.96Q12.25-5.56 12.25-9.82L12.25-9.82Q12.25-16.27 8.14-18.40Q4.03-20.52-0.59-20.52L-0.59-20.52Q-2.49-20.52-3.45-20.12Q-4.40-19.72-4.80-18.54Q-5.21-17.37-5.21-14.88L-5.21-14.88L-5.21 0.96Q-3.45 1.77 0.00 1.77L0.00 1.77Z"/></g></g>
		<g transform="matrix(0.8470369038164579 -0.5315340850529049 0.5315340850529049 0.8470369038164579 -166.6857575238279 -289.9926679178079)" style="" id="npzgvhbqx">
		
<g xml:space="preserve" style="stroke: none; stroke-width: 1; stroke-dasharray:none; stroke-linecap: butt; stroke-dashoffset: 0; stroke-linejoin: miter; stroke-miterlimit: 4; fill: rgb(106,109,109); fill-rule: nonzero; opacity: 1; white-space: pre;"><path d="M-0.11 24.50Q-7.08 24.50-12.39 21.17Q-17.71 17.83-20.61 12.33Q-23.50 6.83-23.50 0.52L-23.50 0.52Q-23.50-7.18-20.02-12.90Q-16.54-18.62-11.11-21.66Q-5.68-24.70-0.11-24.70L-0.11-24.70Q6.93-24.70 12.32-21.37Q17.71-18.03 20.61-12.57Q23.50-7.10 23.50-0.80L23.50-0.80Q23.50 6.90 19.98 12.66Q16.46 18.42 10.96 21.46Q5.46 24.50-0.11 24.50L-0.11 24.50ZM-0.18 21.28Q4.80 21.28 8.14 18.31Q11.48 15.34 13.13 10.31Q14.78 5.29 14.78-0.80L14.78-0.80Q14.78-6.44 13.09-11.17Q11.40-15.90 8.03-18.73Q4.66-21.55-0.18-21.55L-0.18-21.55Q-7.52-21.55-11.22-15.35Q-14.92-9.16-14.92 0.30L-14.92 0.30Q-14.92 6.02-13.27 10.79Q-11.62 15.56-8.32 18.42Q-5.02 21.28-0.18 21.28L-0.18 21.28Z"/></g></g>
		<g transform="matrix(0.9172509663788873 -0.3983097597059321 0.3983097597059321 0.9172509663788873 -119.0145799813147 -315.189420818788)" style="" id="vqcjvogn9">
		
<g xml:space="preserve" style="stroke: none; stroke-width: 1; stroke-dasharray:none; stroke-linecap: butt; stroke-dashoffset: 0; stroke-linejoin: miter; stroke-miterlimit: 4; fill: rgb(106,109,109); fill-rule: nonzero; opacity: 1; white-space: pre;"><path d="M-18.59 23.26Q-19.25 23.26-19.58 22.78Q-19.91 22.30-19.91 21.64L-19.91 21.64Q-19.84 20.54-19.47 20.32Q-19.10 20.10-18.08 20.10L-18.08 20.10Q-15.95 20.10-14.92 19.33Q-13.90 18.56-13.64 17.43Q-13.38 16.29-13.31 14.46L-13.31 14.46L-13.31-14.66Q-13.38-16.49-13.64-17.63Q-13.90-18.76-14.92-19.53Q-15.95-20.30-18.08-20.30L-18.08-20.30L-18.52-20.30Q-19.25-20.30-19.54-20.56Q-19.84-20.82-19.91-21.84L-19.91-21.84Q-19.91-22.50-19.58-22.98Q-19.25-23.46-18.59-23.46L-18.59-23.46Q-13.90-23.24-9.94-23.24L-9.94-23.24L13.60-23.24Q15.51-23.24 15.51-21.48L15.51-21.48L15.73-11.14Q15.73-10.48 15.18-10.07Q14.63-9.67 13.97-9.67L13.97-9.67Q13.09-9.67 12.32-10.04Q11.55-10.40 11.48-10.99L11.48-10.99Q10.89-14.58 10.19-16.49Q9.50-18.40 8.14-19.31Q6.78-20.23 4.29-20.30L4.29-20.30L-6.05-20.30L-6.05-3.95Q-2.02-4.61 1.50-4.61L1.50-4.61Q7.30-4.61 11.37-2.85Q15.44-1.09 17.49 1.99Q19.54 5.07 19.54 8.96L19.54 8.96Q19.54 14.09 16.46 17.28Q13.38 20.47 8.76 21.79Q4.14 23.11-0.84 23.11L-0.84 23.11L-9.86 23.04Q-13.82 23.04-18.59 23.26L-18.59 23.26ZM-0.62 20.10Q11.40 19.96 11.40 9.03L11.40 9.03Q11.40 3.68 7.66 1.15Q3.92-1.38-1.43-1.38L-1.43-1.38Q-4.29-1.38-6.05-0.94L-6.05-0.94L-6.05 14.02Q-6.05 17.61-4.91 18.86Q-3.78 20.10-0.62 20.10L-0.62 20.10Z"/></g></g>
		<g transform="matrix(0.9727725329332125 -0.23176194504426728 0.23176194504426728 0.9727725329332125 -65.67858597085666 -333.0780479350176)" style="" id="iyuea22uo">
		
<g xml:space="preserve" style="stroke: none; stroke-width: 1; stroke-dasharray:none; stroke-linecap: butt; stroke-dashoffset: 0; stroke-linejoin: miter; stroke-miterlimit: 4; fill: rgb(106,109,109); fill-rule: nonzero; opacity: 1; white-space: pre;"><path d="M-23.69 23.26Q-25.01 23.18-25.01 21.64L-25.01 21.64Q-24.93 20.54-24.57 20.32Q-24.20 20.10-23.17 20.10L-23.17 20.10Q-21.05 20.10-20.02 19.33Q-18.99 18.56-18.74 17.43Q-18.48 16.29-18.41 14.46L-18.41 14.46L-18.41-14.66Q-18.48-16.49-18.74-17.63Q-18.99-18.76-20.02-19.53Q-21.05-20.30-23.17-20.30L-23.17-20.30L-23.61-20.30Q-24.35-20.30-24.64-20.56Q-24.93-20.82-25.01-21.84L-25.01-21.84Q-25.01-22.50-24.68-22.98Q-24.35-23.46-23.69-23.46L-23.69-23.46Q-18.99-23.24-15.03-23.24L-15.03-23.24Q-10.63-23.24-5.87-23.46L-5.87-23.46Q-5.21-23.46-4.88-22.98Q-4.55-22.50-4.55-21.84L-4.55-21.84Q-4.62-20.74-4.99-20.52Q-5.35-20.30-6.38-20.30L-6.38-20.30Q-8.51-20.30-9.53-19.53Q-10.56-18.76-10.82-17.63Q-11.07-16.49-11.15-14.66L-11.15-14.66L-11.15 11.30L9.90-15.24Q12.69-18.76 14.30-20.38Q15.91-21.99 17.12-22.58Q18.33-23.16 19.95-23.31L19.95-23.31Q21.71-23.46 23.69-23.46L23.69-23.46Q25.01-23.46 25.01-21.84L25.01-21.84Q24.93-20.74 24.57-20.52Q24.20-20.30 23.17-20.30L23.17-20.30Q21.05-20.30 20.02-19.53Q18.99-18.76 18.74-17.63Q18.48-16.49 18.41-14.66L18.41-14.66L18.41 14.46Q18.48 16.29 18.74 17.43Q18.99 18.56 20.02 19.33Q21.05 20.10 23.17 20.10L23.17 20.10L23.61 20.10Q24.35 20.10 24.64 20.36Q24.93 20.62 25.01 21.64L25.01 21.64Q25.01 22.30 24.68 22.78Q24.35 23.26 23.69 23.26L23.69 23.26Q18.99 23.04 15.03 23.04L15.03 23.04Q10.71 23.04 5.94 23.26L5.94 23.26Q5.28 23.26 4.95 22.78Q4.62 22.30 4.62 21.64L4.62 21.64Q4.69 20.54 5.10 20.32Q5.50 20.10 6.45 20.10L6.45 20.10Q8.58 20.10 9.61 19.33Q10.63 18.56 10.89 17.43Q11.15 16.29 11.22 14.46L11.22 14.46L11.22-11.43L-9.90 14.97Q-12.69 18.42-14.19 19.99Q-15.69 21.57-16.83 22.27Q-17.97 22.96-19.43 23.11L-19.43 23.11Q-21.85 23.33-23.69 23.26L-23.69 23.26Z"/></g></g>
		<g transform="matrix(0.9955109501163438 -0.0946464378540174 0.0946464378540174 0.9955109501163438 -26.221972211715578 -339.6626609049769)" style="" id="7d8e6fo8p">
		
<g xml:space="preserve" style="stroke: none; stroke-width: 1; stroke-dasharray:none; stroke-linecap: butt; stroke-dashoffset: 0; stroke-linejoin: miter; stroke-miterlimit: 4; fill: rgb(106,109,109); fill-rule: nonzero; opacity: 1; white-space: pre;"><path style="white-space: pre;" d=""/></g></g>
</g>
</g>
</svg>